<svg xmlns="http://www.w3.org/2000/svg" fill="none" viewBox="0 0 488 150" height="150" width="488">
<path fill="#E74C3C" d="M190.56 55C190.133 55.1707 189.643 55.2773 189.088 55.32C188.576 55.4053 188.064 55.448 187.552 55.448C185.419 55.448 183.989 54.7867 183.264 53.464C182.539 52.0987 182.304 50.3707 182.56 48.28C182.901 45.592 183.477 42.9893 184.288 40.472C185.099 37.9547 185.995 35.416 186.976 32.856C187.957 30.296 188.853 27.6293 189.664 24.856C190.517 22.04 191.179 19.032 191.648 15.832L198.048 14.808L196.896 16.984C197.451 17.5813 197.813 18.392 197.984 19.416C198.155 20.3973 198.133 21.5493 197.92 22.872C197.451 25.7307 196.704 28.6107 195.68 31.512C194.699 34.3707 193.717 37.2507 192.736 40.152C191.755 43.0107 191.029 45.9333 190.56 48.92C190.432 49.944 190.347 50.9893 190.304 52.056C190.304 53.1227 190.389 54.104 190.56 55ZM188.704 10.2C191.733 9.688 194.464 9.34667 196.896 9.176C199.328 9.00533 201.824 8.92 204.384 8.92C206.773 8.92 208.821 9.24 210.528 9.88C212.277 10.52 213.707 11.416 214.816 12.568C215.968 13.6773 216.821 14.936 217.376 16.344C217.973 17.752 218.315 19.224 218.4 20.76C218.485 22.296 218.336 23.832 217.952 25.368L217.76 26.136C216.949 29.464 215.883 32.28 214.56 34.584C213.237 36.8453 211.723 38.68 210.016 40.088C208.352 41.4533 206.56 42.4347 204.64 43.032C202.72 43.6293 200.736 43.928 198.688 43.928C197.28 43.928 196.085 43.6507 195.104 43.096C194.123 42.5413 193.355 41.88 192.8 41.112L190.88 41.688L192.672 36.12C193.397 36.3333 194.059 36.504 194.656 36.632C195.296 36.76 196.192 36.824 197.344 36.824C198.837 36.824 200.224 36.6533 201.504 36.312C202.784 35.928 203.957 35.3093 205.024 34.456C206.091 33.56 207.029 32.3867 207.84 30.936C208.651 29.4427 209.355 27.5653 209.952 25.304L210.208 24.472C210.421 23.6187 210.571 22.6373 210.656 21.528C210.784 20.4187 210.741 19.224 210.528 17.944C209.461 17.3467 208.373 16.9413 207.264 16.728C206.155 16.472 204.789 16.344 203.168 16.344C200.565 16.344 198.283 16.4507 196.32 16.664C194.4 16.8773 192.821 17.112 191.584 17.368C190.347 17.5813 189.472 17.688 188.96 17.688C188.107 17.688 187.573 17.304 187.36 16.536C187.189 15.768 187.275 14.6373 187.616 13.144C187.829 12.5467 188 12.0133 188.128 11.544C188.299 11.0747 188.491 10.6267 188.704 10.2ZM224.711 22.936C226.162 22.3813 227.762 21.8907 229.511 21.464C231.26 21.0373 233.01 20.696 234.759 20.44C236.551 20.184 238.194 20.056 239.687 20.056C240.967 20.056 242.119 20.3333 243.143 20.888C244.21 21.4427 245.042 22.1893 245.639 23.128C246.236 24.024 246.428 25.0053 246.215 26.072C245.916 27.6933 245.447 29.2507 244.807 30.744C244.167 32.1947 243.463 33.6453 242.695 35.096C241.927 36.5467 241.202 37.9973 240.519 39.448C239.836 40.8987 239.324 42.4133 238.983 43.992C238.812 44.7173 238.684 45.4213 238.599 46.104C238.556 46.744 238.556 47.384 238.599 48.024C238.898 48.28 239.218 48.472 239.559 48.6C239.943 48.728 240.37 48.792 240.839 48.792C242.972 48.792 244.956 48.344 246.791 47.448C248.626 46.5093 250.567 44.888 252.615 42.584H252.999C253.084 43.1813 253.106 43.8427 253.063 44.568C253.063 45.2933 252.935 46.1467 252.679 47.128C252.338 48.536 251.911 49.7093 251.399 50.648C250.93 51.5867 250.311 52.4187 249.543 53.144C248.988 53.6133 248.306 54.0613 247.495 54.488C246.684 54.872 245.746 55.1707 244.679 55.384C243.655 55.64 242.546 55.768 241.351 55.768C239.772 55.768 238.3 55.448 236.935 54.808C235.612 54.168 234.482 53.2933 233.543 52.184C232.604 51.032 231.922 49.7733 231.495 48.408C231.111 47 231.047 45.5707 231.303 44.12C231.559 42.4133 231.986 40.8133 232.583 39.32C233.223 37.8267 233.884 36.3973 234.567 35.032C235.292 33.624 235.975 32.216 236.615 30.808C237.298 29.4 237.852 27.9067 238.279 26.328L237.895 26.136C236.359 27.0747 234.802 27.9707 233.223 28.824C231.687 29.6347 230.236 30.296 228.871 30.808C227.506 31.32 226.311 31.576 225.287 31.576C224.391 31.576 223.772 31.0853 223.431 30.104C223.09 29.1227 223.132 27.736 223.559 25.944C223.687 25.432 223.836 24.9413 224.007 24.472C224.178 24.0027 224.412 23.4907 224.711 22.936ZM240.775 6.36C241.159 6.27466 241.543 6.21067 241.927 6.168C242.311 6.12533 242.716 6.104 243.143 6.104C243.57 6.06133 243.975 6.04 244.359 6.04C244.743 5.99733 245.106 5.976 245.447 5.976C247.538 5.976 248.988 6.488 249.799 7.512C250.61 8.49333 250.802 9.90133 250.375 11.736L249.671 14.552C249.287 14.5947 248.903 14.6587 248.519 14.744C248.135 14.7867 247.73 14.8293 247.303 14.872C246.919 14.872 246.535 14.872 246.151 14.872C245.767 14.872 245.404 14.872 245.063 14.872C242.844 14.872 241.308 14.4027 240.455 13.464C239.644 12.5253 239.516 11.032 240.071 8.984L240.775 6.36ZM264.942 9.24C265.71 8.94133 266.585 8.664 267.566 8.408C268.59 8.10933 269.657 7.832 270.766 7.576C271.918 7.32 273.091 7.10666 274.286 6.936C275.481 6.72266 276.654 6.57333 277.806 6.488C278.958 6.36 280.046 6.296 281.07 6.296C282.435 6.296 283.651 6.63733 284.718 7.32C285.827 7.96 286.659 8.81333 287.214 9.88C287.811 10.9467 288.003 12.12 287.79 13.4C287.449 15.448 286.851 17.496 285.998 19.544C285.187 21.5493 284.206 23.5333 283.054 25.496C281.945 27.4587 280.814 29.4213 279.662 31.384C278.553 33.3467 277.529 35.3093 276.59 37.272C275.694 39.2347 275.033 41.1973 274.606 43.16C274.393 43.9707 274.265 44.7173 274.222 45.4C274.179 46.04 274.158 46.7227 274.158 47.448C274.67 47.7893 275.246 48.024 275.886 48.152C276.526 48.28 277.209 48.344 277.934 48.344C279.513 48.344 280.963 48.1093 282.286 47.64C283.651 47.128 284.995 46.3173 286.318 45.208C287.641 44.0987 289.049 42.6053 290.542 40.728H290.926C291.054 41.5813 291.118 42.4987 291.118 43.48C291.161 44.4613 291.054 45.4853 290.798 46.552C290.542 47.5333 290.243 48.408 289.902 49.176C289.603 49.944 289.241 50.6267 288.814 51.224C288.387 51.7787 287.875 52.312 287.278 52.824C286.595 53.464 285.785 53.9973 284.846 54.424C283.907 54.8507 282.862 55.1707 281.71 55.384C280.601 55.64 279.363 55.768 277.998 55.768C276.206 55.768 274.542 55.4267 273.006 54.744C271.513 54.0187 270.254 53.0587 269.23 51.864C268.206 50.6693 267.459 49.304 266.99 47.768C266.563 46.232 266.499 44.568 266.798 42.776C267.182 40.472 267.801 38.2747 268.654 36.184C269.507 34.0933 270.467 32.088 271.534 30.168C272.601 28.248 273.689 26.3493 274.798 24.472C275.907 22.552 276.91 20.6107 277.806 18.648C278.745 16.6853 279.449 14.616 279.918 12.44L279.534 12.184C277.657 13.2933 275.822 14.232 274.03 15C272.281 15.768 270.681 16.3653 269.23 16.792C267.822 17.176 266.649 17.368 265.71 17.368C264.643 17.368 263.939 16.9627 263.598 16.152C263.257 15.3413 263.299 14.0187 263.726 12.184C263.854 11.672 264.003 11.1813 264.174 10.712C264.345 10.2427 264.601 9.752 264.942 9.24ZM318.293 19.992C320.469 19.992 322.389 20.504 324.053 21.528C325.76 22.552 327.125 23.9813 328.149 25.816C329.216 27.608 329.898 29.72 330.197 32.152C330.496 34.5413 330.325 37.1013 329.685 39.832L329.429 40.792C328.704 44.12 327.552 46.8933 325.973 49.112C324.394 51.288 322.389 52.9307 319.957 54.04C317.568 55.1493 314.666 55.704 311.253 55.704C308.736 55.704 306.538 55.2773 304.661 54.424C302.784 53.528 301.269 52.2907 300.117 50.712C299.008 49.1333 298.282 47.2987 297.941 45.208C297.642 43.1173 297.813 40.8347 298.453 38.36L298.709 37.4C299.648 33.816 301.056 30.7227 302.933 28.12C304.81 25.5173 307.05 23.512 309.653 22.104C312.256 20.696 315.136 19.992 318.293 19.992ZM318.101 27.224C316.48 27.224 314.922 27.672 313.429 28.568C311.978 29.464 310.656 30.808 309.461 32.6C308.266 34.3493 307.285 36.568 306.517 39.256L306.389 39.96C305.877 41.752 305.642 43.3733 305.685 44.824C305.728 46.2747 306.112 47.512 306.837 48.536C307.477 48.7493 308.117 48.92 308.757 49.048C309.397 49.176 310.08 49.24 310.805 49.24C312.896 49.24 314.73 48.8987 316.309 48.216C317.888 47.4907 319.189 46.4667 320.213 45.144C321.28 43.7787 322.069 42.1147 322.581 40.152L322.773 39.448C323.328 37.016 323.605 34.84 323.605 32.92C323.605 31 323.285 29.3573 322.645 27.992C322.048 27.736 321.386 27.544 320.661 27.416C319.936 27.288 319.082 27.224 318.101 27.224ZM339.772 20.696H367.74C369.191 20.696 370.172 21.144 370.684 22.04C371.196 22.8933 371.281 23.9813 370.94 25.304C370.812 25.688 370.684 26.0507 370.556 26.392C370.471 26.7333 370.364 27.0747 370.236 27.416C370.108 27.7573 369.959 28.0773 369.788 28.376H347.388C345.767 28.376 344.38 28.248 343.228 27.992C342.076 27.6933 341.18 27.2667 340.54 26.712C339.9 26.1573 339.473 25.4747 339.26 24.664C339.089 23.8107 339.111 22.8507 339.324 21.784C339.367 21.6133 339.409 21.4853 339.452 21.4C339.495 21.272 339.537 21.1653 339.58 21.08C339.665 20.952 339.729 20.824 339.772 20.696ZM367.676 42.712C367.761 43.3093 367.783 44.0347 367.74 44.888C367.697 45.6987 367.569 46.552 367.356 47.448C367.1 48.5147 366.759 49.432 366.332 50.2C365.948 50.968 365.393 51.736 364.668 52.504C364.113 53.016 363.516 53.4853 362.876 53.912C362.236 54.296 361.511 54.6373 360.7 54.936C359.932 55.192 359.079 55.384 358.14 55.512C357.201 55.64 356.199 55.704 355.132 55.704C353.127 55.704 351.356 55.384 349.82 54.744C348.327 54.0613 347.047 53.144 345.98 51.992C344.956 50.84 344.231 49.5387 343.804 48.088C343.377 46.5947 343.249 45.0373 343.42 43.416C343.719 40.8987 344.252 38.488 345.02 36.184C345.788 33.88 346.62 31.64 347.516 29.464C348.412 27.288 349.244 25.0907 350.012 22.872C350.823 20.6533 351.42 18.3707 351.804 16.024C351.975 15 352.06 14.0187 352.06 13.08C352.06 12.0987 351.975 11.1387 351.804 10.2C352.529 9.98666 353.169 9.83733 353.724 9.752C354.321 9.66666 354.919 9.624 355.516 9.624C356.625 9.624 357.543 9.83733 358.268 10.264C358.993 10.6907 359.527 11.3733 359.868 12.312C360.209 13.208 360.273 14.424 360.06 15.96C359.761 18.3493 359.207 20.696 358.396 23C357.585 25.2613 356.689 27.5227 355.708 29.784C354.769 32.0027 353.873 34.1787 353.02 36.312C352.209 38.4027 351.612 40.5147 351.228 42.648C351.015 43.7573 350.887 44.696 350.844 45.464C350.801 46.1893 350.844 46.8933 350.972 47.576C351.484 47.9173 352.06 48.1733 352.7 48.344C353.34 48.5147 354.108 48.6 355.004 48.6C356.284 48.6 357.585 48.408 358.908 48.024C360.273 47.64 361.66 47.0213 363.068 46.168C364.476 45.3147 365.884 44.1627 367.292 42.712H367.676ZM397.475 19.928C398.968 19.928 400.248 20.0347 401.315 20.248C402.382 20.4613 403.32 20.8027 404.131 21.272C404.942 21.7413 405.71 22.3173 406.435 23C407.246 23.8533 407.822 24.7493 408.163 25.688C408.547 26.584 408.611 27.48 408.355 28.376L408.227 29.08C407.843 30.488 406.99 31.6827 405.667 32.664C404.387 33.6027 402.83 34.072 400.995 34.072C400.654 34.072 400.312 34.0507 399.971 34.008C399.63 33.9653 399.31 33.9013 399.011 33.816V33.432C399.566 32.7067 400.014 31.9387 400.355 31.128C400.696 30.3173 400.888 29.4853 400.931 28.632C400.291 28.2053 399.523 27.9067 398.627 27.736C397.774 27.5227 396.814 27.416 395.747 27.416C394.04 27.416 392.526 27.544 391.203 27.8C389.923 28.0133 388.835 28.3333 387.939 28.76C387.043 29.1867 386.318 29.6773 385.763 30.232C385.251 30.7867 384.91 31.384 384.739 32.024C384.611 32.7067 384.675 33.3253 384.931 33.88C385.187 34.4347 385.763 34.9467 386.659 35.416C387.598 35.8427 389.027 36.248 390.947 36.632L396.451 37.784C398.67 38.2107 400.376 38.872 401.571 39.768C402.808 40.6213 403.619 41.6667 404.003 42.904C404.387 44.1413 404.387 45.528 404.003 47.064C403.448 49.1973 402.446 50.904 400.995 52.184C399.587 53.4213 397.731 54.3173 395.427 54.872C393.123 55.4267 390.392 55.704 387.235 55.704C384.931 55.704 382.947 55.5547 381.283 55.256C379.662 54.9573 378.382 54.5733 377.443 54.104C376.504 53.6347 375.843 53.208 375.459 52.824C374.947 52.3547 374.563 51.6933 374.307 50.84C374.094 49.944 374.2 48.7493 374.627 47.256C374.798 46.6587 374.968 46.1467 375.139 45.72C375.352 45.2933 375.608 44.888 375.907 44.504H376.291C377.23 45.3147 378.339 45.9973 379.619 46.552C380.899 47.1067 382.392 47.5333 384.099 47.832C385.848 48.1307 387.875 48.28 390.179 48.28C391.203 48.28 392.163 48.216 393.059 48.088C393.955 47.9173 394.787 47.704 395.555 47.448C396.323 47.1493 396.984 46.808 397.539 46.424C397.71 45.6987 397.667 45.1013 397.411 44.632C397.198 44.1627 396.728 43.7573 396.003 43.416C395.32 43.0747 394.339 42.7547 393.059 42.456L386.595 40.984C383.95 40.3867 381.902 39.576 380.451 38.552C379 37.4853 378.04 36.2907 377.571 34.968C377.144 33.6027 377.144 32.1947 377.571 30.744C377.998 29.08 378.787 27.5867 379.939 26.264C381.134 24.8987 382.584 23.7467 384.291 22.808C386.04 21.8693 388.024 21.1653 390.243 20.696C392.504 20.184 394.915 19.928 397.475 19.928ZM191.712 68.2C192.309 67.9867 192.843 67.8587 193.312 67.816C193.824 67.7307 194.357 67.688 194.912 67.688C196.875 67.688 198.133 68.3707 198.688 69.736C199.285 71.0587 199.328 73.1707 198.816 76.072C198.219 79.3573 197.408 82.4507 196.384 85.352C195.403 88.2533 194.4 91.1547 193.376 94.056C192.352 96.9147 191.499 99.9013 190.816 103.016C190.133 106.088 189.813 109.416 189.856 113C189.429 113.128 188.981 113.235 188.512 113.32C188.043 113.405 187.573 113.448 187.104 113.448C185.952 113.448 184.992 113.171 184.224 112.616C183.456 112.061 182.923 111.144 182.624 109.864C182.368 108.584 182.389 106.92 182.688 104.872C183.157 101.672 183.925 98.5147 184.992 95.4C186.101 92.2853 187.232 89.0853 188.384 85.8C189.579 82.472 190.539 78.9307 191.264 75.176C191.477 73.9387 191.627 72.744 191.712 71.592C191.797 70.3973 191.797 69.2667 191.712 68.2ZM183.584 89.512H201.504C202.699 89.512 203.68 89.704 204.448 90.088C205.216 90.4293 205.835 90.92 206.304 91.56L208.032 91.24L206.752 96.936H185.312C184.672 96.936 184.16 96.7867 183.776 96.488C183.435 96.1467 183.179 95.6987 183.008 95.144C182.88 94.5893 182.816 93.9493 182.816 93.224C182.859 92.456 182.987 91.6667 183.2 90.856L183.584 89.512ZM210.72 113C210.293 113.171 209.76 113.277 209.12 113.32C208.523 113.405 207.883 113.448 207.2 113.448C206.261 113.448 205.408 113.213 204.64 112.744C203.915 112.275 203.36 111.507 202.976 110.44C202.635 109.331 202.571 107.923 202.784 106.216C203.125 103.101 203.808 99.9653 204.832 96.808C205.856 93.608 206.923 90.4293 208.032 87.272C209.184 84.072 210.144 80.872 210.912 77.672C211.68 74.472 212 71.2933 211.872 68.136C212.512 68.008 213.067 67.9227 213.536 67.88C214.005 67.7947 214.517 67.752 215.072 67.752C216.309 67.752 217.269 67.9867 217.952 68.456C218.635 68.9253 219.083 69.5867 219.296 70.44C219.552 71.2933 219.637 72.2533 219.552 73.32C219.509 74.3867 219.36 75.496 219.104 76.648C218.677 79.0373 218.101 81.4053 217.376 83.752C216.651 86.056 215.861 88.4027 215.008 90.792C214.197 93.1387 213.408 95.5707 212.64 98.088C211.872 100.563 211.253 103.165 210.784 105.896C210.528 107.219 210.379 108.456 210.336 109.608C210.336 110.76 210.464 111.891 210.72 113ZM238.151 77.992C239.474 77.992 240.626 78.2693 241.607 78.824C242.588 79.336 243.42 80.04 244.103 80.936C244.828 81.7893 245.426 82.728 245.895 83.752H247.367L246.087 89.128C245.447 87.848 244.551 86.8667 243.399 86.184C242.247 85.5013 240.86 85.16 239.239 85.16C237.703 85.16 236.316 85.6293 235.079 86.568C233.842 87.464 232.754 88.7653 231.815 90.472C230.876 92.1787 230.044 94.312 229.319 96.872L229.063 97.96C228.722 99.24 228.466 100.456 228.295 101.608C228.124 102.717 228.06 103.784 228.103 104.808C228.402 105.107 228.743 105.341 229.127 105.512C229.554 105.683 230.002 105.768 230.471 105.768C232.05 105.768 233.607 105.363 235.143 104.552C236.679 103.699 238.258 102.355 239.879 100.52C241.5 98.6853 243.207 96.2533 244.999 93.224L241.991 103.912H240.455C239.346 105.747 238.13 107.411 236.807 108.904C235.484 110.355 234.119 111.528 232.711 112.424C231.303 113.277 229.916 113.704 228.551 113.704C226.887 113.704 225.479 113.256 224.327 112.36C223.175 111.421 222.279 110.205 221.639 108.712C220.999 107.219 220.615 105.576 220.487 103.784C220.402 101.992 220.572 100.243 220.999 98.536L221.383 96.936C222.194 93.6507 223.175 90.8133 224.327 88.424C225.522 85.992 226.823 84.008 228.231 82.472C229.682 80.936 231.239 79.8053 232.903 79.08C234.61 78.3547 236.359 77.992 238.151 77.992ZM246.791 78.696C247.218 78.4827 247.644 78.3547 248.071 78.312C248.54 78.2693 249.031 78.248 249.543 78.248C250.738 78.248 251.719 78.5467 252.487 79.144C253.255 79.7413 253.724 80.744 253.895 82.152C254.066 83.5173 253.874 85.416 253.319 87.848C252.85 89.9813 252.274 92.0507 251.591 94.056C250.951 96.0613 250.29 98.0027 249.607 99.88C248.967 101.715 248.434 103.592 248.007 105.512C248.22 105.725 248.455 105.875 248.711 105.96C248.967 106.003 249.266 106.024 249.607 106.024C250.29 106.024 250.994 105.811 251.719 105.384C252.444 104.915 253.127 104.253 253.767 103.4H254.151C254.108 103.784 254.023 104.168 253.895 104.552C253.81 104.936 253.724 105.384 253.639 105.896C253.34 107.005 252.978 108.051 252.551 109.032C252.167 110.013 251.698 110.781 251.143 111.336C250.418 112.061 249.671 112.616 248.903 113C248.178 113.384 247.26 113.576 246.151 113.576C244.786 113.576 243.634 113.171 242.695 112.36C241.756 111.549 241.116 110.419 240.775 108.968C240.434 107.517 240.434 105.875 240.775 104.04C241.202 101.821 241.714 99.7307 242.311 97.768C242.951 95.7627 243.612 93.736 244.295 91.688C244.978 89.5973 245.554 87.336 246.023 84.904C246.194 84.0933 246.322 83.3253 246.407 82.6C246.535 81.832 246.62 81.128 246.663 80.488C246.748 79.8053 246.791 79.208 246.791 78.696ZM264.75 78.696C264.963 78.6107 265.177 78.5467 265.39 78.504C265.646 78.4613 265.902 78.44 266.158 78.44C266.457 78.3973 266.755 78.376 267.054 78.376C268.718 78.376 269.998 78.7173 270.894 79.4C271.79 80.0827 272.323 81.128 272.494 82.536C272.665 83.9013 272.494 85.6293 271.982 87.72C271.385 90.1947 270.745 92.52 270.062 94.696C269.379 96.872 268.718 98.984 268.078 101.032C267.481 103.037 266.99 105.043 266.606 107.048C266.222 109.053 266.073 111.101 266.158 113.192C266.03 113.235 265.902 113.256 265.774 113.256C265.646 113.299 265.518 113.32 265.39 113.32C265.262 113.363 265.113 113.384 264.942 113.384C263.577 113.384 262.467 113.149 261.614 112.68C260.761 112.168 260.099 111.549 259.63 110.824C259.203 110.056 258.926 109.267 258.798 108.456C258.67 107.603 258.67 106.835 258.798 106.152C259.139 103.848 259.673 101.501 260.398 99.112C261.166 96.7227 261.934 94.3333 262.702 91.944C263.513 89.5547 264.131 87.208 264.558 84.904C264.771 83.7093 264.899 82.6 264.942 81.576C264.985 80.5093 264.921 79.5493 264.75 78.696ZM285.806 78.12C287.086 78.12 288.195 78.4613 289.134 79.144C290.073 79.8267 290.798 80.7227 291.31 81.832C291.865 82.9413 292.206 84.136 292.334 85.416C292.505 86.6533 292.462 87.8267 292.206 88.936C291.822 90.6 291.331 92.2213 290.734 93.8C290.137 95.3787 289.539 96.9573 288.942 98.536C288.345 100.072 287.833 101.715 287.406 103.464C287.321 103.891 287.235 104.317 287.15 104.744C287.107 105.171 287.086 105.555 287.086 105.896C287.257 105.981 287.427 106.045 287.598 106.088C287.769 106.088 287.939 106.088 288.11 106.088C288.494 106.088 288.921 105.981 289.39 105.768C289.859 105.512 290.329 105.192 290.798 104.808C291.31 104.381 291.758 103.912 292.142 103.4H292.526C292.483 103.827 292.419 104.275 292.334 104.744C292.291 105.171 292.185 105.704 292.014 106.344C291.715 107.496 291.374 108.456 290.99 109.224C290.649 109.992 290.286 110.653 289.902 111.208C289.39 111.976 288.707 112.573 287.854 113C287.043 113.384 285.955 113.576 284.59 113.576C283.481 113.576 282.414 113.128 281.39 112.232C280.366 111.336 279.598 110.184 279.086 108.776C278.574 107.368 278.467 105.875 278.766 104.296C279.107 102.717 279.577 101.117 280.174 99.496C280.771 97.832 281.497 96.104 282.35 94.312C283.246 92.4773 284.227 90.5787 285.294 88.616C285.038 87.8053 284.654 87.2293 284.142 86.888C283.63 86.504 282.947 86.312 282.094 86.312C281.07 86.312 279.961 86.6533 278.766 87.336C277.614 88.0187 276.398 89 275.118 90.28C273.881 91.5173 272.643 93.0107 271.406 94.76C270.211 96.4667 269.038 98.3653 267.886 100.456L270.702 89.064H272.11C273.219 87.0587 274.521 85.2453 276.014 83.624C277.507 81.96 279.086 80.6373 280.75 79.656C282.457 78.632 284.142 78.12 285.806 78.12ZM314.965 77.992C316.373 77.992 317.61 78.2693 318.677 78.824C319.786 79.336 320.746 80.0187 321.557 80.872C322.368 81.6827 323.008 82.5147 323.477 83.368H325.397L323.541 88.744C322.901 87.5493 321.984 86.6533 320.789 86.056C319.594 85.4587 318.229 85.16 316.693 85.16C314.944 85.16 313.408 85.608 312.085 86.504C310.762 87.4 309.589 88.744 308.565 90.536C307.584 92.328 306.709 94.5467 305.941 97.192L305.685 98.28C305.344 99.3893 305.088 100.477 304.917 101.544C304.789 102.611 304.768 103.592 304.853 104.488C305.28 104.872 305.749 105.192 306.261 105.448C306.816 105.661 307.392 105.768 307.989 105.768C309.568 105.768 311.061 105.363 312.469 104.552C313.877 103.699 315.328 102.376 316.821 100.584C318.314 98.7493 319.978 96.36 321.813 93.416L319.445 104.168H317.333C316.266 105.917 315.072 107.517 313.749 108.968C312.469 110.419 311.104 111.571 309.653 112.424C308.202 113.277 306.73 113.704 305.237 113.704C303.616 113.704 302.229 113.299 301.077 112.488C299.925 111.677 299.008 110.568 298.325 109.16C297.642 107.752 297.237 106.152 297.109 104.36C296.981 102.568 297.152 100.691 297.621 98.728L298.005 97.256C298.901 93.672 299.946 90.664 301.141 88.232C302.336 85.8 303.637 83.8373 305.045 82.344C306.453 80.808 307.989 79.6987 309.653 79.016C311.317 78.3333 313.088 77.992 314.965 77.992ZM327.253 65C327.765 64.7867 328.256 64.6587 328.725 64.616C329.194 64.5733 329.728 64.552 330.325 64.552C331.52 64.552 332.544 64.8507 333.397 65.448C334.25 66.0027 334.826 66.984 335.125 68.392C335.424 69.7573 335.274 71.656 334.677 74.088C334.122 76.776 333.44 79.3573 332.629 81.832C331.818 84.264 330.986 86.6533 330.133 89C329.28 91.304 328.49 93.6293 327.765 95.976C327.04 98.28 326.464 100.627 326.037 103.016C325.909 103.613 325.824 104.147 325.781 104.616C325.738 105.043 325.738 105.448 325.781 105.832C325.909 105.96 326.016 106.045 326.101 106.088C326.229 106.088 326.357 106.088 326.485 106.088C326.954 106.088 327.424 105.981 327.893 105.768C328.362 105.512 328.81 105.192 329.237 104.808C329.706 104.381 330.133 103.912 330.517 103.4H330.901C330.858 103.827 330.794 104.275 330.709 104.744C330.666 105.171 330.56 105.704 330.389 106.344C330.09 107.496 329.728 108.477 329.301 109.288C328.917 110.056 328.426 110.76 327.829 111.4C327.189 112.211 326.464 112.765 325.653 113.064C324.885 113.405 323.989 113.576 322.965 113.576C321.984 113.576 321.109 113.341 320.341 112.872C319.616 112.403 319.018 111.72 318.549 110.824C318.08 109.928 317.781 108.883 317.653 107.688C317.568 106.493 317.653 105.192 317.909 103.784C318.549 100.627 319.274 97.704 320.085 95.016C320.896 92.328 321.728 89.7253 322.581 87.208C323.477 84.6907 324.33 82.1307 325.141 79.528C325.952 76.9253 326.677 74.152 327.317 71.208C327.573 70.0133 327.701 68.8827 327.701 67.816C327.744 66.7493 327.594 65.8107 327.253 65ZM343.868 107.304L342.076 105C342.972 105.64 343.868 106.067 344.764 106.28C345.703 106.493 346.812 106.6 348.092 106.6C349.927 106.6 351.633 106.216 353.212 105.448C354.833 104.68 356.284 103.421 357.564 101.672C358.887 99.88 359.953 97.448 360.764 94.376L361.02 93.48C361.361 92.2 361.617 91.048 361.788 90.024C361.959 88.9573 362.044 87.9333 362.044 86.952C361.788 86.568 361.468 86.2907 361.084 86.12C360.7 85.9493 360.273 85.864 359.804 85.864C358.311 85.864 356.647 86.376 354.812 87.4C353.02 88.3813 351.143 89.8747 349.18 91.88C347.26 93.8853 345.383 96.36 343.548 99.304L347.708 86.056L349.244 86.696C350.524 84.8613 351.889 83.304 353.34 82.024C354.791 80.7013 356.263 79.6987 357.756 79.016C359.249 78.2907 360.721 77.928 362.172 77.928C363.751 77.928 365.095 78.3333 366.204 79.144C367.313 79.9547 368.167 81.0853 368.764 82.536C369.404 83.944 369.745 85.5867 369.788 87.464C369.831 89.3413 369.553 91.3467 368.956 93.48L368.636 94.696C367.484 99.2187 365.863 102.888 363.772 105.704C361.681 108.477 359.271 110.504 356.54 111.784C353.852 113.064 350.951 113.704 347.836 113.704C346.556 113.704 345.404 113.576 344.38 113.32C343.356 113.064 342.439 112.723 341.628 112.296C340.817 111.827 340.092 111.272 339.452 110.632C338.3 109.437 337.447 107.944 336.892 106.152C336.38 104.36 336.337 102.397 336.764 100.264C337.148 98.1733 337.681 96.0827 338.364 93.992C339.089 91.9013 339.857 89.7253 340.668 87.464C341.479 85.2027 342.268 82.7707 343.036 80.168C343.847 77.5653 344.529 74.6853 345.084 71.528C345.297 70.376 345.425 69.2027 345.468 68.008C345.511 66.8133 345.34 65.8107 344.956 65C345.212 64.9147 345.447 64.8507 345.66 64.808C345.916 64.7227 346.172 64.6587 346.428 64.616C346.684 64.5733 346.94 64.552 347.196 64.552C347.495 64.552 347.772 64.552 348.028 64.552C349.265 64.552 350.289 64.8507 351.1 65.448C351.953 66.0453 352.529 67.048 352.828 68.456C353.127 69.864 353.02 71.8053 352.508 74.28C352.167 76.072 351.697 77.9067 351.1 79.784C350.503 81.6187 349.841 83.4747 349.116 85.352C348.433 87.2293 347.751 89.1067 347.068 90.984C346.385 92.8613 345.767 94.7173 345.212 96.552C344.657 98.3867 344.252 100.221 343.996 102.056C343.783 103.848 343.74 105.597 343.868 107.304ZM395.043 77.992C397.219 77.992 399.139 78.504 400.803 79.528C402.51 80.552 403.875 81.9813 404.899 83.816C405.966 85.608 406.648 87.72 406.947 90.152C407.246 92.5413 407.075 95.1013 406.435 97.832L406.179 98.792C405.454 102.12 404.302 104.893 402.723 107.112C401.144 109.288 399.139 110.931 396.707 112.04C394.318 113.149 391.416 113.704 388.003 113.704C385.486 113.704 383.288 113.277 381.411 112.424C379.534 111.528 378.019 110.291 376.867 108.712C375.758 107.133 375.032 105.299 374.691 103.208C374.392 101.117 374.563 98.8347 375.203 96.36L375.459 95.4C376.398 91.816 377.806 88.7227 379.683 86.12C381.56 83.5173 383.8 81.512 386.403 80.104C389.006 78.696 391.886 77.992 395.043 77.992ZM394.851 85.224C393.23 85.224 391.672 85.672 390.179 86.568C388.728 87.464 387.406 88.808 386.211 90.6C385.016 92.3493 384.035 94.568 383.267 97.256L383.139 97.96C382.627 99.752 382.392 101.373 382.435 102.824C382.478 104.275 382.862 105.512 383.587 106.536C384.227 106.749 384.867 106.92 385.507 107.048C386.147 107.176 386.83 107.24 387.555 107.24C389.646 107.24 391.48 106.899 393.059 106.216C394.638 105.491 395.939 104.467 396.963 103.144C398.03 101.779 398.819 100.115 399.331 98.152L399.523 97.448C400.078 95.016 400.355 92.84 400.355 90.92C400.355 89 400.035 87.3573 399.395 85.992C398.798 85.736 398.136 85.544 397.411 85.416C396.686 85.288 395.832 85.224 394.851 85.224ZM433.418 77.992C435.594 77.992 437.514 78.504 439.178 79.528C440.885 80.552 442.25 81.9813 443.274 83.816C444.341 85.608 445.023 87.72 445.322 90.152C445.621 92.5413 445.45 95.1013 444.81 97.832L444.554 98.792C443.829 102.12 442.677 104.893 441.098 107.112C439.519 109.288 437.514 110.931 435.082 112.04C432.693 113.149 429.791 113.704 426.378 113.704C423.861 113.704 421.663 113.277 419.786 112.424C417.909 111.528 416.394 110.291 415.242 108.712C414.133 107.133 413.407 105.299 413.066 103.208C412.767 101.117 412.938 98.8347 413.578 96.36L413.834 95.4C414.773 91.816 416.181 88.7227 418.058 86.12C419.935 83.5173 422.175 81.512 424.778 80.104C427.381 78.696 430.261 77.992 433.418 77.992ZM433.226 85.224C431.605 85.224 430.047 85.672 428.554 86.568C427.103 87.464 425.781 88.808 424.586 90.6C423.391 92.3493 422.41 94.568 421.642 97.256L421.514 97.96C421.002 99.752 420.767 101.373 420.81 102.824C420.853 104.275 421.237 105.512 421.962 106.536C422.602 106.749 423.242 106.92 423.882 107.048C424.522 107.176 425.205 107.24 425.93 107.24C428.021 107.24 429.855 106.899 431.434 106.216C433.013 105.491 434.314 104.467 435.338 103.144C436.405 101.779 437.194 100.115 437.706 98.152L437.898 97.448C438.453 95.016 438.73 92.84 438.73 90.92C438.73 89 438.41 87.3573 437.77 85.992C437.173 85.736 436.511 85.544 435.786 85.416C435.061 85.288 434.207 85.224 433.226 85.224ZM460.209 65C460.508 64.872 460.828 64.7867 461.169 64.744C461.51 64.6587 461.852 64.616 462.193 64.616C462.534 64.5733 462.897 64.552 463.281 64.552C464.518 64.552 465.585 64.8507 466.481 65.448C467.42 66.0027 468.038 66.984 468.337 68.392C468.636 69.7573 468.508 71.656 467.953 74.088C467.185 77.544 466.246 80.8507 465.137 84.008C464.028 87.1653 462.897 90.3013 461.745 93.416C460.636 96.488 459.676 99.624 458.865 102.824C458.054 106.024 457.564 109.437 457.393 113.064C457.222 113.107 457.052 113.128 456.881 113.128C456.71 113.171 456.54 113.192 456.369 113.192C456.241 113.235 456.07 113.256 455.857 113.256C454.449 113.256 453.276 112.893 452.337 112.168C451.398 111.4 450.737 110.397 450.353 109.16C450.012 107.923 449.99 106.579 450.289 105.128C450.929 101.928 451.697 98.9627 452.593 96.232C453.489 93.4587 454.406 90.7707 455.345 88.168C456.326 85.5227 457.244 82.8773 458.097 80.232C458.95 77.544 459.654 74.7067 460.209 71.72C460.465 70.2693 460.593 69.032 460.593 68.008C460.636 66.984 460.508 65.9813 460.209 65ZM478.449 78.12C479.772 78.12 480.945 78.4187 481.969 79.016C483.036 79.6133 483.91 80.424 484.593 81.448C485.318 82.472 485.788 83.6453 486.001 84.968C486.214 86.2907 486.15 87.656 485.809 89.064L485.745 89.384C485.105 92.1147 484.06 94.376 482.609 96.168C481.158 97.96 479.494 99.304 477.617 100.2C475.74 101.096 473.798 101.544 471.793 101.544C471.708 101.544 471.622 101.544 471.537 101.544C471.452 101.544 471.345 101.544 471.217 101.544L471.153 101.736C471.366 102.547 471.622 103.315 471.921 104.04C472.262 104.723 472.625 105.256 473.009 105.64C473.222 105.896 473.436 106.109 473.649 106.28C473.862 106.408 474.076 106.515 474.289 106.6C474.502 106.685 474.758 106.728 475.057 106.728C476.166 106.728 477.404 106.472 478.769 105.96C480.134 105.448 481.692 104.552 483.441 103.272H483.825C483.825 103.656 483.782 104.061 483.697 104.488C483.654 104.915 483.569 105.341 483.441 105.768C483.1 107.176 482.694 108.328 482.225 109.224C481.756 110.12 481.222 110.909 480.625 111.592C480.156 112.061 479.644 112.467 479.089 112.808C478.534 113.149 477.937 113.405 477.297 113.576C476.657 113.747 475.932 113.832 475.121 113.832C474.14 113.832 473.18 113.597 472.241 113.128C471.302 112.659 470.385 111.933 469.489 110.952C468.934 110.312 468.38 109.565 467.825 108.712C467.313 107.816 466.865 106.899 466.481 105.96C466.097 105.021 465.798 104.125 465.585 103.272C465.457 102.632 465.35 102.077 465.265 101.608C465.18 101.139 465.137 100.691 465.137 100.264C465.137 99.88 465.158 99.496 465.201 99.112C465.244 98.728 465.308 98.3653 465.393 98.024C465.606 98.0667 465.798 98.088 465.969 98.088C466.14 98.088 466.31 98.088 466.481 98.088C468.529 98.088 470.3 97.704 471.793 96.936C473.329 96.1253 474.609 95.0373 475.633 93.672C476.657 92.3067 477.382 90.792 477.809 89.128L477.937 88.68C478.15 87.9547 478.257 87.3573 478.257 86.888C478.3 86.376 478.257 85.9067 478.129 85.48C477.958 85.3947 477.766 85.3307 477.553 85.288C477.382 85.2453 477.148 85.224 476.849 85.224C475.654 85.224 474.268 85.6293 472.689 86.44C471.153 87.2507 469.532 88.4027 467.825 89.896C466.118 91.3893 464.454 93.16 462.833 95.208C461.212 97.2133 459.74 99.4747 458.417 101.992L461.169 89.896H463.473C464.796 87.72 466.289 85.736 467.953 83.944C469.66 82.152 471.409 80.744 473.201 79.72C475.036 78.6533 476.785 78.12 478.449 78.12Z"></path>
<path fill="#E74C3C" d="M181.68 142C181.653 142 181.627 141.993 181.6 141.98C181.573 141.967 181.547 141.953 181.52 141.94C181.507 141.913 181.493 141.887 181.48 141.86C181.467 141.833 181.46 141.807 181.46 141.78C181.46 140.753 181.46 139.72 181.46 138.68C181.46 137.64 181.46 136.607 181.46 135.58C181.46 134.553 181.46 133.547 181.46 132.56C181.46 131.56 181.46 130.593 181.46 129.66C181.46 129.38 181.46 129.107 181.46 128.84C181.46 128.56 181.46 128.28 181.46 128C181.913 128 182.36 128 182.8 128C183.24 128 183.68 128 184.12 128C184.16 128 184.193 128.013 184.22 128.04C184.26 128.053 184.287 128.08 184.3 128.12C184.327 128.147 184.34 128.18 184.34 128.22C184.34 129.153 184.34 130.093 184.34 131.04C184.34 131.987 184.34 132.94 184.34 133.9C184.34 134.847 184.34 135.793 184.34 136.74C184.34 137.687 184.34 138.627 184.34 139.56H187.82C188.167 139.56 188.46 139.607 188.7 139.7C188.953 139.78 189.16 139.92 189.32 140.12C189.48 140.32 189.607 140.573 189.7 140.88C189.807 141.187 189.9 141.56 189.98 142H181.68ZM187.44 138.02C187.707 138.02 187.967 138.02 188.22 138.02C188.473 138.02 188.72 138.02 188.96 138.02C189.213 138.02 189.48 138.02 189.76 138.02C189.8 138.02 189.833 138.033 189.86 138.06C189.9 138.073 189.927 138.1 189.94 138.14C189.967 138.167 189.98 138.2 189.98 138.24C189.98 138.493 189.98 138.78 189.98 139.1C189.98 139.42 189.98 139.76 189.98 140.12C189.98 140.467 189.98 140.807 189.98 141.14C189.98 141.46 189.98 141.747 189.98 142C189.327 141.947 188.813 141.827 188.44 141.64C188.067 141.453 187.807 141.207 187.66 140.9C187.513 140.593 187.44 140.24 187.44 139.84C187.44 139.653 187.44 139.453 187.44 139.24C187.44 139.027 187.44 138.813 187.44 138.6C187.44 138.373 187.44 138.18 187.44 138.02ZM196.736 131C197.643 131 198.429 131.187 199.096 131.56C199.776 131.933 200.303 132.453 200.676 133.12C201.049 133.787 201.236 134.567 201.236 135.46V137.12C201.236 137.16 201.229 137.2 201.216 137.24C201.203 137.267 201.176 137.287 201.136 137.3C201.109 137.313 201.076 137.32 201.036 137.32H196.436C196.209 137.32 195.976 137.32 195.736 137.32C195.509 137.32 195.283 137.32 195.056 137.32H194.236L194.176 135.64H198.616C198.616 135.587 198.616 135.54 198.616 135.5C198.616 135.46 198.616 135.413 198.616 135.36C198.616 134.973 198.576 134.647 198.496 134.38C198.416 134.1 198.289 133.88 198.116 133.72C197.969 133.56 197.783 133.447 197.556 133.38C197.329 133.313 197.056 133.28 196.736 133.28C196.069 133.28 195.569 133.447 195.236 133.78C194.916 134.1 194.756 134.627 194.756 135.36V137.8C194.756 138.12 194.796 138.407 194.876 138.66C194.969 138.9 195.096 139.107 195.256 139.28C195.469 139.493 195.749 139.647 196.096 139.74C196.456 139.833 196.869 139.88 197.336 139.88C197.816 139.88 198.243 139.86 198.616 139.82C198.989 139.767 199.336 139.7 199.656 139.62C199.976 139.527 200.289 139.427 200.596 139.32H200.976C200.976 139.653 200.976 139.993 200.976 140.34C200.976 140.673 200.976 141.013 200.976 141.36C200.976 141.387 200.969 141.413 200.956 141.44C200.943 141.467 200.923 141.493 200.896 141.52C200.789 141.627 200.549 141.733 200.176 141.84C199.816 141.947 199.376 142.04 198.856 142.12C198.349 142.2 197.829 142.24 197.296 142.24C196.429 142.24 195.663 142.14 194.996 141.94C194.343 141.727 193.796 141.427 193.356 141.04C192.929 140.653 192.603 140.187 192.376 139.64C192.163 139.08 192.056 138.453 192.056 137.76V135.48C192.056 134.8 192.163 134.187 192.376 133.64C192.603 133.093 192.923 132.627 193.336 132.24C193.749 131.84 194.243 131.533 194.816 131.32C195.389 131.107 196.029 131 196.736 131ZM209.028 131.24H211.508C211.548 131.24 211.582 131.247 211.608 131.26C211.648 131.273 211.675 131.293 211.688 131.32C211.715 131.347 211.735 131.393 211.748 131.46C211.948 132.327 212.128 133.12 212.288 133.84C212.462 134.56 212.615 135.247 212.748 135.9C212.895 136.54 213.015 137.18 213.108 137.82C213.215 138.46 213.302 139.133 213.368 139.84H213.848C213.875 139.12 213.922 138.4 213.988 137.68C214.055 136.947 214.142 136.22 214.248 135.5C214.355 134.767 214.462 134.04 214.568 133.32C214.688 132.6 214.802 131.907 214.908 131.24C215.188 131.24 215.475 131.24 215.768 131.24C216.062 131.24 216.355 131.24 216.648 131.24C216.955 131.24 217.242 131.24 217.508 131.24C217.562 131.24 217.602 131.247 217.628 131.26C217.668 131.26 217.695 131.28 217.708 131.32C217.735 131.36 217.735 131.42 217.708 131.5C217.522 132.34 217.335 133.193 217.148 134.06C216.962 134.927 216.768 135.807 216.568 136.7C216.382 137.58 216.195 138.467 216.008 139.36C215.822 140.253 215.635 141.133 215.448 142C215.208 142 214.955 142 214.688 142C214.422 142 214.148 142 213.868 142C213.588 142 213.315 142 213.048 142C212.782 142 212.528 142 212.288 142C212.195 142 212.122 141.967 212.068 141.9C212.015 141.833 211.955 141.693 211.888 141.48C211.742 140.867 211.615 140.36 211.508 139.96C211.402 139.547 211.315 139.18 211.248 138.86C211.182 138.54 211.115 138.2 211.048 137.84C210.982 137.467 210.915 137.027 210.848 136.52C210.782 136 210.702 135.333 210.608 134.52H210.208C210.115 135.187 210.035 135.753 209.968 136.22C209.915 136.687 209.855 137.093 209.788 137.44C209.735 137.773 209.675 138.087 209.608 138.38C209.555 138.673 209.488 138.98 209.408 139.3C209.342 139.62 209.248 140 209.128 140.44C209.022 140.867 208.888 141.387 208.728 142C208.422 142 208.075 142 207.688 142C207.315 142 206.948 142 206.588 142C206.228 142 205.902 142 205.608 142C205.515 142 205.442 141.967 205.388 141.9C205.335 141.82 205.282 141.667 205.228 141.44C205.095 140.853 204.962 140.233 204.828 139.58C204.695 138.913 204.548 138.24 204.388 137.56C204.242 136.867 204.095 136.167 203.948 135.46C203.802 134.753 203.648 134.047 203.488 133.34C203.342 132.633 203.195 131.933 203.048 131.24C203.315 131.24 203.588 131.24 203.868 131.24C204.162 131.24 204.455 131.24 204.748 131.24C205.042 131.24 205.328 131.24 205.608 131.24C205.662 131.24 205.702 131.247 205.728 131.26C205.768 131.273 205.795 131.3 205.808 131.34C205.835 131.367 205.855 131.42 205.868 131.5C205.988 132.207 206.102 132.907 206.208 133.6C206.328 134.293 206.442 134.987 206.548 135.68C206.655 136.36 206.742 137.047 206.808 137.74C206.888 138.433 206.942 139.133 206.968 139.84H207.448C207.515 139.147 207.595 138.453 207.688 137.76C207.795 137.067 207.922 136.367 208.068 135.66C208.215 134.953 208.368 134.233 208.528 133.5C208.688 132.767 208.855 132.013 209.028 131.24ZM220.544 141.78C220.544 141.42 220.544 140.973 220.544 140.44C220.544 139.893 220.544 139.307 220.544 138.68C220.544 138.053 220.544 137.427 220.544 136.8C220.544 136.173 220.544 135.587 220.544 135.04C220.544 134.493 220.544 134.033 220.544 133.66H220.404C220.324 133.66 220.231 133.66 220.124 133.66C220.031 133.66 219.924 133.66 219.804 133.66C219.698 133.66 219.584 133.66 219.464 133.66C219.358 133.66 219.251 133.66 219.144 133.66C219.078 133.66 219.024 133.64 218.984 133.6C218.944 133.56 218.924 133.507 218.924 133.44C218.924 133.08 218.924 132.713 218.924 132.34C218.924 131.967 218.924 131.6 218.924 131.24C219.151 131.24 219.404 131.24 219.684 131.24C219.978 131.24 220.284 131.24 220.604 131.24C220.924 131.24 221.238 131.24 221.544 131.24C221.851 131.24 222.131 131.24 222.384 131.24C222.651 131.24 222.864 131.24 223.024 131.24C223.078 131.24 223.118 131.253 223.144 131.28C223.171 131.293 223.191 131.313 223.204 131.34C223.231 131.367 223.244 131.407 223.244 131.46C223.244 132.087 223.244 132.773 223.244 133.52C223.244 134.253 223.244 135 223.244 135.76C223.244 136.52 223.244 137.267 223.244 138C223.244 138.733 223.244 139.42 223.244 140.06C223.244 140.26 223.244 140.473 223.244 140.7C223.244 140.913 223.244 141.127 223.244 141.34C223.244 141.553 223.244 141.773 223.244 142C222.804 142 222.391 142 222.004 142C221.631 142 221.218 142 220.764 142C220.698 142 220.644 141.98 220.604 141.94C220.564 141.9 220.544 141.847 220.544 141.78ZM220.064 126.12C220.318 126.12 220.578 126.12 220.844 126.12C221.124 126.12 221.404 126.12 221.684 126.12C221.978 126.12 222.258 126.12 222.524 126.12C222.804 126.12 223.071 126.12 223.324 126.12C223.391 126.12 223.444 126.14 223.484 126.18C223.524 126.22 223.544 126.273 223.544 126.34V128.92C223.291 128.92 223.024 128.92 222.744 128.92C222.478 128.92 222.198 128.92 221.904 128.92C221.624 128.92 221.344 128.92 221.064 128.92C220.798 128.92 220.538 128.92 220.284 128.92C220.218 128.92 220.164 128.9 220.124 128.86C220.084 128.82 220.064 128.767 220.064 128.7V126.12ZM230.137 139.58C230.937 139.58 231.483 139.493 231.777 139.32C232.07 139.133 232.217 138.92 232.217 138.68C232.217 138.533 232.177 138.4 232.097 138.28C232.03 138.16 231.903 138.06 231.717 137.98C231.543 137.887 231.29 137.813 230.957 137.76L228.897 137.46C228.257 137.353 227.723 137.173 227.297 136.92C226.87 136.653 226.55 136.32 226.337 135.92C226.137 135.52 226.037 135.073 226.037 134.58C226.037 134.02 226.143 133.527 226.357 133.1C226.583 132.66 226.91 132.287 227.337 131.98C227.763 131.673 228.29 131.44 228.917 131.28C229.543 131.12 230.257 131.04 231.057 131.04C231.483 131.04 231.877 131.06 232.237 131.1C232.597 131.127 232.923 131.167 233.217 131.22C233.51 131.273 233.77 131.333 233.997 131.4C234.09 131.427 234.157 131.46 234.197 131.5C234.25 131.527 234.277 131.567 234.277 131.62C234.29 131.673 234.297 131.753 234.297 131.86C234.297 132.14 234.297 132.493 234.297 132.92C234.297 133.333 234.297 133.72 234.297 134.08H233.937C233.577 133.987 233.23 133.907 232.897 133.84C232.563 133.773 232.223 133.727 231.877 133.7C231.53 133.673 231.163 133.66 230.777 133.66C230.243 133.66 229.823 133.7 229.517 133.78C229.223 133.847 229.017 133.94 228.897 134.06C228.777 134.18 228.717 134.32 228.717 134.48C228.717 134.627 228.75 134.76 228.817 134.88C228.897 134.987 229.023 135.073 229.197 135.14C229.37 135.207 229.61 135.267 229.917 135.32L231.797 135.6C232.45 135.68 233.003 135.853 233.457 136.12C233.91 136.373 234.257 136.713 234.497 137.14C234.75 137.553 234.877 138.053 234.877 138.64C234.877 139.36 234.69 139.987 234.317 140.52C233.957 141.053 233.423 141.467 232.717 141.76C232.01 142.053 231.143 142.2 230.117 142.2C229.637 142.2 229.19 142.18 228.777 142.14C228.363 142.113 227.977 142.067 227.617 142C227.27 141.947 226.957 141.88 226.677 141.8C226.397 141.72 226.157 141.633 225.957 141.54C225.877 141.513 225.823 141.48 225.797 141.44C225.783 141.4 225.777 141.327 225.777 141.22C225.777 140.913 225.777 140.547 225.777 140.12C225.777 139.693 225.777 139.28 225.777 138.88H226.137C226.457 139.013 226.763 139.127 227.057 139.22C227.363 139.3 227.67 139.367 227.977 139.42C228.297 139.473 228.63 139.513 228.977 139.54C229.337 139.567 229.723 139.58 230.137 139.58ZM252.709 142C252.415 142 252.122 142 251.829 142C251.535 142 251.242 142 250.949 142C250.655 142 250.355 142 250.049 142C250.022 142 249.995 142 249.969 142C249.942 141.987 249.922 141.973 249.909 141.96C249.895 141.947 249.882 141.933 249.869 141.92C249.855 141.907 249.842 141.887 249.829 141.86C249.829 141.833 249.829 141.807 249.829 141.78C249.829 140.633 249.829 139.487 249.829 138.34C249.829 137.193 249.829 136.047 249.829 134.9C249.829 133.74 249.829 132.587 249.829 131.44C249.829 130.293 249.829 129.147 249.829 128C250.135 128 250.429 128 250.709 128C251.002 128 251.295 128 251.589 128C251.895 128 252.195 128 252.489 128C252.529 128 252.562 128.013 252.589 128.04C252.629 128.053 252.655 128.08 252.669 128.12C252.695 128.147 252.709 128.18 252.709 128.22C252.709 129.18 252.709 130.147 252.709 131.12C252.709 132.093 252.709 133.067 252.709 134.04C252.709 135 252.709 135.967 252.709 136.94C252.709 137.9 252.709 138.86 252.709 139.82C252.709 140.22 252.709 140.607 252.709 140.98C252.709 141.34 252.709 141.68 252.709 142ZM245.909 142.22C245.335 142.22 244.842 142.14 244.429 141.98C244.015 141.82 243.675 141.587 243.409 141.28C243.142 140.96 242.942 140.573 242.809 140.12C242.675 139.667 242.609 139.14 242.609 138.54C242.609 137.66 242.609 136.753 242.609 135.82C242.609 134.887 242.609 133.927 242.609 132.94C242.609 131.953 242.609 130.973 242.609 130C242.609 129.667 242.609 129.333 242.609 129C242.609 128.667 242.609 128.333 242.609 128C243.062 128 243.509 128 243.949 128C244.389 128 244.829 128 245.269 128C245.322 128 245.362 128.013 245.389 128.04C245.415 128.053 245.435 128.073 245.449 128.1C245.475 128.127 245.489 128.167 245.489 128.22C245.489 129.34 245.489 130.48 245.489 131.64C245.489 132.8 245.489 133.953 245.489 135.1C245.489 136.233 245.489 137.32 245.489 138.36C245.489 138.84 245.589 139.187 245.789 139.4C245.989 139.6 246.322 139.7 246.789 139.7C247.229 139.7 247.642 139.62 248.029 139.46C248.429 139.287 248.815 139.027 249.189 138.68C249.562 138.32 249.922 137.867 250.269 137.32V140.16H249.429C249.175 140.6 248.875 140.973 248.529 141.28C248.195 141.587 247.809 141.82 247.369 141.98C246.942 142.14 246.455 142.22 245.909 142.22ZM264.927 142C264.487 142 264.074 142 263.687 142C263.314 142 262.901 142 262.447 142C262.407 142 262.367 141.993 262.327 141.98C262.301 141.953 262.274 141.927 262.247 141.9C262.234 141.873 262.227 141.833 262.227 141.78C262.227 140.993 262.227 140.207 262.227 139.42C262.227 138.62 262.227 137.827 262.227 137.04C262.227 136.253 262.227 135.467 262.227 134.68C262.227 134.32 262.147 134.053 261.987 133.88C261.827 133.707 261.574 133.62 261.227 133.62C261.001 133.62 260.747 133.66 260.467 133.74C260.201 133.807 259.927 133.913 259.647 134.06C259.381 134.193 259.121 134.367 258.867 134.58C258.614 134.793 258.381 135.047 258.167 135.34V132.98H258.867C259.134 132.58 259.427 132.233 259.747 131.94C260.081 131.647 260.441 131.42 260.827 131.26C261.227 131.087 261.654 131 262.107 131C262.534 131 262.921 131.073 263.267 131.22C263.627 131.353 263.927 131.56 264.167 131.84C264.421 132.107 264.607 132.433 264.727 132.82C264.861 133.207 264.927 133.64 264.927 134.12C264.927 134.76 264.927 135.407 264.927 136.06C264.927 136.713 264.927 137.367 264.927 138.02C264.927 138.673 264.927 139.333 264.927 140C264.927 140.333 264.927 140.667 264.927 141C264.927 141.333 264.927 141.667 264.927 142ZM258.487 142C258.194 142 257.914 142 257.647 142C257.394 142 257.127 142 256.847 142C256.581 142 256.301 142 256.007 142C255.967 142 255.934 142 255.907 142C255.881 141.987 255.854 141.973 255.827 141.96C255.814 141.933 255.801 141.907 255.787 141.88C255.787 141.853 255.787 141.82 255.787 141.78C255.787 141.06 255.787 140.347 255.787 139.64C255.787 138.92 255.787 138.207 255.787 137.5C255.787 136.78 255.787 136.067 255.787 135.36C255.787 134.64 255.787 133.92 255.787 133.2C255.787 132.827 255.787 132.473 255.787 132.14C255.787 131.807 255.787 131.507 255.787 131.24C256.121 131.24 256.421 131.24 256.687 131.24C256.967 131.24 257.234 131.24 257.487 131.24C257.754 131.24 258.014 131.24 258.267 131.24C258.321 131.24 258.361 131.253 258.387 131.28C258.414 131.293 258.434 131.313 258.447 131.34C258.474 131.367 258.487 131.407 258.487 131.46C258.487 132.62 258.487 133.787 258.487 134.96C258.487 136.133 258.487 137.307 258.487 138.48C258.487 139.653 258.487 140.827 258.487 142ZM268.419 141.78C268.419 141.42 268.419 140.973 268.419 140.44C268.419 139.893 268.419 139.307 268.419 138.68C268.419 138.053 268.419 137.427 268.419 136.8C268.419 136.173 268.419 135.587 268.419 135.04C268.419 134.493 268.419 134.033 268.419 133.66H268.279C268.199 133.66 268.106 133.66 267.999 133.66C267.906 133.66 267.799 133.66 267.679 133.66C267.573 133.66 267.459 133.66 267.339 133.66C267.233 133.66 267.126 133.66 267.019 133.66C266.953 133.66 266.899 133.64 266.859 133.6C266.819 133.56 266.799 133.507 266.799 133.44C266.799 133.08 266.799 132.713 266.799 132.34C266.799 131.967 266.799 131.6 266.799 131.24C267.026 131.24 267.279 131.24 267.559 131.24C267.853 131.24 268.159 131.24 268.479 131.24C268.799 131.24 269.113 131.24 269.419 131.24C269.726 131.24 270.006 131.24 270.259 131.24C270.526 131.24 270.739 131.24 270.899 131.24C270.953 131.24 270.993 131.253 271.019 131.28C271.046 131.293 271.066 131.313 271.079 131.34C271.106 131.367 271.119 131.407 271.119 131.46C271.119 132.087 271.119 132.773 271.119 133.52C271.119 134.253 271.119 135 271.119 135.76C271.119 136.52 271.119 137.267 271.119 138C271.119 138.733 271.119 139.42 271.119 140.06C271.119 140.26 271.119 140.473 271.119 140.7C271.119 140.913 271.119 141.127 271.119 141.34C271.119 141.553 271.119 141.773 271.119 142C270.679 142 270.266 142 269.879 142C269.506 142 269.093 142 268.639 142C268.573 142 268.519 141.98 268.479 141.94C268.439 141.9 268.419 141.847 268.419 141.78ZM267.939 126.12C268.193 126.12 268.453 126.12 268.719 126.12C268.999 126.12 269.279 126.12 269.559 126.12C269.853 126.12 270.133 126.12 270.399 126.12C270.679 126.12 270.946 126.12 271.199 126.12C271.266 126.12 271.319 126.14 271.359 126.18C271.399 126.22 271.419 126.273 271.419 126.34V128.92C271.166 128.92 270.899 128.92 270.619 128.92C270.353 128.92 270.073 128.92 269.779 128.92C269.499 128.92 269.219 128.92 268.939 128.92C268.673 128.92 268.413 128.92 268.159 128.92C268.093 128.92 268.039 128.9 267.999 128.86C267.959 128.82 267.939 128.767 267.939 128.7V126.12ZM275.681 131.24C275.748 131.24 275.794 131.253 275.821 131.28C275.861 131.307 275.894 131.34 275.921 131.38C275.961 131.42 275.988 131.473 276.001 131.54C276.228 132.367 276.454 133.207 276.681 134.06C276.921 134.9 277.154 135.807 277.381 136.78C277.621 137.753 277.861 138.847 278.101 140.06H278.481C278.628 139.34 278.774 138.66 278.921 138.02C279.068 137.367 279.214 136.747 279.361 136.16C279.508 135.56 279.648 134.987 279.781 134.44C279.928 133.893 280.068 133.353 280.201 132.82C280.348 132.287 280.488 131.76 280.621 131.24C281.034 131.24 281.448 131.24 281.861 131.24C282.288 131.24 282.714 131.24 283.141 131.24C283.208 131.24 283.261 131.26 283.301 131.3C283.341 131.327 283.368 131.367 283.381 131.42C283.408 131.473 283.408 131.533 283.381 131.6C283.114 132.467 282.848 133.333 282.581 134.2C282.314 135.067 282.048 135.933 281.781 136.8C281.528 137.667 281.268 138.533 281.001 139.4C280.748 140.267 280.481 141.133 280.201 142C279.614 142 279.028 142 278.441 142C277.868 142 277.334 142 276.841 142C276.708 142 276.594 141.98 276.501 141.94C276.408 141.9 276.328 141.827 276.261 141.72C276.208 141.613 276.141 141.447 276.061 141.22C275.888 140.62 275.701 140.007 275.501 139.38C275.314 138.74 275.121 138.087 274.921 137.42C274.721 136.753 274.514 136.08 274.301 135.4C274.101 134.72 273.894 134.033 273.681 133.34C273.468 132.633 273.254 131.933 273.041 131.24C273.494 131.24 273.934 131.24 274.361 131.24C274.801 131.24 275.241 131.24 275.681 131.24ZM289.603 131C290.509 131 291.296 131.187 291.963 131.56C292.643 131.933 293.169 132.453 293.543 133.12C293.916 133.787 294.103 134.567 294.103 135.46V137.12C294.103 137.16 294.096 137.2 294.083 137.24C294.069 137.267 294.043 137.287 294.003 137.3C293.976 137.313 293.943 137.32 293.903 137.32H289.303C289.076 137.32 288.843 137.32 288.603 137.32C288.376 137.32 288.149 137.32 287.923 137.32H287.103L287.043 135.64H291.483C291.483 135.587 291.483 135.54 291.483 135.5C291.483 135.46 291.483 135.413 291.483 135.36C291.483 134.973 291.443 134.647 291.363 134.38C291.283 134.1 291.156 133.88 290.983 133.72C290.836 133.56 290.649 133.447 290.423 133.38C290.196 133.313 289.923 133.28 289.603 133.28C288.936 133.28 288.436 133.447 288.103 133.78C287.783 134.1 287.623 134.627 287.623 135.36V137.8C287.623 138.12 287.663 138.407 287.743 138.66C287.836 138.9 287.963 139.107 288.123 139.28C288.336 139.493 288.616 139.647 288.963 139.74C289.323 139.833 289.736 139.88 290.203 139.88C290.683 139.88 291.109 139.86 291.483 139.82C291.856 139.767 292.203 139.7 292.523 139.62C292.843 139.527 293.156 139.427 293.463 139.32H293.842C293.842 139.653 293.842 139.993 293.842 140.34C293.842 140.673 293.842 141.013 293.842 141.36C293.842 141.387 293.836 141.413 293.823 141.44C293.809 141.467 293.789 141.493 293.763 141.52C293.656 141.627 293.416 141.733 293.043 141.84C292.683 141.947 292.243 142.04 291.723 142.12C291.216 142.2 290.696 142.24 290.163 142.24C289.296 142.24 288.529 142.14 287.863 141.94C287.209 141.727 286.663 141.427 286.223 141.04C285.796 140.653 285.469 140.187 285.243 139.64C285.029 139.08 284.923 138.453 284.923 137.76V135.48C284.923 134.8 285.029 134.187 285.243 133.64C285.469 133.093 285.789 132.627 286.202 132.24C286.616 131.84 287.109 131.533 287.683 131.32C288.256 131.107 288.896 131 289.603 131ZM299.275 133.16H300.075C300.235 132.667 300.421 132.267 300.635 131.96C300.848 131.64 301.108 131.407 301.415 131.26C301.735 131.113 302.095 131.04 302.495 131.04C302.708 131.04 302.881 131.06 303.015 131.1C303.161 131.14 303.261 131.18 303.315 131.22C303.368 131.26 303.401 131.3 303.415 131.34C303.428 131.367 303.435 131.413 303.435 131.48C303.435 131.693 303.435 131.907 303.435 132.12C303.435 132.32 303.435 132.52 303.435 132.72C303.435 132.92 303.435 133.127 303.435 133.34C303.435 133.54 303.435 133.747 303.435 133.96H303.055C302.921 133.92 302.775 133.887 302.615 133.86C302.455 133.833 302.275 133.82 302.075 133.82C301.661 133.82 301.295 133.9 300.975 134.06C300.668 134.22 300.381 134.447 300.115 134.74C299.848 135.02 299.568 135.353 299.275 135.74V133.16ZM299.655 142C299.361 142 299.061 142 298.755 142C298.461 142 298.168 142 297.875 142C297.581 142 297.288 142 296.995 142C296.955 142 296.921 142 296.895 142C296.868 141.987 296.841 141.973 296.815 141.96C296.801 141.933 296.788 141.907 296.775 141.88C296.775 141.853 296.775 141.82 296.775 141.78C296.775 141.287 296.775 140.767 296.775 140.22C296.775 139.66 296.775 139.087 296.775 138.5C296.775 137.913 296.775 137.327 296.775 136.74C296.775 136.14 296.775 135.547 296.775 134.96C296.775 134.36 296.775 133.773 296.775 133.2C296.775 132.827 296.775 132.473 296.775 132.14C296.775 131.807 296.775 131.507 296.775 131.24C297.108 131.24 297.421 131.24 297.715 131.24C298.021 131.24 298.315 131.24 298.595 131.24C298.888 131.24 299.168 131.24 299.435 131.24C299.488 131.24 299.528 131.253 299.555 131.28C299.581 131.293 299.601 131.313 299.615 131.34C299.641 131.367 299.655 131.407 299.655 131.46C299.655 132.073 299.655 132.72 299.655 133.4C299.655 134.08 299.655 134.773 299.655 135.48C299.655 136.187 299.655 136.913 299.655 137.66C299.655 138.393 299.655 139.127 299.655 139.86C299.655 140.58 299.655 141.293 299.655 142ZM309.123 139.58C309.923 139.58 310.47 139.493 310.763 139.32C311.057 139.133 311.203 138.92 311.203 138.68C311.203 138.533 311.163 138.4 311.083 138.28C311.017 138.16 310.89 138.06 310.703 137.98C310.53 137.887 310.277 137.813 309.943 137.76L307.883 137.46C307.243 137.353 306.71 137.173 306.283 136.92C305.857 136.653 305.537 136.32 305.323 135.92C305.123 135.52 305.023 135.073 305.023 134.58C305.023 134.02 305.13 133.527 305.343 133.1C305.57 132.66 305.897 132.287 306.323 131.98C306.75 131.673 307.277 131.44 307.903 131.28C308.53 131.12 309.243 131.04 310.043 131.04C310.47 131.04 310.863 131.06 311.223 131.1C311.583 131.127 311.91 131.167 312.203 131.22C312.497 131.273 312.757 131.333 312.983 131.4C313.077 131.427 313.143 131.46 313.183 131.5C313.237 131.527 313.263 131.567 313.263 131.62C313.277 131.673 313.283 131.753 313.283 131.86C313.283 132.14 313.283 132.493 313.283 132.92C313.283 133.333 313.283 133.72 313.283 134.08H312.923C312.563 133.987 312.217 133.907 311.883 133.84C311.55 133.773 311.21 133.727 310.863 133.7C310.517 133.673 310.15 133.66 309.763 133.66C309.23 133.66 308.81 133.7 308.503 133.78C308.21 133.847 308.003 133.94 307.883 134.06C307.763 134.18 307.703 134.32 307.703 134.48C307.703 134.627 307.737 134.76 307.803 134.88C307.883 134.987 308.01 135.073 308.183 135.14C308.357 135.207 308.597 135.267 308.903 135.32L310.783 135.6C311.437 135.68 311.99 135.853 312.443 136.12C312.897 136.373 313.243 136.713 313.483 137.14C313.737 137.553 313.863 138.053 313.863 138.64C313.863 139.36 313.677 139.987 313.303 140.52C312.943 141.053 312.41 141.467 311.703 141.76C310.997 142.053 310.13 142.2 309.103 142.2C308.623 142.2 308.177 142.18 307.763 142.14C307.35 142.113 306.963 142.067 306.603 142C306.257 141.947 305.943 141.88 305.663 141.8C305.383 141.72 305.143 141.633 304.943 141.54C304.863 141.513 304.81 141.48 304.783 141.44C304.77 141.4 304.763 141.327 304.763 141.22C304.763 140.913 304.763 140.547 304.763 140.12C304.763 139.693 304.763 139.28 304.763 138.88H305.123C305.443 139.013 305.75 139.127 306.043 139.22C306.35 139.3 306.657 139.367 306.963 139.42C307.283 139.473 307.617 139.513 307.963 139.54C308.323 139.567 308.71 139.58 309.123 139.58ZM316.919 141.78C316.919 141.42 316.919 140.973 316.919 140.44C316.919 139.893 316.919 139.307 316.919 138.68C316.919 138.053 316.919 137.427 316.919 136.8C316.919 136.173 316.919 135.587 316.919 135.04C316.919 134.493 316.919 134.033 316.919 133.66H316.779C316.699 133.66 316.606 133.66 316.499 133.66C316.406 133.66 316.299 133.66 316.179 133.66C316.073 133.66 315.959 133.66 315.839 133.66C315.733 133.66 315.626 133.66 315.519 133.66C315.453 133.66 315.399 133.64 315.359 133.6C315.319 133.56 315.299 133.507 315.299 133.44C315.299 133.08 315.299 132.713 315.299 132.34C315.299 131.967 315.299 131.6 315.299 131.24C315.526 131.24 315.779 131.24 316.059 131.24C316.353 131.24 316.659 131.24 316.979 131.24C317.299 131.24 317.613 131.24 317.919 131.24C318.226 131.24 318.506 131.24 318.759 131.24C319.026 131.24 319.239 131.24 319.399 131.24C319.453 131.24 319.493 131.253 319.519 131.28C319.546 131.293 319.566 131.313 319.579 131.34C319.606 131.367 319.619 131.407 319.619 131.46C319.619 132.087 319.619 132.773 319.619 133.52C319.619 134.253 319.619 135 319.619 135.76C319.619 136.52 319.619 137.267 319.619 138C319.619 138.733 319.619 139.42 319.619 140.06C319.619 140.26 319.619 140.473 319.619 140.7C319.619 140.913 319.619 141.127 319.619 141.34C319.619 141.553 319.619 141.773 319.619 142C319.179 142 318.766 142 318.379 142C318.006 142 317.593 142 317.139 142C317.073 142 317.019 141.98 316.979 141.94C316.939 141.9 316.919 141.847 316.919 141.78ZM316.439 126.12C316.693 126.12 316.953 126.12 317.219 126.12C317.499 126.12 317.779 126.12 318.059 126.12C318.353 126.12 318.633 126.12 318.899 126.12C319.179 126.12 319.446 126.12 319.699 126.12C319.766 126.12 319.819 126.14 319.859 126.18C319.899 126.22 319.919 126.273 319.919 126.34V128.92C319.666 128.92 319.399 128.92 319.119 128.92C318.853 128.92 318.573 128.92 318.279 128.92C317.999 128.92 317.719 128.92 317.439 128.92C317.173 128.92 316.913 128.92 316.659 128.92C316.593 128.92 316.539 128.9 316.499 128.86C316.459 128.82 316.439 128.767 316.439 128.7V126.12ZM321.972 131.24H329.692C329.772 131.24 329.832 131.26 329.872 131.3C329.912 131.34 329.932 131.393 329.932 131.46C329.932 131.74 329.932 132 329.932 132.24C329.932 132.48 329.932 132.727 329.932 132.98C329.932 133.233 329.932 133.493 329.932 133.76H322.212C322.185 133.76 322.158 133.753 322.132 133.74C322.105 133.727 322.078 133.713 322.052 133.7C322.025 133.673 322.005 133.647 321.992 133.62C321.978 133.593 321.972 133.567 321.972 133.54C321.972 133.273 321.972 133.013 321.972 132.76C321.972 132.507 321.972 132.26 321.972 132.02C321.972 131.78 321.972 131.52 321.972 131.24ZM329.932 139.42C329.932 139.82 329.932 140.22 329.932 140.62C329.932 141.007 329.932 141.393 329.932 141.78C329.932 141.833 329.912 141.887 329.872 141.94C329.832 141.98 329.778 142 329.712 142C329.578 142 329.438 142 329.292 142C329.158 142 329.018 142 328.872 142C328.738 142 328.605 142 328.472 142C328.338 142 328.198 142 328.052 142C327.358 142 326.738 141.92 326.192 141.76C325.645 141.587 325.178 141.327 324.792 140.98C324.405 140.633 324.112 140.187 323.912 139.64C323.712 139.093 323.612 138.447 323.612 137.7C323.612 137.047 323.612 136.4 323.612 135.76C323.612 135.12 323.612 134.48 323.612 133.84C323.612 133.2 323.612 132.56 323.612 131.92C323.612 131.28 323.612 130.64 323.612 130C323.612 129.653 323.612 129.32 323.612 129C323.612 128.667 323.612 128.333 323.612 128C324.025 128 324.438 128 324.852 128C325.278 128 325.692 128 326.092 128C326.132 128 326.165 128.013 326.192 128.04C326.232 128.053 326.258 128.08 326.272 128.12C326.298 128.147 326.312 128.18 326.312 128.22C326.312 128.993 326.312 129.767 326.312 130.54C326.312 131.3 326.312 132.067 326.312 132.84C326.312 133.613 326.312 134.387 326.312 135.16C326.312 135.92 326.312 136.687 326.312 137.46C326.312 137.86 326.352 138.187 326.432 138.44C326.512 138.693 326.632 138.9 326.792 139.06C326.938 139.193 327.118 139.287 327.332 139.34C327.558 139.393 327.832 139.42 328.152 139.42C328.325 139.42 328.492 139.42 328.652 139.42C328.825 139.42 328.998 139.42 329.172 139.42C329.345 139.42 329.518 139.42 329.692 139.42H329.932ZM341.792 131.24C341.858 131.24 341.918 131.267 341.972 131.32C342.038 131.373 342.058 131.453 342.032 131.56C341.778 132.533 341.532 133.46 341.292 134.34C341.065 135.22 340.832 136.107 340.592 137C340.365 137.88 340.132 138.793 339.892 139.74C339.652 140.687 339.392 141.707 339.112 142.8C338.938 143.533 338.685 144.133 338.352 144.6C338.032 145.08 337.625 145.433 337.132 145.66C336.638 145.887 336.032 146 335.312 146C335.138 146 334.932 146 334.692 146C334.465 146 334.238 146 334.012 146C333.798 146 333.612 146 333.452 146C333.292 146 333.192 146 333.152 146C333.085 146 333.032 145.98 332.992 145.94C332.952 145.9 332.932 145.847 332.932 145.78V143.64H333.312C333.592 143.64 333.872 143.64 334.152 143.64C334.432 143.64 334.712 143.64 334.992 143.64C335.445 143.64 335.812 143.527 336.092 143.3C336.372 143.087 336.565 142.74 336.672 142.26C336.765 141.927 336.878 141.467 337.012 140.88C337.158 140.28 337.318 139.593 337.492 138.82C337.678 138.047 337.872 137.233 338.072 136.38C338.272 135.513 338.472 134.64 338.672 133.76C338.885 132.88 339.085 132.04 339.272 131.24C339.458 131.24 339.652 131.24 339.852 131.24C340.065 131.24 340.272 131.24 340.472 131.24C340.685 131.24 340.898 131.24 341.112 131.24C341.338 131.24 341.565 131.24 341.792 131.24ZM334.312 131.24C334.445 131.24 334.538 131.26 334.592 131.3C334.645 131.34 334.685 131.413 334.712 131.52C334.965 132.453 335.185 133.26 335.372 133.94C335.558 134.607 335.725 135.193 335.872 135.7C336.018 136.193 336.145 136.647 336.252 137.06C336.358 137.473 336.465 137.887 336.572 138.3C336.692 138.7 336.805 139.147 336.912 139.64H338.112L337.652 141.32H335.492C335.372 141.32 335.265 141.307 335.172 141.28C335.092 141.253 335.025 141.2 334.972 141.12C334.918 141.027 334.858 140.9 334.792 140.74C334.725 140.553 334.612 140.227 334.452 139.76C334.292 139.28 334.098 138.7 333.872 138.02C333.645 137.34 333.405 136.613 333.152 135.84C332.898 135.053 332.645 134.267 332.392 133.48C332.138 132.693 331.905 131.947 331.692 131.24C331.892 131.24 332.098 131.24 332.312 131.24C332.538 131.24 332.758 131.24 332.972 131.24C333.185 131.24 333.405 131.24 333.632 131.24C333.858 131.24 334.085 131.24 334.312 131.24ZM355.06 142.4C354.1 142.4 353.26 142.273 352.54 142.02C351.82 141.78 351.22 141.427 350.74 140.96C350.26 140.493 349.9 139.92 349.66 139.24C349.433 138.56 349.32 137.787 349.32 136.92V132.88C349.32 132.093 349.44 131.38 349.68 130.74C349.92 130.087 350.273 129.527 350.74 129.06C351.22 128.593 351.8 128.233 352.48 127.98C353.173 127.727 353.96 127.6 354.84 127.6C355.52 127.6 356.127 127.667 356.66 127.8C357.207 127.92 357.667 128.08 358.04 128.28C358.427 128.467 358.727 128.667 358.94 128.88C358.967 128.907 358.987 128.94 359 128.98C359.013 129.02 359.02 129.06 359.02 129.1C359.033 129.14 359.04 129.18 359.04 129.22C359.04 129.713 359.04 130.28 359.04 130.92C359.04 131.547 359.04 132.147 359.04 132.72C358.653 132.72 358.267 132.72 357.88 132.72C357.493 132.72 357.107 132.72 356.72 132.72C356.653 132.72 356.6 132.7 356.56 132.66C356.52 132.62 356.5 132.567 356.5 132.5C356.5 132.26 356.5 132.02 356.5 131.78C356.5 131.54 356.5 131.273 356.5 130.98C356.5 130.673 356.5 130.32 356.5 129.92L357.06 130.76C356.727 130.547 356.38 130.4 356.02 130.32C355.66 130.227 355.253 130.18 354.8 130.18C354.267 130.18 353.8 130.28 353.4 130.48C353.013 130.667 352.713 130.967 352.5 131.38C352.3 131.793 352.2 132.32 352.2 132.96V136.7C352.2 137.3 352.253 137.807 352.36 138.22C352.48 138.62 352.673 138.953 352.94 139.22C353.18 139.46 353.48 139.633 353.84 139.74C354.213 139.833 354.627 139.88 355.08 139.88C355.813 139.88 356.46 139.793 357.02 139.62C357.58 139.447 358.167 139.167 358.78 138.78H359.16C359.16 138.967 359.16 139.153 359.16 139.34C359.16 139.513 359.16 139.693 359.16 139.88C359.16 140.053 359.16 140.233 359.16 140.42C359.16 140.593 359.16 140.78 359.16 140.98C359.16 141.047 359.147 141.107 359.12 141.16C359.107 141.213 359.08 141.253 359.04 141.28C358.853 141.48 358.567 141.667 358.18 141.84C357.793 142 357.333 142.133 356.8 142.24C356.267 142.347 355.687 142.4 355.06 142.4ZM370.677 131.24C370.743 131.24 370.803 131.267 370.857 131.32C370.923 131.373 370.943 131.453 370.917 131.56C370.663 132.533 370.417 133.46 370.177 134.34C369.95 135.22 369.717 136.107 369.477 137C369.25 137.88 369.017 138.793 368.777 139.74C368.537 140.687 368.277 141.707 367.997 142.8C367.823 143.533 367.57 144.133 367.237 144.6C366.917 145.08 366.51 145.433 366.017 145.66C365.523 145.887 364.917 146 364.197 146C364.023 146 363.817 146 363.577 146C363.35 146 363.123 146 362.897 146C362.683 146 362.497 146 362.337 146C362.177 146 362.077 146 362.037 146C361.97 146 361.917 145.98 361.877 145.94C361.837 145.9 361.817 145.847 361.817 145.78V143.64H362.197C362.477 143.64 362.757 143.64 363.037 143.64C363.317 143.64 363.597 143.64 363.877 143.64C364.33 143.64 364.697 143.527 364.977 143.3C365.257 143.087 365.45 142.74 365.557 142.26C365.65 141.927 365.763 141.467 365.897 140.88C366.043 140.28 366.203 139.593 366.377 138.82C366.563 138.047 366.757 137.233 366.957 136.38C367.157 135.513 367.357 134.64 367.557 133.76C367.77 132.88 367.97 132.04 368.157 131.24C368.343 131.24 368.537 131.24 368.737 131.24C368.95 131.24 369.157 131.24 369.357 131.24C369.57 131.24 369.783 131.24 369.997 131.24C370.223 131.24 370.45 131.24 370.677 131.24ZM363.197 131.24C363.33 131.24 363.423 131.26 363.477 131.3C363.53 131.34 363.57 131.413 363.597 131.52C363.85 132.453 364.07 133.26 364.257 133.94C364.443 134.607 364.61 135.193 364.757 135.7C364.903 136.193 365.03 136.647 365.137 137.06C365.243 137.473 365.35 137.887 365.457 138.3C365.577 138.7 365.69 139.147 365.797 139.64H366.997L366.537 141.32H364.377C364.257 141.32 364.15 141.307 364.057 141.28C363.977 141.253 363.91 141.2 363.857 141.12C363.803 141.027 363.743 140.9 363.677 140.74C363.61 140.553 363.497 140.227 363.337 139.76C363.177 139.28 362.983 138.7 362.757 138.02C362.53 137.34 362.29 136.613 362.037 135.84C361.783 135.053 361.53 134.267 361.277 133.48C361.023 132.693 360.79 131.947 360.577 131.24C360.777 131.24 360.983 131.24 361.197 131.24C361.423 131.24 361.643 131.24 361.857 131.24C362.07 131.24 362.29 131.24 362.517 131.24C362.743 131.24 362.97 131.24 363.197 131.24ZM374.929 142C374.796 142 374.616 142 374.389 142C374.162 142 373.936 142 373.709 142C373.482 142 373.302 142 373.169 142C373.129 142 373.089 141.993 373.049 141.98C373.022 141.953 372.996 141.927 372.969 141.9C372.956 141.873 372.949 141.833 372.949 141.78C372.949 140.78 372.949 139.787 372.949 138.8C372.949 137.8 372.949 136.8 372.949 135.8C372.949 134.8 372.949 133.8 372.949 132.8C372.949 131.8 372.949 130.8 372.949 129.8C372.949 129.333 372.949 128.867 372.949 128.4C372.949 127.933 372.949 127.467 372.949 127C373.162 127 373.369 127 373.569 127C373.769 127 373.976 127 374.189 127C374.402 127 374.609 127 374.809 127C375.009 127 375.216 127 375.429 127C375.482 127 375.522 127.013 375.549 127.04C375.576 127.053 375.596 127.073 375.609 127.1C375.636 127.127 375.649 127.167 375.649 127.22C375.649 128.287 375.649 129.347 375.649 130.4C375.649 131.453 375.649 132.507 375.649 133.56C375.649 134.6 375.649 135.647 375.649 136.7C375.649 137.753 375.649 138.813 375.649 139.88C375.649 139.88 375.622 139.953 375.569 140.1C375.529 140.247 375.469 140.427 375.389 140.64C375.322 140.84 375.256 141.047 375.189 141.26C375.122 141.473 375.062 141.653 375.009 141.8C374.956 141.933 374.929 142 374.929 142ZM375.029 140.34L375.349 138.12C375.749 138.613 376.189 138.98 376.669 139.22C377.162 139.46 377.622 139.58 378.049 139.58C378.382 139.58 378.656 139.513 378.869 139.38C379.096 139.247 379.269 139.053 379.389 138.8C379.509 138.533 379.569 138.213 379.569 137.84V135.34C379.569 135.02 379.529 134.753 379.449 134.54C379.382 134.313 379.282 134.133 379.149 134C379.029 133.88 378.876 133.787 378.689 133.72C378.502 133.653 378.289 133.62 378.049 133.62C377.769 133.62 377.469 133.687 377.149 133.82C376.842 133.953 376.536 134.147 376.229 134.4C375.936 134.653 375.669 134.96 375.429 135.32V132.84H375.989C376.202 132.453 376.462 132.127 376.769 131.86C377.076 131.58 377.409 131.367 377.769 131.22C378.142 131.073 378.536 131 378.949 131C379.456 131 379.909 131.087 380.309 131.26C380.722 131.433 381.069 131.693 381.349 132.04C381.642 132.373 381.869 132.78 382.029 133.26C382.189 133.74 382.269 134.287 382.269 134.9V138.28C382.269 138.907 382.189 139.46 382.029 139.94C381.869 140.42 381.642 140.833 381.349 141.18C381.069 141.513 380.722 141.767 380.309 141.94C379.909 142.113 379.456 142.2 378.949 142.2C378.536 142.2 378.136 142.127 377.749 141.98C377.362 141.833 377.009 141.627 376.689 141.36C376.382 141.08 376.102 140.74 375.849 140.34H375.029ZM389.161 131C390.068 131 390.854 131.187 391.521 131.56C392.201 131.933 392.728 132.453 393.101 133.12C393.474 133.787 393.661 134.567 393.661 135.46V137.12C393.661 137.16 393.654 137.2 393.641 137.24C393.628 137.267 393.601 137.287 393.561 137.3C393.534 137.313 393.501 137.32 393.461 137.32H388.861C388.634 137.32 388.401 137.32 388.161 137.32C387.934 137.32 387.708 137.32 387.481 137.32H386.661L386.601 135.64H391.041C391.041 135.587 391.041 135.54 391.041 135.5C391.041 135.46 391.041 135.413 391.041 135.36C391.041 134.973 391.001 134.647 390.921 134.38C390.841 134.1 390.714 133.88 390.541 133.72C390.394 133.56 390.208 133.447 389.981 133.38C389.754 133.313 389.481 133.28 389.161 133.28C388.494 133.28 387.994 133.447 387.661 133.78C387.341 134.1 387.181 134.627 387.181 135.36V137.8C387.181 138.12 387.221 138.407 387.301 138.66C387.394 138.9 387.521 139.107 387.681 139.28C387.894 139.493 388.174 139.647 388.521 139.74C388.881 139.833 389.294 139.88 389.761 139.88C390.241 139.88 390.668 139.86 391.041 139.82C391.414 139.767 391.761 139.7 392.081 139.62C392.401 139.527 392.714 139.427 393.021 139.32H393.401C393.401 139.653 393.401 139.993 393.401 140.34C393.401 140.673 393.401 141.013 393.401 141.36C393.401 141.387 393.394 141.413 393.381 141.44C393.368 141.467 393.348 141.493 393.321 141.52C393.214 141.627 392.974 141.733 392.601 141.84C392.241 141.947 391.801 142.04 391.281 142.12C390.774 142.2 390.254 142.24 389.721 142.24C388.854 142.24 388.088 142.14 387.421 141.94C386.768 141.727 386.221 141.427 385.781 141.04C385.354 140.653 385.028 140.187 384.801 139.64C384.588 139.08 384.481 138.453 384.481 137.76V135.48C384.481 134.8 384.588 134.187 384.801 133.64C385.028 133.093 385.348 132.627 385.761 132.24C386.174 131.84 386.668 131.533 387.241 131.32C387.814 131.107 388.454 131 389.161 131ZM398.833 133.16H399.633C399.793 132.667 399.98 132.267 400.193 131.96C400.407 131.64 400.667 131.407 400.973 131.26C401.293 131.113 401.653 131.04 402.053 131.04C402.267 131.04 402.44 131.06 402.573 131.1C402.72 131.14 402.82 131.18 402.873 131.22C402.927 131.26 402.96 131.3 402.973 131.34C402.987 131.367 402.993 131.413 402.993 131.48C402.993 131.693 402.993 131.907 402.993 132.12C402.993 132.32 402.993 132.52 402.993 132.72C402.993 132.92 402.993 133.127 402.993 133.34C402.993 133.54 402.993 133.747 402.993 133.96H402.613C402.48 133.92 402.333 133.887 402.173 133.86C402.013 133.833 401.833 133.82 401.633 133.82C401.22 133.82 400.853 133.9 400.533 134.06C400.227 134.22 399.94 134.447 399.673 134.74C399.407 135.02 399.127 135.353 398.833 135.74V133.16ZM399.213 142C398.92 142 398.62 142 398.313 142C398.02 142 397.727 142 397.433 142C397.14 142 396.847 142 396.553 142C396.513 142 396.48 142 396.453 142C396.427 141.987 396.4 141.973 396.373 141.96C396.36 141.933 396.347 141.907 396.333 141.88C396.333 141.853 396.333 141.82 396.333 141.78C396.333 141.287 396.333 140.767 396.333 140.22C396.333 139.66 396.333 139.087 396.333 138.5C396.333 137.913 396.333 137.327 396.333 136.74C396.333 136.14 396.333 135.547 396.333 134.96C396.333 134.36 396.333 133.773 396.333 133.2C396.333 132.827 396.333 132.473 396.333 132.14C396.333 131.807 396.333 131.507 396.333 131.24C396.667 131.24 396.98 131.24 397.273 131.24C397.58 131.24 397.873 131.24 398.153 131.24C398.447 131.24 398.727 131.24 398.993 131.24C399.047 131.24 399.087 131.253 399.113 131.28C399.14 131.293 399.16 131.313 399.173 131.34C399.2 131.367 399.213 131.407 399.213 131.46C399.213 132.073 399.213 132.72 399.213 133.4C399.213 134.08 399.213 134.773 399.213 135.48C399.213 136.187 399.213 136.913 399.213 137.66C399.213 138.393 399.213 139.127 399.213 139.86C399.213 140.58 399.213 141.293 399.213 142ZM421.053 137.22C421.053 137.98 420.94 138.66 420.713 139.26C420.5 139.847 420.18 140.347 419.753 140.76C419.327 141.16 418.813 141.467 418.213 141.68C417.627 141.893 416.967 142 416.233 142C415.927 142 415.567 142 415.153 142C414.74 142 414.313 142 413.873 142C413.433 142 413.013 142 412.613 142C412.213 142 411.867 142 411.573 142C411.28 142 411.093 142 411.013 142C410.947 142 410.893 141.98 410.853 141.94C410.813 141.9 410.793 141.847 410.793 141.78C410.793 140.753 410.793 139.727 410.793 138.7C410.793 137.66 410.793 136.627 410.793 135.6C410.793 134.56 410.793 133.527 410.793 132.5C410.793 131.46 410.793 130.427 410.793 129.4H413.853L413.673 129.84C413.673 130.2 413.673 130.593 413.673 131.02C413.673 131.433 413.673 131.813 413.673 132.16C413.673 132.8 413.673 133.42 413.673 134.02C413.673 134.62 413.673 135.213 413.673 135.8C413.673 136.387 413.673 136.98 413.673 137.58C413.673 138.18 413.673 138.8 413.673 139.44C413.833 139.44 414.073 139.44 414.393 139.44C414.713 139.44 415.04 139.44 415.373 139.44C415.707 139.44 415.973 139.44 416.173 139.44C416.707 139.44 417.127 139.347 417.433 139.16C417.753 138.973 417.987 138.7 418.133 138.34C418.28 137.98 418.353 137.553 418.353 137.06V132.94C418.353 132.633 418.333 132.36 418.293 132.12C418.253 131.88 418.187 131.673 418.093 131.5C418.013 131.313 417.913 131.153 417.793 131.02C417.673 130.913 417.533 130.827 417.373 130.76C417.213 130.693 417.033 130.647 416.833 130.62C416.647 130.58 416.413 130.56 416.133 130.56C415.72 130.56 415.247 130.56 414.713 130.56C414.18 130.56 413.627 130.56 413.053 130.56C412.493 130.56 411.953 130.56 411.433 130.56C410.913 130.56 410.447 130.56 410.033 130.56C409.993 130.56 409.953 130.553 409.913 130.54C409.887 130.513 409.86 130.487 409.833 130.46C409.82 130.42 409.813 130.38 409.813 130.34C409.813 129.98 409.813 129.593 409.813 129.18C409.813 128.753 409.813 128.36 409.813 128C410.227 128 410.693 128 411.213 128C411.747 128 412.3 128 412.873 128C413.447 128 414 128 414.533 128C415.08 128 415.573 128 416.013 128C416.907 128 417.673 128.113 418.313 128.34C418.953 128.553 419.473 128.873 419.873 129.3C420.287 129.713 420.587 130.213 420.773 130.8C420.96 131.373 421.053 132.027 421.053 132.76V137.22ZM427.961 131C428.868 131 429.654 131.187 430.321 131.56C431.001 131.933 431.528 132.453 431.901 133.12C432.274 133.787 432.461 134.567 432.461 135.46V137.12C432.461 137.16 432.454 137.2 432.441 137.24C432.428 137.267 432.401 137.287 432.361 137.3C432.334 137.313 432.301 137.32 432.261 137.32H427.661C427.434 137.32 427.201 137.32 426.961 137.32C426.734 137.32 426.508 137.32 426.281 137.32H425.461L425.401 135.64H429.841C429.841 135.587 429.841 135.54 429.841 135.5C429.841 135.46 429.841 135.413 429.841 135.36C429.841 134.973 429.801 134.647 429.721 134.38C429.641 134.1 429.514 133.88 429.341 133.72C429.194 133.56 429.008 133.447 428.781 133.38C428.554 133.313 428.281 133.28 427.961 133.28C427.294 133.28 426.794 133.447 426.461 133.78C426.141 134.1 425.981 134.627 425.981 135.36V137.8C425.981 138.12 426.021 138.407 426.101 138.66C426.194 138.9 426.321 139.107 426.481 139.28C426.694 139.493 426.974 139.647 427.321 139.74C427.681 139.833 428.094 139.88 428.561 139.88C429.041 139.88 429.468 139.86 429.841 139.82C430.214 139.767 430.561 139.7 430.881 139.62C431.201 139.527 431.514 139.427 431.821 139.32H432.201C432.201 139.653 432.201 139.993 432.201 140.34C432.201 140.673 432.201 141.013 432.201 141.36C432.201 141.387 432.194 141.413 432.181 141.44C432.168 141.467 432.148 141.493 432.121 141.52C432.014 141.627 431.774 141.733 431.401 141.84C431.041 141.947 430.601 142.04 430.081 142.12C429.574 142.2 429.054 142.24 428.521 142.24C427.654 142.24 426.888 142.14 426.221 141.94C425.568 141.727 425.021 141.427 424.581 141.04C424.154 140.653 423.828 140.187 423.601 139.64C423.388 139.08 423.281 138.453 423.281 137.76V135.48C423.281 134.8 423.388 134.187 423.601 133.64C423.828 133.093 424.148 132.627 424.561 132.24C424.974 131.84 425.468 131.533 426.041 131.32C426.614 131.107 427.254 131 427.961 131ZM434.233 131.76H440.553C440.607 131.76 440.647 131.773 440.673 131.8C440.7 131.813 440.72 131.833 440.733 131.86C440.76 131.887 440.773 131.927 440.773 131.98C440.773 132.353 440.773 132.707 440.773 133.04C440.773 133.373 440.773 133.733 440.773 134.12H434.453C434.413 134.12 434.373 134.113 434.333 134.1C434.307 134.073 434.28 134.047 434.253 134.02C434.24 133.98 434.233 133.94 434.233 133.9C434.233 133.513 434.233 133.153 434.233 132.82C434.233 132.487 434.233 132.133 434.233 131.76ZM438.233 141.78C438.233 141.833 438.213 141.887 438.173 141.94C438.133 141.98 438.08 142 438.013 142C437.587 142 437.173 142 436.773 142C436.373 142 435.953 142 435.513 142C435.513 141.667 435.513 141.333 435.513 141C435.513 140.667 435.513 140.333 435.513 140C435.513 139.147 435.513 138.347 435.513 137.6C435.513 136.84 435.513 136.1 435.513 135.38C435.513 134.647 435.513 133.893 435.513 133.12C435.513 132.333 435.513 131.48 435.513 130.56C435.513 129.96 435.6 129.42 435.773 128.94C435.947 128.447 436.193 128.033 436.513 127.7C436.833 127.353 437.227 127.087 437.693 126.9C438.173 126.713 438.713 126.62 439.313 126.62C439.673 126.62 439.993 126.647 440.273 126.7C440.553 126.74 440.787 126.793 440.973 126.86C441.16 126.927 441.287 126.987 441.353 127.04C441.38 127.053 441.393 127.08 441.393 127.12C441.407 127.147 441.413 127.173 441.413 127.2C441.413 127.547 441.413 127.9 441.413 128.26C441.413 128.607 441.413 128.953 441.413 129.3H441.033C440.873 129.233 440.713 129.18 440.553 129.14C440.407 129.087 440.253 129.047 440.093 129.02C439.933 128.993 439.767 128.98 439.593 128.98C439.42 128.98 439.247 129.007 439.073 129.06C438.9 129.113 438.747 129.193 438.613 129.3C438.48 129.433 438.38 129.6 438.313 129.8C438.26 129.987 438.233 130.247 438.233 130.58C438.233 131.207 438.233 131.907 438.233 132.68C438.233 133.44 438.233 134.233 438.233 135.06C438.233 135.887 438.233 136.707 438.233 137.52C438.233 138.333 438.233 139.107 438.233 139.84C438.233 140.56 438.233 141.207 438.233 141.78ZM447.166 131C448.072 131 448.859 131.187 449.526 131.56C450.206 131.933 450.732 132.453 451.106 133.12C451.479 133.787 451.666 134.567 451.666 135.46V137.12C451.666 137.16 451.659 137.2 451.646 137.24C451.632 137.267 451.606 137.287 451.566 137.3C451.539 137.313 451.506 137.32 451.466 137.32H446.866C446.639 137.32 446.406 137.32 446.166 137.32C445.939 137.32 445.712 137.32 445.486 137.32H444.666L444.606 135.64H449.046C449.046 135.587 449.046 135.54 449.046 135.5C449.046 135.46 449.046 135.413 449.046 135.36C449.046 134.973 449.006 134.647 448.926 134.38C448.846 134.1 448.719 133.88 448.546 133.72C448.399 133.56 448.212 133.447 447.986 133.38C447.759 133.313 447.486 133.28 447.166 133.28C446.499 133.28 445.999 133.447 445.666 133.78C445.346 134.1 445.186 134.627 445.186 135.36V137.8C445.186 138.12 445.226 138.407 445.306 138.66C445.399 138.9 445.526 139.107 445.686 139.28C445.899 139.493 446.179 139.647 446.526 139.74C446.886 139.833 447.299 139.88 447.766 139.88C448.246 139.88 448.672 139.86 449.046 139.82C449.419 139.767 449.766 139.7 450.086 139.62C450.406 139.527 450.719 139.427 451.026 139.32H451.406C451.406 139.653 451.406 139.993 451.406 140.34C451.406 140.673 451.406 141.013 451.406 141.36C451.406 141.387 451.399 141.413 451.386 141.44C451.372 141.467 451.352 141.493 451.326 141.52C451.219 141.627 450.979 141.733 450.606 141.84C450.246 141.947 449.806 142.04 449.286 142.12C448.779 142.2 448.259 142.24 447.726 142.24C446.859 142.24 446.092 142.14 445.426 141.94C444.772 141.727 444.226 141.427 443.786 141.04C443.359 140.653 443.032 140.187 442.806 139.64C442.592 139.08 442.486 138.453 442.486 137.76V135.48C442.486 134.8 442.592 134.187 442.806 133.64C443.032 133.093 443.352 132.627 443.766 132.24C444.179 131.84 444.672 131.533 445.246 131.32C445.819 131.107 446.459 131 447.166 131ZM463.478 142C463.038 142 462.625 142 462.238 142C461.865 142 461.451 142 460.998 142C460.958 142 460.918 141.993 460.878 141.98C460.851 141.953 460.825 141.927 460.798 141.9C460.785 141.873 460.778 141.833 460.778 141.78C460.778 140.993 460.778 140.207 460.778 139.42C460.778 138.62 460.778 137.827 460.778 137.04C460.778 136.253 460.778 135.467 460.778 134.68C460.778 134.32 460.698 134.053 460.538 133.88C460.378 133.707 460.125 133.62 459.778 133.62C459.551 133.62 459.298 133.66 459.018 133.74C458.751 133.807 458.478 133.913 458.198 134.06C457.931 134.193 457.671 134.367 457.418 134.58C457.165 134.793 456.931 135.047 456.718 135.34V132.98H457.418C457.685 132.58 457.978 132.233 458.298 131.94C458.631 131.647 458.991 131.42 459.378 131.26C459.778 131.087 460.205 131 460.658 131C461.085 131 461.471 131.073 461.818 131.22C462.178 131.353 462.478 131.56 462.718 131.84C462.971 132.107 463.158 132.433 463.278 132.82C463.411 133.207 463.478 133.64 463.478 134.12C463.478 134.76 463.478 135.407 463.478 136.06C463.478 136.713 463.478 137.367 463.478 138.02C463.478 138.673 463.478 139.333 463.478 140C463.478 140.333 463.478 140.667 463.478 141C463.478 141.333 463.478 141.667 463.478 142ZM457.038 142C456.745 142 456.465 142 456.198 142C455.945 142 455.678 142 455.398 142C455.131 142 454.851 142 454.558 142C454.518 142 454.485 142 454.458 142C454.431 141.987 454.405 141.973 454.378 141.96C454.365 141.933 454.351 141.907 454.338 141.88C454.338 141.853 454.338 141.82 454.338 141.78C454.338 141.06 454.338 140.347 454.338 139.64C454.338 138.92 454.338 138.207 454.338 137.5C454.338 136.78 454.338 136.067 454.338 135.36C454.338 134.64 454.338 133.92 454.338 133.2C454.338 132.827 454.338 132.473 454.338 132.14C454.338 131.807 454.338 131.507 454.338 131.24C454.671 131.24 454.971 131.24 455.238 131.24C455.518 131.24 455.785 131.24 456.038 131.24C456.305 131.24 456.565 131.24 456.818 131.24C456.871 131.24 456.911 131.253 456.938 131.28C456.965 131.293 456.985 131.313 456.998 131.34C457.025 131.367 457.038 131.407 457.038 131.46C457.038 132.62 457.038 133.787 457.038 134.96C457.038 136.133 457.038 137.307 457.038 138.48C457.038 139.653 457.038 140.827 457.038 142ZM469.87 139.58C470.67 139.58 471.217 139.493 471.51 139.32C471.803 139.133 471.95 138.92 471.95 138.68C471.95 138.533 471.91 138.4 471.83 138.28C471.763 138.16 471.637 138.06 471.45 137.98C471.277 137.887 471.023 137.813 470.69 137.76L468.63 137.46C467.99 137.353 467.457 137.173 467.03 136.92C466.603 136.653 466.283 136.32 466.07 135.92C465.87 135.52 465.77 135.073 465.77 134.58C465.77 134.02 465.877 133.527 466.09 133.1C466.317 132.66 466.643 132.287 467.07 131.98C467.497 131.673 468.023 131.44 468.65 131.28C469.277 131.12 469.99 131.04 470.79 131.04C471.217 131.04 471.61 131.06 471.97 131.1C472.33 131.127 472.657 131.167 472.95 131.22C473.243 131.273 473.503 131.333 473.73 131.4C473.823 131.427 473.89 131.46 473.93 131.5C473.983 131.527 474.01 131.567 474.01 131.62C474.023 131.673 474.03 131.753 474.03 131.86C474.03 132.14 474.03 132.493 474.03 132.92C474.03 133.333 474.03 133.72 474.03 134.08H473.67C473.31 133.987 472.963 133.907 472.63 133.84C472.297 133.773 471.957 133.727 471.61 133.7C471.263 133.673 470.897 133.66 470.51 133.66C469.977 133.66 469.557 133.7 469.25 133.78C468.957 133.847 468.75 133.94 468.63 134.06C468.51 134.18 468.45 134.32 468.45 134.48C468.45 134.627 468.483 134.76 468.55 134.88C468.63 134.987 468.757 135.073 468.93 135.14C469.103 135.207 469.343 135.267 469.65 135.32L471.53 135.6C472.183 135.68 472.737 135.853 473.19 136.12C473.643 136.373 473.99 136.713 474.23 137.14C474.483 137.553 474.61 138.053 474.61 138.64C474.61 139.36 474.423 139.987 474.05 140.52C473.69 141.053 473.157 141.467 472.45 141.76C471.743 142.053 470.877 142.2 469.85 142.2C469.37 142.2 468.923 142.18 468.51 142.14C468.097 142.113 467.71 142.067 467.35 142C467.003 141.947 466.69 141.88 466.41 141.8C466.13 141.72 465.89 141.633 465.69 141.54C465.61 141.513 465.557 141.48 465.53 141.44C465.517 141.4 465.51 141.327 465.51 141.22C465.51 140.913 465.51 140.547 465.51 140.12C465.51 139.693 465.51 139.28 465.51 138.88H465.87C466.19 139.013 466.497 139.127 466.79 139.22C467.097 139.3 467.403 139.367 467.71 139.42C468.03 139.473 468.363 139.513 468.71 139.54C469.07 139.567 469.457 139.58 469.87 139.58ZM481.246 131C482.153 131 482.94 131.187 483.606 131.56C484.286 131.933 484.813 132.453 485.186 133.12C485.56 133.787 485.746 134.567 485.746 135.46V137.12C485.746 137.16 485.74 137.2 485.726 137.24C485.713 137.267 485.686 137.287 485.646 137.3C485.62 137.313 485.586 137.32 485.546 137.32H480.946C480.72 137.32 480.486 137.32 480.246 137.32C480.02 137.32 479.793 137.32 479.566 137.32H478.746L478.686 135.64H483.126C483.126 135.587 483.126 135.54 483.126 135.5C483.126 135.46 483.126 135.413 483.126 135.36C483.126 134.973 483.086 134.647 483.006 134.38C482.926 134.1 482.8 133.88 482.626 133.72C482.48 133.56 482.293 133.447 482.066 133.38C481.84 133.313 481.566 133.28 481.246 133.28C480.58 133.28 480.08 133.447 479.746 133.78C479.426 134.1 479.266 134.627 479.266 135.36V137.8C479.266 138.12 479.306 138.407 479.386 138.66C479.48 138.9 479.606 139.107 479.766 139.28C479.98 139.493 480.26 139.647 480.606 139.74C480.966 139.833 481.38 139.88 481.846 139.88C482.326 139.88 482.753 139.86 483.126 139.82C483.5 139.767 483.846 139.7 484.166 139.62C484.486 139.527 484.8 139.427 485.106 139.32H485.486C485.486 139.653 485.486 139.993 485.486 140.34C485.486 140.673 485.486 141.013 485.486 141.36C485.486 141.387 485.48 141.413 485.466 141.44C485.453 141.467 485.433 141.493 485.406 141.52C485.3 141.627 485.06 141.733 484.686 141.84C484.326 141.947 483.886 142.04 483.366 142.12C482.86 142.2 482.34 142.24 481.806 142.24C480.94 142.24 480.173 142.14 479.506 141.94C478.853 141.727 478.306 141.427 477.866 141.04C477.44 140.653 477.113 140.187 476.886 139.64C476.673 139.08 476.566 138.453 476.566 137.76V135.48C476.566 134.8 476.673 134.187 476.886 133.64C477.113 133.093 477.433 132.627 477.846 132.24C478.26 131.84 478.753 131.533 479.326 131.32C479.9 131.107 480.54 131 481.246 131Z"></path>
<circle stroke-width="7.25" stroke="#E74C3C" r="71.375" cy="75" cx="75"></circle>
<path fill="#E74C3C" d="M109.187 102.055C109.391 102.613 109.43 103.219 109.302 103.799C109.173 104.38 108.881 104.911 108.461 105.332L99.0859 114.707C98.7958 114.998 98.4512 115.229 98.0718 115.386C97.6924 115.544 97.2857 115.625 96.8749 115.625C96.7722 115.631 96.6691 115.631 96.5664 115.625C96.1062 115.58 95.6619 115.433 95.2654 115.195C94.8689 114.957 94.5301 114.634 94.2734 114.25L77.0585 88.4218L68.7499 96.7148V106.25C68.7496 107.078 68.4208 107.871 67.8359 108.457C67.8359 108.457 62.3671 113.949 61.6328 114.66C61.3275 114.98 60.9572 115.23 60.5468 115.394C59.782 115.706 58.925 115.702 58.1631 115.384C57.4011 115.065 56.7962 114.458 56.4804 113.695L56.457 113.637L50.7148 99.2773L36.3281 93.5234C35.8481 93.3314 35.4233 93.0233 35.0917 92.6268C34.7601 92.2303 34.532 91.7578 34.4278 91.2514C34.3237 90.7451 34.3468 90.2209 34.495 89.7257C34.6433 89.2305 34.9121 88.7798 35.2773 88.414L41.5273 82.164C41.8191 81.8725 42.1658 81.6417 42.5472 81.4848C42.9287 81.3279 43.3375 81.2481 43.7499 81.2499H53.2812L61.5898 72.9414L35.7656 55.7226C35.3804 55.4662 35.057 55.1275 34.8187 54.7309C34.5803 54.3343 34.4331 53.8897 34.3875 53.4292C34.3419 52.9688 34.3991 52.5039 34.555 52.0683C34.7109 51.6327 34.9616 51.2371 35.289 50.9101L44.664 41.5351C45.0846 41.1147 45.6163 40.8231 46.1968 40.6944C46.7774 40.5657 47.3825 40.6053 47.9413 40.8085L81.5117 53.0156L93.8281 40.6992C95.8794 38.6479 98.6615 37.4955 101.562 37.4955C102.999 37.4955 104.421 37.7784 105.748 38.3281C107.075 38.8778 108.281 39.6835 109.297 40.6992C110.313 41.7149 111.118 42.9207 111.668 44.2477C112.218 45.5748 112.501 46.9971 112.501 48.4335C112.501 49.8699 112.218 51.2923 111.668 52.6194C111.118 53.9464 110.313 55.1522 109.297 56.1679L96.9804 68.4843L109.187 102.055Z"></path>
</svg>
