<svg xmlns="http://www.w3.org/2000/svg" fill="none" viewBox="0 0 976 300" height="300" width="976">
<path fill="#E74C3C" d="M920.418 130C921.015 129.744 921.655 129.573 922.338 129.488C923.021 129.317 923.703 129.232 924.386 129.232C925.069 129.147 925.794 129.104 926.562 129.104C929.037 129.104 931.17 129.701 932.962 130.896C934.839 132.005 936.077 133.968 936.674 136.784C937.271 139.515 937.015 143.312 935.906 148.176C934.37 155.088 932.493 161.701 930.274 168.016C928.055 174.331 925.794 180.603 923.49 186.832C921.271 192.976 919.351 199.248 917.73 205.648C916.109 212.048 915.127 218.875 914.786 226.128C914.445 226.213 914.103 226.256 913.762 226.256C913.421 226.341 913.079 226.384 912.738 226.384C912.482 226.469 912.141 226.512 911.714 226.512C908.898 226.512 906.551 225.787 904.674 224.336C902.797 222.8 901.474 220.795 900.706 218.32C900.023 215.845 899.981 213.157 900.578 210.256C901.858 203.856 903.394 197.925 905.186 192.464C906.978 186.917 908.813 181.541 910.69 176.336C912.653 171.045 914.487 165.755 916.194 160.464C917.901 155.088 919.309 149.413 920.418 143.44C920.93 140.539 921.186 138.064 921.186 136.016C921.271 133.968 921.015 131.963 920.418 130ZM956.898 156.24C959.543 156.24 961.89 156.837 963.938 158.032C966.071 159.227 967.821 160.848 969.186 162.896C970.637 164.944 971.575 167.291 972.002 169.936C972.429 172.581 972.301 175.312 971.618 178.128L971.49 178.768C970.21 184.229 968.119 188.752 965.218 192.336C962.317 195.92 958.989 198.608 955.234 200.4C951.479 202.192 947.597 203.088 943.586 203.088C943.415 203.088 943.245 203.088 943.074 203.088C942.903 203.088 942.69 203.088 942.434 203.088L942.306 203.472C942.733 205.093 943.245 206.629 943.842 208.08C944.525 209.445 945.25 210.512 946.018 211.28C946.445 211.792 946.871 212.219 947.298 212.56C947.725 212.816 948.151 213.029 948.578 213.2C949.005 213.371 949.517 213.456 950.114 213.456C952.333 213.456 954.807 212.944 957.538 211.92C960.269 210.896 963.383 209.104 966.882 206.544H967.65C967.65 207.312 967.565 208.123 967.394 208.976C967.309 209.829 967.138 210.683 966.882 211.536C966.199 214.352 965.389 216.656 964.45 218.448C963.511 220.24 962.445 221.819 961.25 223.184C960.311 224.123 959.287 224.933 958.178 225.616C957.069 226.299 955.874 226.811 954.594 227.152C953.314 227.493 951.863 227.664 950.242 227.664C948.279 227.664 946.359 227.195 944.482 226.256C942.605 225.317 940.77 223.867 938.978 221.904C937.869 220.624 936.759 219.131 935.65 217.424C934.626 215.632 933.73 213.797 932.962 211.92C932.194 210.043 931.597 208.251 931.17 206.544C930.914 205.264 930.701 204.155 930.53 203.216C930.359 202.277 930.274 201.381 930.274 200.528C930.274 199.76 930.317 198.992 930.402 198.224C930.487 197.456 930.615 196.731 930.786 196.048C931.213 196.133 931.597 196.176 931.938 196.176C932.279 196.176 932.621 196.176 932.962 196.176C937.058 196.176 940.599 195.408 943.586 193.872C946.658 192.251 949.218 190.075 951.266 187.344C953.314 184.613 954.765 181.584 955.618 178.256L955.874 177.36C956.301 175.909 956.514 174.715 956.514 173.776C956.599 172.752 956.514 171.813 956.258 170.96C955.917 170.789 955.533 170.661 955.106 170.576C954.765 170.491 954.295 170.448 953.698 170.448C951.309 170.448 948.535 171.259 945.378 172.88C942.306 174.501 939.063 176.805 935.65 179.792C932.237 182.779 928.909 186.32 925.666 190.416C922.423 194.427 919.479 198.949 916.834 203.984L922.338 179.792H926.946C929.591 175.44 932.578 171.472 935.906 167.888C939.319 164.304 942.818 161.488 946.402 159.44C950.071 157.307 953.57 156.24 956.898 156.24Z"></path>
<path fill="#E74C3C" d="M866.836 155.984C871.188 155.984 875.028 157.008 878.356 159.056C881.769 161.104 884.5 163.963 886.548 167.632C888.681 171.216 890.047 175.44 890.644 180.304C891.241 185.083 890.9 190.203 889.62 195.664L889.108 197.584C887.657 204.24 885.353 209.787 882.196 214.224C879.039 218.576 875.028 221.861 870.164 224.08C865.385 226.299 859.583 227.408 852.756 227.408C847.721 227.408 843.327 226.555 839.572 224.848C835.817 223.056 832.788 220.581 830.484 217.424C828.265 214.267 826.815 210.597 826.132 206.416C825.535 202.235 825.876 197.669 827.156 192.72L827.668 190.8C829.545 183.632 832.361 177.445 836.116 172.24C839.871 167.035 844.351 163.024 849.556 160.208C854.761 157.392 860.521 155.984 866.836 155.984ZM866.452 170.448C863.209 170.448 860.095 171.344 857.108 173.136C854.207 174.928 851.561 177.616 849.172 181.2C846.783 184.699 844.82 189.136 843.284 194.512L843.028 195.92C842.004 199.504 841.535 202.747 841.62 205.648C841.705 208.549 842.473 211.024 843.924 213.072C845.204 213.499 846.484 213.84 847.764 214.096C849.044 214.352 850.409 214.48 851.86 214.48C856.041 214.48 859.711 213.797 862.868 212.432C866.025 210.981 868.628 208.933 870.676 206.288C872.809 203.557 874.388 200.229 875.412 196.304L875.796 194.896C876.905 190.032 877.46 185.68 877.46 181.84C877.46 178 876.82 174.715 875.54 171.984C874.345 171.472 873.023 171.088 871.572 170.832C870.121 170.576 868.415 170.448 866.452 170.448Z"></path>
<path fill="#E74C3C" d="M790.086 155.984C794.438 155.984 798.278 157.008 801.606 159.056C805.019 161.104 807.75 163.963 809.798 167.632C811.931 171.216 813.297 175.44 813.894 180.304C814.491 185.083 814.15 190.203 812.87 195.664L812.358 197.584C810.907 204.24 808.603 209.787 805.446 214.224C802.289 218.576 798.278 221.861 793.414 224.08C788.635 226.299 782.833 227.408 776.006 227.408C770.971 227.408 766.577 226.555 762.822 224.848C759.067 223.056 756.038 220.581 753.734 217.424C751.515 214.267 750.065 210.597 749.382 206.416C748.785 202.235 749.126 197.669 750.406 192.72L750.918 190.8C752.795 183.632 755.611 177.445 759.366 172.24C763.121 167.035 767.601 163.024 772.806 160.208C778.011 157.392 783.771 155.984 790.086 155.984ZM789.702 170.448C786.459 170.448 783.345 171.344 780.358 173.136C777.457 174.928 774.811 177.616 772.422 181.2C770.033 184.699 768.07 189.136 766.534 194.512L766.278 195.92C765.254 199.504 764.785 202.747 764.87 205.648C764.955 208.549 765.723 211.024 767.174 213.072C768.454 213.499 769.734 213.84 771.014 214.096C772.294 214.352 773.659 214.48 775.11 214.48C779.291 214.48 782.961 213.797 786.118 212.432C789.275 210.981 791.878 208.933 793.926 206.288C796.059 203.557 797.638 200.229 798.662 196.304L799.046 194.896C800.155 190.032 800.71 185.68 800.71 181.84C800.71 178 800.07 174.715 798.79 171.984C797.595 171.472 796.273 171.088 794.822 170.832C793.371 170.576 791.665 170.448 789.702 170.448Z"></path>
<path fill="#E74C3C" d="M687.736 214.608L684.152 210C685.944 211.28 687.736 212.133 689.528 212.56C691.405 212.987 693.624 213.2 696.184 213.2C699.853 213.2 703.267 212.432 706.424 210.896C709.667 209.36 712.568 206.843 715.128 203.344C717.773 199.76 719.907 194.896 721.528 188.752L722.04 186.96C722.723 184.4 723.235 182.096 723.576 180.048C723.917 177.915 724.088 175.867 724.088 173.904C723.576 173.136 722.936 172.581 722.168 172.24C721.4 171.899 720.547 171.728 719.608 171.728C716.621 171.728 713.293 172.752 709.624 174.8C706.04 176.763 702.285 179.749 698.36 183.76C694.52 187.771 690.765 192.72 687.096 198.608L695.416 172.112L698.488 173.392C701.048 169.723 703.779 166.608 706.68 164.048C709.581 161.403 712.525 159.397 715.512 158.032C718.499 156.581 721.443 155.856 724.344 155.856C727.501 155.856 730.189 156.667 732.408 158.288C734.627 159.909 736.333 162.171 737.528 165.072C738.808 167.888 739.491 171.173 739.576 174.928C739.661 178.683 739.107 182.693 737.912 186.96L737.272 189.392C734.968 198.437 731.725 205.776 727.544 211.408C723.363 216.955 718.541 221.008 713.08 223.568C707.704 226.128 701.901 227.408 695.672 227.408C693.112 227.408 690.808 227.152 688.76 226.64C686.712 226.128 684.877 225.445 683.256 224.592C681.635 223.653 680.184 222.544 678.904 221.264C676.6 218.875 674.893 215.888 673.784 212.304C672.76 208.72 672.675 204.795 673.528 200.528C674.296 196.347 675.363 192.165 676.728 187.984C678.179 183.803 679.715 179.451 681.336 174.928C682.957 170.405 684.536 165.541 686.072 160.336C687.693 155.131 689.059 149.371 690.168 143.056C690.595 140.752 690.851 138.405 690.936 136.016C691.021 133.627 690.68 131.621 689.912 130C690.424 129.829 690.893 129.701 691.32 129.616C691.832 129.445 692.344 129.317 692.856 129.232C693.368 129.147 693.88 129.104 694.392 129.104C694.989 129.104 695.544 129.104 696.056 129.104C698.531 129.104 700.579 129.701 702.2 130.896C703.907 132.091 705.059 134.096 705.656 136.912C706.253 139.728 706.04 143.611 705.016 148.56C704.333 152.144 703.395 155.813 702.2 159.568C701.005 163.237 699.683 166.949 698.232 170.704C696.867 174.459 695.501 178.213 694.136 181.968C692.771 185.723 691.533 189.435 690.424 193.104C689.315 196.773 688.504 200.443 687.992 204.112C687.565 207.696 687.48 211.195 687.736 214.608Z"></path>
<path fill="#E74C3C" d="M629.93 155.984C632.746 155.984 635.221 156.539 637.354 157.648C639.573 158.672 641.493 160.037 643.114 161.744C644.735 163.365 646.015 165.029 646.954 166.736H650.794L647.082 177.488C645.802 175.099 643.967 173.307 641.578 172.112C639.189 170.917 636.458 170.32 633.386 170.32C629.887 170.32 626.815 171.216 624.17 173.008C621.525 174.8 619.178 177.488 617.13 181.072C615.167 184.656 613.418 189.093 611.882 194.384L611.37 196.56C610.687 198.779 610.175 200.955 609.834 203.088C609.578 205.221 609.535 207.184 609.706 208.976C610.559 209.744 611.498 210.384 612.522 210.896C613.631 211.323 614.783 211.536 615.978 211.536C619.135 211.536 622.122 210.725 624.938 209.104C627.754 207.397 630.655 204.752 633.642 201.168C636.629 197.499 639.957 192.72 643.626 186.832L638.89 208.336H634.666C632.533 211.835 630.143 215.035 627.498 217.936C624.938 220.837 622.207 223.141 619.306 224.848C616.405 226.555 613.461 227.408 610.474 227.408C607.231 227.408 604.458 226.597 602.154 224.976C599.85 223.355 598.015 221.136 596.65 218.32C595.285 215.504 594.474 212.304 594.218 208.72C593.962 205.136 594.303 201.381 595.242 197.456L596.01 194.512C597.802 187.344 599.893 181.328 602.282 176.464C604.671 171.6 607.274 167.675 610.09 164.688C612.906 161.616 615.978 159.397 619.306 158.032C622.634 156.667 626.175 155.984 629.93 155.984ZM654.506 130C655.53 129.573 656.511 129.317 657.45 129.232C658.389 129.147 659.455 129.104 660.65 129.104C663.039 129.104 665.087 129.701 666.794 130.896C668.501 132.005 669.653 133.968 670.25 136.784C670.847 139.515 670.549 143.312 669.354 148.176C668.245 153.552 666.879 158.715 665.258 163.664C663.637 168.528 661.973 173.307 660.266 178C658.559 182.608 656.981 187.259 655.53 191.952C654.079 196.56 652.927 201.253 652.074 206.032C651.818 207.227 651.647 208.293 651.562 209.232C651.477 210.085 651.477 210.896 651.562 211.664C651.818 211.92 652.031 212.091 652.202 212.176C652.458 212.176 652.714 212.176 652.97 212.176C653.909 212.176 654.847 211.963 655.786 211.536C656.725 211.024 657.621 210.384 658.474 209.616C659.413 208.763 660.266 207.824 661.034 206.8H661.802C661.717 207.653 661.589 208.549 661.418 209.488C661.333 210.341 661.119 211.408 660.778 212.688C660.181 214.992 659.455 216.955 658.602 218.576C657.834 220.112 656.853 221.52 655.658 222.8C654.378 224.421 652.927 225.531 651.306 226.128C649.77 226.811 647.978 227.152 645.93 227.152C643.967 227.152 642.218 226.683 640.682 225.744C639.231 224.805 638.037 223.44 637.098 221.648C636.159 219.856 635.562 217.765 635.306 215.376C635.135 212.987 635.306 210.384 635.818 207.568C637.098 201.253 638.549 195.408 640.17 190.032C641.791 184.656 643.455 179.451 645.162 174.416C646.954 169.381 648.661 164.261 650.282 159.056C651.903 153.851 653.354 148.304 654.634 142.416C655.146 140.027 655.402 137.765 655.402 135.632C655.487 133.499 655.189 131.621 654.506 130Z"></path>
<path fill="#E74C3C" d="M529.5 157.392C529.927 157.221 530.353 157.093 530.78 157.008C531.292 156.923 531.804 156.88 532.316 156.88C532.913 156.795 533.511 156.752 534.108 156.752C537.436 156.752 539.996 157.435 541.788 158.8C543.58 160.165 544.647 162.256 544.988 165.072C545.329 167.803 544.988 171.259 543.964 175.44C542.769 180.389 541.489 185.04 540.124 189.392C538.759 193.744 537.436 197.968 536.156 202.064C534.961 206.075 533.98 210.085 533.212 214.096C532.444 218.107 532.145 222.203 532.316 226.384C532.06 226.469 531.804 226.512 531.548 226.512C531.292 226.597 531.036 226.64 530.78 226.64C530.524 226.725 530.225 226.768 529.884 226.768C527.153 226.768 524.935 226.299 523.228 225.36C521.521 224.336 520.199 223.099 519.26 221.648C518.407 220.112 517.852 218.533 517.596 216.912C517.34 215.205 517.34 213.669 517.596 212.304C518.279 207.696 519.345 203.003 520.796 198.224C522.332 193.445 523.868 188.667 525.404 183.888C527.025 179.109 528.263 174.416 529.116 169.808C529.543 167.419 529.799 165.2 529.884 163.152C529.969 161.019 529.841 159.099 529.5 157.392ZM571.612 156.24C574.172 156.24 576.391 156.923 578.268 158.288C580.145 159.653 581.596 161.445 582.62 163.664C583.729 165.883 584.412 168.272 584.668 170.832C585.009 173.307 584.924 175.653 584.412 177.872C583.644 181.2 582.663 184.443 581.468 187.6C580.273 190.757 579.079 193.915 577.884 197.072C576.689 200.144 575.665 203.429 574.812 206.928C574.641 207.781 574.471 208.635 574.3 209.488C574.215 210.341 574.172 211.109 574.172 211.792C574.513 211.963 574.855 212.091 575.196 212.176C575.537 212.176 575.879 212.176 576.22 212.176C576.988 212.176 577.841 211.963 578.78 211.536C579.719 211.024 580.657 210.384 581.596 209.616C582.62 208.763 583.516 207.824 584.284 206.8H585.052C584.967 207.653 584.839 208.549 584.668 209.488C584.583 210.341 584.369 211.408 584.028 212.688C583.431 214.992 582.748 216.912 581.98 218.448C581.297 219.984 580.572 221.307 579.804 222.416C578.78 223.952 577.415 225.147 575.708 226C574.087 226.768 571.911 227.152 569.18 227.152C566.961 227.152 564.828 226.256 562.78 224.464C560.732 222.672 559.196 220.368 558.172 217.552C557.148 214.736 556.935 211.749 557.532 208.592C558.215 205.435 559.153 202.235 560.348 198.992C561.543 195.664 562.993 192.208 564.7 188.624C566.492 184.955 568.455 181.157 570.588 177.232C570.076 175.611 569.308 174.459 568.284 173.776C567.26 173.008 565.895 172.624 564.188 172.624C562.14 172.624 559.921 173.307 557.532 174.672C555.228 176.037 552.796 178 550.236 180.56C547.761 183.035 545.287 186.021 542.812 189.52C540.423 192.933 538.076 196.731 535.772 200.912L541.404 178.128H544.22C546.439 174.117 549.041 170.491 552.028 167.248C555.015 163.92 558.172 161.275 561.5 159.312C564.913 157.264 568.284 156.24 571.612 156.24Z"></path>
<path fill="#E74C3C" d="M476.302 155.984C478.947 155.984 481.251 156.539 483.214 157.648C485.177 158.672 486.841 160.08 488.206 161.872C489.657 163.579 490.851 165.456 491.79 167.504H494.734L492.174 178.256C490.894 175.696 489.102 173.733 486.798 172.368C484.494 171.003 481.721 170.32 478.478 170.32C475.406 170.32 472.633 171.259 470.158 173.136C467.683 174.928 465.507 177.531 463.63 180.944C461.753 184.357 460.089 188.624 458.638 193.744L458.126 195.92C457.443 198.48 456.931 200.912 456.59 203.216C456.249 205.435 456.121 207.568 456.206 209.616C456.803 210.213 457.486 210.683 458.254 211.024C459.107 211.365 460.003 211.536 460.942 211.536C464.099 211.536 467.214 210.725 470.286 209.104C473.358 207.397 476.515 204.709 479.758 201.04C483.001 197.371 486.414 192.507 489.998 186.448L483.982 207.824H480.91C478.691 211.493 476.259 214.821 473.614 217.808C470.969 220.709 468.238 223.056 465.422 224.848C462.606 226.555 459.833 227.408 457.102 227.408C453.774 227.408 450.958 226.512 448.654 224.72C446.35 222.843 444.558 220.411 443.278 217.424C441.998 214.437 441.23 211.152 440.974 207.568C440.803 203.984 441.145 200.485 441.998 197.072L442.766 193.872C444.387 187.301 446.35 181.627 448.654 176.848C451.043 171.984 453.646 168.016 456.462 164.944C459.363 161.872 462.478 159.611 465.806 158.16C469.219 156.709 472.718 155.984 476.302 155.984ZM493.582 157.392C494.435 156.965 495.289 156.709 496.142 156.624C497.081 156.539 498.062 156.496 499.086 156.496C501.475 156.496 503.438 157.093 504.974 158.288C506.51 159.483 507.449 161.488 507.79 164.304C508.131 167.035 507.747 170.832 506.638 175.696C505.699 179.963 504.547 184.101 503.182 188.112C501.902 192.123 500.579 196.005 499.214 199.76C497.934 203.429 496.867 207.184 496.014 211.024C496.441 211.451 496.91 211.749 497.422 211.92C497.934 212.005 498.531 212.048 499.214 212.048C500.579 212.048 501.987 211.621 503.438 210.768C504.889 209.829 506.254 208.507 507.534 206.8H508.302C508.217 207.568 508.046 208.336 507.79 209.104C507.619 209.872 507.449 210.768 507.278 211.792C506.681 214.011 505.955 216.101 505.102 218.064C504.334 220.027 503.395 221.563 502.286 222.672C500.835 224.123 499.342 225.232 497.806 226C496.355 226.768 494.521 227.152 492.302 227.152C489.571 227.152 487.267 226.341 485.39 224.72C483.513 223.099 482.233 220.837 481.55 217.936C480.867 215.035 480.867 211.749 481.55 208.08C482.403 203.643 483.427 199.461 484.622 195.536C485.902 191.525 487.225 187.472 488.59 183.376C489.955 179.195 491.107 174.672 492.046 169.808C492.387 168.187 492.643 166.651 492.814 165.2C493.07 163.664 493.241 162.256 493.326 160.976C493.497 159.611 493.582 158.416 493.582 157.392Z"></path>
<path fill="#E74C3C" d="M383.424 136.4C384.619 135.973 385.685 135.717 386.624 135.632C387.648 135.461 388.715 135.376 389.824 135.376C393.749 135.376 396.267 136.741 397.376 139.472C398.571 142.117 398.656 146.341 397.632 152.144C396.437 158.715 394.816 164.901 392.768 170.704C390.805 176.507 388.8 182.309 386.752 188.112C384.704 193.829 382.997 199.803 381.632 206.032C380.267 212.176 379.627 218.832 379.712 226C378.859 226.256 377.963 226.469 377.024 226.64C376.085 226.811 375.147 226.896 374.208 226.896C371.904 226.896 369.984 226.341 368.448 225.232C366.912 224.123 365.845 222.288 365.248 219.728C364.736 217.168 364.779 213.84 365.376 209.744C366.315 203.344 367.851 197.029 369.984 190.8C372.203 184.571 374.464 178.171 376.768 171.6C379.157 164.944 381.077 157.861 382.528 150.352C382.955 147.877 383.253 145.488 383.424 143.184C383.595 140.795 383.595 138.533 383.424 136.4ZM367.168 179.024H403.008C405.397 179.024 407.36 179.408 408.896 180.176C410.432 180.859 411.669 181.84 412.608 183.12L416.064 182.48L413.504 193.872H370.624C369.344 193.872 368.32 193.573 367.552 192.976C366.869 192.293 366.357 191.397 366.016 190.288C365.76 189.179 365.632 187.899 365.632 186.448C365.717 184.912 365.973 183.333 366.4 181.712L367.168 179.024ZM421.44 226C420.587 226.341 419.52 226.555 418.24 226.64C417.045 226.811 415.765 226.896 414.4 226.896C412.523 226.896 410.816 226.427 409.28 225.488C407.829 224.549 406.72 223.013 405.952 220.88C405.269 218.661 405.141 215.845 405.568 212.432C406.251 206.203 407.616 199.931 409.664 193.616C411.712 187.216 413.845 180.859 416.064 174.544C418.368 168.144 420.288 161.744 421.824 155.344C423.36 148.944 424 142.587 423.744 136.272C425.024 136.016 426.133 135.845 427.072 135.76C428.011 135.589 429.035 135.504 430.144 135.504C432.619 135.504 434.539 135.973 435.904 136.912C437.269 137.851 438.165 139.173 438.592 140.88C439.104 142.587 439.275 144.507 439.104 146.64C439.019 148.773 438.72 150.992 438.208 153.296C437.355 158.075 436.203 162.811 434.752 167.504C433.301 172.112 431.723 176.805 430.016 181.584C428.395 186.277 426.816 191.141 425.28 196.176C423.744 201.125 422.507 206.331 421.568 211.792C421.056 214.437 420.757 216.912 420.672 219.216C420.672 221.52 420.928 223.781 421.44 226Z"></path>
<path fill="#E74C3C" d="M794.95 39.856C797.937 39.856 800.497 40.0693 802.63 40.496C804.763 40.9227 806.641 41.6053 808.262 42.544C809.883 43.4827 811.419 44.6347 812.87 46C814.491 47.7067 815.643 49.4987 816.326 51.376C817.094 53.168 817.222 54.96 816.71 56.752L816.454 58.16C815.686 60.976 813.979 63.3653 811.334 65.328C808.774 67.2053 805.659 68.144 801.99 68.144C801.307 68.144 800.625 68.1013 799.942 68.016C799.259 67.9307 798.619 67.8027 798.022 67.632V66.864C799.131 65.4133 800.027 63.8773 800.71 62.256C801.393 60.6347 801.777 58.9707 801.862 57.264C800.582 56.4107 799.046 55.8133 797.254 55.472C795.547 55.0453 793.627 54.832 791.494 54.832C788.081 54.832 785.051 55.088 782.406 55.6C779.846 56.0267 777.67 56.6667 775.878 57.52C774.086 58.3733 772.635 59.3547 771.526 60.464C770.502 61.5733 769.819 62.768 769.478 64.048C769.222 65.4133 769.35 66.6507 769.862 67.76C770.374 68.8693 771.526 69.8933 773.318 70.832C775.195 71.6853 778.054 72.496 781.894 73.264L792.902 75.568C797.339 76.4213 800.753 77.744 803.142 79.536C805.617 81.2427 807.238 83.3333 808.006 85.808C808.774 88.2827 808.774 91.056 808.006 94.128C806.897 98.3947 804.891 101.808 801.99 104.368C799.174 106.843 795.462 108.635 790.854 109.744C786.246 110.853 780.785 111.408 774.47 111.408C769.862 111.408 765.894 111.109 762.566 110.512C759.323 109.915 756.763 109.147 754.886 108.208C753.009 107.269 751.686 106.416 750.918 105.648C749.894 104.709 749.126 103.387 748.614 101.68C748.187 99.888 748.401 97.4987 749.254 94.512C749.595 93.3173 749.937 92.2933 750.278 91.44C750.705 90.5867 751.217 89.776 751.814 89.008H752.582C754.459 90.6293 756.678 91.9947 759.238 93.104C761.798 94.2133 764.785 95.0667 768.198 95.664C771.697 96.2613 775.75 96.56 780.358 96.56C782.406 96.56 784.326 96.432 786.118 96.176C787.91 95.8347 789.574 95.408 791.11 94.896C792.646 94.2987 793.969 93.616 795.078 92.848C795.419 91.3973 795.334 90.2027 794.822 89.264C794.395 88.3253 793.457 87.5147 792.006 86.832C790.641 86.1493 788.678 85.5093 786.118 84.912L773.19 81.968C767.899 80.7733 763.803 79.152 760.902 77.104C758.001 74.9707 756.081 72.5813 755.142 69.936C754.289 67.2053 754.289 64.3893 755.142 61.488C755.995 58.16 757.574 55.1733 759.878 52.528C762.267 49.7973 765.169 47.4933 768.582 45.616C772.081 43.7387 776.049 42.3307 780.486 41.392C785.009 40.368 789.83 39.856 794.95 39.856Z"></path>
<path fill="#E74C3C" d="M679.544 41.392H735.48C738.381 41.392 740.344 42.288 741.368 44.08C742.392 45.7867 742.563 47.9627 741.88 50.608C741.624 51.376 741.368 52.1013 741.112 52.784C740.941 53.4667 740.728 54.1493 740.472 54.832C740.216 55.5147 739.917 56.1547 739.576 56.752H694.776C691.533 56.752 688.76 56.496 686.456 55.984C684.152 55.3867 682.36 54.5333 681.08 53.424C679.8 52.3147 678.947 50.9493 678.52 49.328C678.179 47.6213 678.221 45.7013 678.648 43.568C678.733 43.2267 678.819 42.9707 678.904 42.8C678.989 42.544 679.075 42.3307 679.16 42.16C679.331 41.904 679.459 41.648 679.544 41.392ZM735.352 85.424C735.523 86.6187 735.565 88.0693 735.48 89.776C735.395 91.3973 735.139 93.104 734.712 94.896C734.2 97.0293 733.517 98.864 732.664 100.4C731.896 101.936 730.787 103.472 729.336 105.008C728.227 106.032 727.032 106.971 725.752 107.824C724.472 108.592 723.021 109.275 721.4 109.872C719.864 110.384 718.157 110.768 716.28 111.024C714.403 111.28 712.397 111.408 710.264 111.408C706.253 111.408 702.712 110.768 699.64 109.488C696.653 108.123 694.093 106.288 691.96 103.984C689.912 101.68 688.461 99.0773 687.608 96.176C686.755 93.1893 686.499 90.0747 686.84 86.832C687.437 81.7973 688.504 76.976 690.04 72.368C691.576 67.76 693.24 63.28 695.032 58.928C696.824 54.576 698.488 50.1813 700.024 45.744C701.645 41.3067 702.84 36.7413 703.608 32.048C703.949 30 704.12 28.0373 704.12 26.16C704.12 24.1973 703.949 22.2773 703.608 20.4C705.059 19.9733 706.339 19.6747 707.448 19.504C708.643 19.3333 709.837 19.248 711.032 19.248C713.251 19.248 715.085 19.6747 716.536 20.528C717.987 21.3813 719.053 22.7467 719.736 24.624C720.419 26.416 720.547 28.848 720.12 31.92C719.523 36.6987 718.413 41.392 716.792 46C715.171 50.5227 713.379 55.0453 711.416 59.568C709.539 64.0053 707.747 68.3573 706.04 72.624C704.419 76.8053 703.224 81.0293 702.456 85.296C702.029 87.5147 701.773 89.392 701.688 90.928C701.603 92.3787 701.688 93.7867 701.944 95.152C702.968 95.8347 704.12 96.3467 705.4 96.688C706.68 97.0293 708.216 97.2 710.008 97.2C712.568 97.2 715.171 96.816 717.816 96.048C720.547 95.28 723.32 94.0427 726.136 92.336C728.952 90.6293 731.768 88.3253 734.584 85.424H735.352Z"></path>
<path fill="#E74C3C" d="M636.586 39.984C640.938 39.984 644.778 41.008 648.106 43.056C651.519 45.104 654.25 47.9627 656.298 51.632C658.431 55.216 659.797 59.44 660.394 64.304C660.991 69.0827 660.65 74.2027 659.37 79.664L658.858 81.584C657.407 88.24 655.103 93.7867 651.946 98.224C648.789 102.576 644.778 105.861 639.914 108.08C635.135 110.299 629.333 111.408 622.506 111.408C617.471 111.408 613.077 110.555 609.322 108.848C605.567 107.056 602.538 104.581 600.234 101.424C598.015 98.2667 596.565 94.5973 595.882 90.416C595.285 86.2347 595.626 81.6693 596.906 76.72L597.418 74.8C599.295 67.632 602.111 61.4453 605.866 56.24C609.621 51.0347 614.101 47.024 619.306 44.208C624.511 41.392 630.271 39.984 636.586 39.984ZM636.202 54.448C632.959 54.448 629.845 55.344 626.858 57.136C623.957 58.928 621.311 61.616 618.922 65.2C616.533 68.6987 614.57 73.136 613.034 78.512L612.778 79.92C611.754 83.504 611.285 86.7467 611.37 89.648C611.455 92.5493 612.223 95.024 613.674 97.072C614.954 97.4987 616.234 97.84 617.514 98.096C618.794 98.352 620.159 98.48 621.61 98.48C625.791 98.48 629.461 97.7973 632.618 96.432C635.775 94.9813 638.378 92.9333 640.426 90.288C642.559 87.5573 644.138 84.2293 645.162 80.304L645.546 78.896C646.655 74.032 647.21 69.68 647.21 65.84C647.21 62 646.57 58.7147 645.29 55.984C644.095 55.472 642.773 55.088 641.322 54.832C639.871 54.576 638.165 54.448 636.202 54.448Z"></path>
<path fill="#E74C3C" d="M529.884 18.48C531.42 17.8827 533.169 17.328 535.132 16.816C537.18 16.2187 539.313 15.664 541.532 15.152C543.836 14.64 546.183 14.2133 548.572 13.872C550.961 13.4453 553.308 13.1467 555.612 12.976C557.916 12.72 560.092 12.592 562.14 12.592C564.871 12.592 567.303 13.2747 569.436 14.64C571.655 15.92 573.319 17.6267 574.428 19.76C575.623 21.8933 576.007 24.24 575.58 26.8C574.897 30.896 573.703 34.992 571.996 39.088C570.375 43.0987 568.412 47.0667 566.108 50.992C563.889 54.9173 561.628 58.8427 559.324 62.768C557.105 66.6933 555.057 70.6187 553.18 74.544C551.388 78.4693 550.065 82.3947 549.212 86.32C548.785 87.9413 548.529 89.4347 548.444 90.8C548.359 92.08 548.316 93.4453 548.316 94.896C549.34 95.5787 550.492 96.048 551.772 96.304C553.052 96.56 554.417 96.688 555.868 96.688C559.025 96.688 561.927 96.2187 564.572 95.28C567.303 94.256 569.991 92.6347 572.636 90.416C575.281 88.1973 578.097 85.2107 581.084 81.456H581.852C582.108 83.1627 582.236 84.9973 582.236 86.96C582.321 88.9227 582.108 90.9707 581.596 93.104C581.084 95.0667 580.487 96.816 579.804 98.352C579.207 99.888 578.481 101.253 577.628 102.448C576.775 103.557 575.751 104.624 574.556 105.648C573.191 106.928 571.569 107.995 569.692 108.848C567.815 109.701 565.724 110.341 563.42 110.768C561.201 111.28 558.727 111.536 555.996 111.536C552.412 111.536 549.084 110.853 546.012 109.488C543.025 108.037 540.508 106.117 538.46 103.728C536.412 101.339 534.919 98.608 533.98 95.536C533.127 92.464 532.999 89.136 533.596 85.552C534.364 80.944 535.601 76.5493 537.308 72.368C539.015 68.1867 540.935 64.176 543.068 60.336C545.201 56.496 547.377 52.6987 549.596 48.944C551.815 45.104 553.82 41.2213 555.612 37.296C557.489 33.3707 558.897 29.232 559.836 24.88L559.068 24.368C555.313 26.5867 551.644 28.464 548.06 30C544.561 31.536 541.361 32.7307 538.46 33.584C535.644 34.352 533.297 34.736 531.42 34.736C529.287 34.736 527.879 33.9253 527.196 32.304C526.513 30.6827 526.599 28.0373 527.452 24.368C527.708 23.344 528.007 22.3627 528.348 21.424C528.689 20.4853 529.201 19.504 529.884 18.48Z"></path>
<path fill="#E74C3C" d="M449.422 45.872C452.323 44.7627 455.523 43.7813 459.022 42.928C462.521 42.0747 466.019 41.392 469.518 40.88C473.102 40.368 476.387 40.112 479.374 40.112C481.934 40.112 484.238 40.6667 486.286 41.776C488.419 42.8853 490.083 44.3787 491.278 46.256C492.473 48.048 492.857 50.0107 492.43 52.144C491.833 55.3867 490.894 58.5013 489.614 61.488C488.334 64.3893 486.926 67.2907 485.39 70.192C483.854 73.0933 482.403 75.9947 481.038 78.896C479.673 81.7973 478.649 84.8267 477.966 87.984C477.625 89.4347 477.369 90.8427 477.198 92.208C477.113 93.488 477.113 94.768 477.198 96.048C477.795 96.56 478.435 96.944 479.118 97.2C479.886 97.456 480.739 97.584 481.678 97.584C485.945 97.584 489.913 96.688 493.582 94.896C497.251 93.0187 501.134 89.776 505.23 85.168H505.998C506.169 86.3627 506.211 87.6853 506.126 89.136C506.126 90.5867 505.87 92.2933 505.358 94.256C504.675 97.072 503.822 99.4187 502.798 101.296C501.859 103.173 500.622 104.837 499.086 106.288C497.977 107.227 496.611 108.123 494.99 108.976C493.369 109.744 491.491 110.341 489.358 110.768C487.31 111.28 485.091 111.536 482.702 111.536C479.545 111.536 476.601 110.896 473.87 109.616C471.225 108.336 468.963 106.587 467.086 104.368C465.209 102.064 463.843 99.5467 462.99 96.816C462.222 94 462.094 91.1413 462.606 88.24C463.118 84.8267 463.971 81.6267 465.166 78.64C466.446 75.6533 467.769 72.7947 469.134 70.064C470.585 67.248 471.95 64.432 473.23 61.616C474.595 58.8 475.705 55.8133 476.558 52.656L475.79 52.272C472.718 54.1493 469.603 55.9413 466.446 57.648C463.374 59.2693 460.473 60.592 457.742 61.616C455.011 62.64 452.622 63.152 450.574 63.152C448.782 63.152 447.545 62.1707 446.862 60.208C446.179 58.2453 446.265 55.472 447.118 51.888C447.374 50.864 447.673 49.8827 448.014 48.944C448.355 48.0053 448.825 46.9813 449.422 45.872ZM481.55 12.72C482.318 12.5493 483.086 12.4213 483.854 12.336C484.622 12.2507 485.433 12.208 486.286 12.208C487.139 12.1227 487.95 12.08 488.718 12.08C489.486 11.9947 490.211 11.952 490.894 11.952C495.075 11.952 497.977 12.976 499.598 15.024C501.219 16.9867 501.603 19.8027 500.75 23.472L499.342 29.104C498.574 29.1893 497.806 29.3173 497.038 29.488C496.27 29.5733 495.459 29.6587 494.606 29.744C493.838 29.744 493.07 29.744 492.302 29.744C491.534 29.744 490.809 29.744 490.126 29.744C485.689 29.744 482.617 28.8053 480.91 26.928C479.289 25.0507 479.033 22.064 480.142 17.968L481.55 12.72Z"></path>
<path fill="#E74C3C" d="M381.12 110C380.267 110.341 379.285 110.555 378.176 110.64C377.152 110.811 376.128 110.896 375.104 110.896C370.837 110.896 367.979 109.573 366.528 106.928C365.077 104.197 364.608 100.741 365.12 96.56C365.803 91.184 366.955 85.9787 368.576 80.944C370.197 75.9093 371.989 70.832 373.952 65.712C375.915 60.592 377.707 55.2587 379.328 49.712C381.035 44.08 382.357 38.064 383.296 31.664L396.096 29.616L393.792 33.968C394.901 35.1627 395.627 36.784 395.968 38.832C396.309 40.7947 396.267 43.0987 395.84 45.744C394.901 51.4613 393.408 57.2213 391.36 63.024C389.397 68.7413 387.435 74.5013 385.472 80.304C383.509 86.0213 382.059 91.8667 381.12 97.84C380.864 99.888 380.693 101.979 380.608 104.112C380.608 106.245 380.779 108.208 381.12 110ZM377.408 20.4C383.467 19.376 388.928 18.6933 393.792 18.352C398.656 18.0107 403.648 17.84 408.768 17.84C413.547 17.84 417.643 18.48 421.056 19.76C424.555 21.04 427.413 22.832 429.632 25.136C431.936 27.3547 433.643 29.872 434.752 32.688C435.947 35.504 436.629 38.448 436.8 41.52C436.971 44.592 436.672 47.664 435.904 50.736L435.52 52.272C433.899 58.928 431.765 64.56 429.12 69.168C426.475 73.6907 423.445 77.36 420.032 80.176C416.704 82.9067 413.12 84.8693 409.28 86.064C405.44 87.2587 401.472 87.856 397.376 87.856C394.56 87.856 392.171 87.3013 390.208 86.192C388.245 85.0827 386.709 83.76 385.6 82.224L381.76 83.376L385.344 72.24C386.795 72.6667 388.117 73.008 389.312 73.264C390.592 73.52 392.384 73.648 394.688 73.648C397.675 73.648 400.448 73.3067 403.008 72.624C405.568 71.856 407.915 70.6187 410.048 68.912C412.181 67.12 414.059 64.7733 415.68 61.872C417.301 58.8853 418.709 55.1307 419.904 50.608L420.416 48.944C420.843 47.2373 421.141 45.2747 421.312 43.056C421.568 40.8373 421.483 38.448 421.056 35.888C418.923 34.6933 416.747 33.8827 414.528 33.456C412.309 32.944 409.579 32.688 406.336 32.688C401.131 32.688 396.565 32.9013 392.64 33.328C388.8 33.7547 385.643 34.224 383.168 34.736C380.693 35.1627 378.944 35.376 377.92 35.376C376.213 35.376 375.147 34.608 374.72 33.072C374.379 31.536 374.549 29.2747 375.232 26.288C375.659 25.0933 376 24.0267 376.256 23.088C376.597 22.1493 376.981 21.2533 377.408 20.4Z"></path>
<path fill="#E74C3C" d="M962.493 262C964.306 262 965.879 262.373 967.213 263.12C968.573 263.867 969.626 264.907 970.373 266.24C971.119 267.573 971.493 269.133 971.493 270.92V274.24C971.493 274.32 971.479 274.4 971.453 274.48C971.426 274.533 971.372 274.573 971.292 274.6C971.239 274.627 971.173 274.64 971.093 274.64H961.892C961.439 274.64 960.973 274.64 960.493 274.64C960.039 274.64 959.586 274.64 959.132 274.64H957.493L957.373 271.28H966.253C966.253 271.173 966.253 271.08 966.253 271C966.253 270.92 966.253 270.827 966.253 270.72C966.253 269.947 966.172 269.293 966.012 268.76C965.852 268.2 965.599 267.76 965.253 267.44C964.959 267.12 964.586 266.893 964.132 266.76C963.679 266.627 963.133 266.56 962.493 266.56C961.159 266.56 960.159 266.893 959.493 267.56C958.853 268.2 958.532 269.253 958.532 270.72V275.6C958.532 276.24 958.612 276.813 958.772 277.32C958.959 277.8 959.212 278.213 959.532 278.56C959.959 278.987 960.519 279.293 961.213 279.48C961.933 279.667 962.759 279.76 963.693 279.76C964.653 279.76 965.506 279.72 966.253 279.64C966.999 279.533 967.693 279.4 968.333 279.24C968.973 279.053 969.599 278.853 970.213 278.64H970.973C970.973 279.307 970.973 279.987 970.973 280.68C970.973 281.347 970.973 282.027 970.973 282.72C970.973 282.773 970.959 282.827 970.932 282.88C970.906 282.933 970.866 282.987 970.812 283.04C970.599 283.253 970.119 283.467 969.373 283.68C968.653 283.893 967.773 284.08 966.733 284.24C965.719 284.4 964.679 284.48 963.613 284.48C961.879 284.48 960.346 284.28 959.012 283.88C957.706 283.453 956.613 282.853 955.733 282.08C954.879 281.307 954.226 280.373 953.772 279.28C953.346 278.16 953.132 276.907 953.132 275.52V270.96C953.132 269.6 953.346 268.373 953.772 267.28C954.226 266.187 954.866 265.253 955.693 264.48C956.519 263.68 957.506 263.067 958.652 262.64C959.799 262.213 961.079 262 962.493 262Z"></path>
<path fill="#E74C3C" d="M939.74 279.16C941.34 279.16 942.434 278.987 943.02 278.64C943.607 278.267 943.9 277.84 943.9 277.36C943.9 277.067 943.82 276.8 943.66 276.56C943.527 276.32 943.274 276.12 942.9 275.96C942.554 275.773 942.047 275.627 941.38 275.52L937.26 274.92C935.98 274.707 934.914 274.347 934.06 273.84C933.207 273.307 932.567 272.64 932.14 271.84C931.74 271.04 931.54 270.147 931.54 269.16C931.54 268.04 931.754 267.053 932.18 266.2C932.634 265.32 933.287 264.573 934.14 263.96C934.994 263.347 936.047 262.88 937.3 262.56C938.554 262.24 939.98 262.08 941.58 262.08C942.434 262.08 943.22 262.12 943.94 262.2C944.66 262.253 945.314 262.333 945.9 262.44C946.487 262.547 947.007 262.667 947.46 262.8C947.647 262.853 947.78 262.92 947.86 263C947.967 263.053 948.02 263.133 948.02 263.24C948.047 263.347 948.06 263.507 948.06 263.72C948.06 264.28 948.06 264.987 948.06 265.84C948.06 266.667 948.06 267.44 948.06 268.16H947.34C946.62 267.973 945.927 267.813 945.26 267.68C944.594 267.547 943.914 267.453 943.22 267.4C942.527 267.347 941.794 267.32 941.02 267.32C939.954 267.32 939.114 267.4 938.5 267.56C937.914 267.693 937.5 267.88 937.26 268.12C937.02 268.36 936.9 268.64 936.9 268.96C936.9 269.253 936.967 269.52 937.1 269.76C937.26 269.973 937.514 270.147 937.86 270.28C938.207 270.413 938.687 270.533 939.3 270.64L943.06 271.2C944.367 271.36 945.474 271.707 946.38 272.24C947.287 272.747 947.98 273.427 948.46 274.28C948.967 275.107 949.22 276.107 949.22 277.28C949.22 278.72 948.847 279.973 948.1 281.04C947.38 282.107 946.314 282.933 944.9 283.52C943.487 284.107 941.754 284.4 939.7 284.4C938.74 284.4 937.847 284.36 937.02 284.28C936.194 284.227 935.42 284.133 934.7 284C934.007 283.893 933.38 283.76 932.82 283.6C932.26 283.44 931.78 283.267 931.38 283.08C931.22 283.027 931.114 282.96 931.06 282.88C931.034 282.8 931.02 282.653 931.02 282.44C931.02 281.827 931.02 281.093 931.02 280.24C931.02 279.387 931.02 278.56 931.02 277.76H931.74C932.38 278.027 932.994 278.253 933.58 278.44C934.194 278.6 934.807 278.733 935.42 278.84C936.06 278.947 936.727 279.027 937.42 279.08C938.14 279.133 938.914 279.16 939.74 279.16Z"></path>
<path fill="#E74C3C" d="M926.956 284C926.076 284 925.249 284 924.476 284C923.729 284 922.903 284 921.996 284C921.916 284 921.836 283.987 921.756 283.96C921.703 283.907 921.649 283.853 921.596 283.8C921.569 283.747 921.556 283.667 921.556 283.56C921.556 281.987 921.556 280.413 921.556 278.84C921.556 277.24 921.556 275.653 921.556 274.08C921.556 272.507 921.556 270.933 921.556 269.36C921.556 268.64 921.396 268.107 921.076 267.76C920.756 267.413 920.249 267.24 919.556 267.24C919.103 267.24 918.596 267.32 918.036 267.48C917.503 267.613 916.956 267.827 916.396 268.12C915.863 268.387 915.343 268.733 914.836 269.16C914.329 269.587 913.863 270.093 913.436 270.68V265.96H914.836C915.369 265.16 915.956 264.467 916.596 263.88C917.263 263.293 917.983 262.84 918.756 262.52C919.556 262.173 920.409 262 921.316 262C922.169 262 922.943 262.147 923.636 262.44C924.356 262.707 924.956 263.12 925.436 263.68C925.943 264.213 926.316 264.867 926.556 265.64C926.823 266.413 926.956 267.28 926.956 268.24C926.956 269.52 926.956 270.813 926.956 272.12C926.956 273.427 926.956 274.733 926.956 276.04C926.956 277.347 926.956 278.667 926.956 280C926.956 280.667 926.956 281.333 926.956 282C926.956 282.667 926.956 283.333 926.956 284ZM914.076 284C913.489 284 912.929 284 912.396 284C911.889 284 911.356 284 910.796 284C910.263 284 909.703 284 909.116 284C909.036 284 908.969 284 908.916 284C908.863 283.973 908.809 283.947 908.756 283.92C908.729 283.867 908.703 283.813 908.676 283.76C908.676 283.707 908.676 283.64 908.676 283.56C908.676 282.12 908.676 280.693 908.676 279.28C908.676 277.84 908.676 276.413 908.676 275C908.676 273.56 908.676 272.133 908.676 270.72C908.676 269.28 908.676 267.84 908.676 266.4C908.676 265.653 908.676 264.947 908.676 264.28C908.676 263.613 908.676 263.013 908.676 262.48C909.343 262.48 909.943 262.48 910.476 262.48C911.036 262.48 911.569 262.48 912.076 262.48C912.609 262.48 913.129 262.48 913.636 262.48C913.743 262.48 913.823 262.507 913.876 262.56C913.929 262.587 913.969 262.627 913.996 262.68C914.049 262.733 914.076 262.813 914.076 262.92C914.076 265.24 914.076 267.573 914.076 269.92C914.076 272.267 914.076 274.613 914.076 276.96C914.076 279.307 914.076 281.653 914.076 284Z"></path>
<path fill="#E74C3C" d="M894.332 262C896.145 262 897.718 262.373 899.052 263.12C900.412 263.867 901.465 264.907 902.212 266.24C902.958 267.573 903.332 269.133 903.332 270.92V274.24C903.332 274.32 903.318 274.4 903.292 274.48C903.265 274.533 903.212 274.573 903.132 274.6C903.078 274.627 903.012 274.64 902.932 274.64H893.732C893.278 274.64 892.812 274.64 892.332 274.64C891.878 274.64 891.425 274.64 890.972 274.64H889.332L889.212 271.28H898.092C898.092 271.173 898.092 271.08 898.092 271C898.092 270.92 898.092 270.827 898.092 270.72C898.092 269.947 898.012 269.293 897.852 268.76C897.692 268.2 897.438 267.76 897.092 267.44C896.798 267.12 896.425 266.893 895.972 266.76C895.518 266.627 894.972 266.56 894.332 266.56C892.998 266.56 891.998 266.893 891.332 267.56C890.692 268.2 890.372 269.253 890.372 270.72V275.6C890.372 276.24 890.452 276.813 890.612 277.32C890.798 277.8 891.052 278.213 891.372 278.56C891.798 278.987 892.358 279.293 893.052 279.48C893.772 279.667 894.598 279.76 895.532 279.76C896.492 279.76 897.345 279.72 898.092 279.64C898.838 279.533 899.532 279.4 900.172 279.24C900.812 279.053 901.438 278.853 902.052 278.64H902.812C902.812 279.307 902.812 279.987 902.812 280.68C902.812 281.347 902.812 282.027 902.812 282.72C902.812 282.773 902.798 282.827 902.772 282.88C902.745 282.933 902.705 282.987 902.652 283.04C902.438 283.253 901.958 283.467 901.212 283.68C900.492 283.893 899.612 284.08 898.572 284.24C897.558 284.4 896.518 284.48 895.452 284.48C893.718 284.48 892.185 284.28 890.852 283.88C889.545 283.453 888.452 282.853 887.572 282.08C886.718 281.307 886.065 280.373 885.612 279.28C885.185 278.16 884.972 276.907 884.972 275.52V270.96C884.972 269.6 885.185 268.373 885.612 267.28C886.065 266.187 886.705 265.253 887.532 264.48C888.358 263.68 889.345 263.067 890.492 262.64C891.638 262.213 892.918 262 894.332 262Z"></path>
<path fill="#E74C3C" d="M868.467 263.52H881.107C881.213 263.52 881.293 263.547 881.347 263.6C881.4 263.627 881.44 263.667 881.467 263.72C881.52 263.773 881.547 263.853 881.547 263.96C881.547 264.707 881.547 265.413 881.547 266.08C881.547 266.747 881.547 267.467 881.547 268.24H868.907C868.827 268.24 868.747 268.227 868.667 268.2C868.613 268.147 868.56 268.093 868.507 268.04C868.48 267.96 868.467 267.88 868.467 267.8C868.467 267.027 868.467 266.307 868.467 265.64C868.467 264.973 868.467 264.267 868.467 263.52ZM876.467 283.56C876.467 283.667 876.427 283.773 876.347 283.88C876.267 283.96 876.16 284 876.027 284C875.173 284 874.347 284 873.547 284C872.747 284 871.907 284 871.027 284C871.027 283.333 871.027 282.667 871.027 282C871.027 281.333 871.027 280.667 871.027 280C871.027 278.293 871.027 276.693 871.027 275.2C871.027 273.68 871.027 272.2 871.027 270.76C871.027 269.293 871.027 267.787 871.027 266.24C871.027 264.667 871.027 262.96 871.027 261.12C871.027 259.92 871.2 258.84 871.547 257.88C871.893 256.893 872.387 256.067 873.027 255.4C873.667 254.707 874.453 254.173 875.387 253.8C876.347 253.427 877.427 253.24 878.627 253.24C879.347 253.24 879.987 253.293 880.547 253.4C881.107 253.48 881.573 253.587 881.947 253.72C882.32 253.853 882.573 253.973 882.707 254.08C882.76 254.107 882.787 254.16 882.787 254.24C882.813 254.293 882.827 254.347 882.827 254.4C882.827 255.093 882.827 255.8 882.827 256.52C882.827 257.213 882.827 257.907 882.827 258.6H882.067C881.747 258.467 881.427 258.36 881.107 258.28C880.813 258.173 880.507 258.093 880.187 258.04C879.867 257.987 879.533 257.96 879.187 257.96C878.84 257.96 878.493 258.013 878.147 258.12C877.8 258.227 877.493 258.387 877.227 258.6C876.96 258.867 876.76 259.2 876.627 259.6C876.52 259.973 876.467 260.493 876.467 261.16C876.467 262.413 876.467 263.813 876.467 265.36C876.467 266.88 876.467 268.467 876.467 270.12C876.467 271.773 876.467 273.413 876.467 275.04C876.467 276.667 876.467 278.213 876.467 279.68C876.467 281.12 876.467 282.413 876.467 283.56Z"></path>
<path fill="#E74C3C" d="M855.922 262C857.736 262 859.309 262.373 860.642 263.12C862.002 263.867 863.056 264.907 863.802 266.24C864.549 267.573 864.922 269.133 864.922 270.92V274.24C864.922 274.32 864.909 274.4 864.882 274.48C864.856 274.533 864.802 274.573 864.722 274.6C864.669 274.627 864.602 274.64 864.522 274.64H855.322C854.869 274.64 854.402 274.64 853.922 274.64C853.469 274.64 853.016 274.64 852.562 274.64H850.922L850.802 271.28H859.682C859.682 271.173 859.682 271.08 859.682 271C859.682 270.92 859.682 270.827 859.682 270.72C859.682 269.947 859.602 269.293 859.442 268.76C859.282 268.2 859.029 267.76 858.682 267.44C858.389 267.12 858.016 266.893 857.562 266.76C857.109 266.627 856.562 266.56 855.922 266.56C854.589 266.56 853.589 266.893 852.922 267.56C852.282 268.2 851.962 269.253 851.962 270.72V275.6C851.962 276.24 852.042 276.813 852.202 277.32C852.389 277.8 852.642 278.213 852.962 278.56C853.389 278.987 853.949 279.293 854.642 279.48C855.362 279.667 856.189 279.76 857.122 279.76C858.082 279.76 858.936 279.72 859.682 279.64C860.429 279.533 861.122 279.4 861.762 279.24C862.402 279.053 863.029 278.853 863.642 278.64H864.402C864.402 279.307 864.402 279.987 864.402 280.68C864.402 281.347 864.402 282.027 864.402 282.72C864.402 282.773 864.389 282.827 864.362 282.88C864.336 282.933 864.296 282.987 864.242 283.04C864.029 283.253 863.549 283.467 862.802 283.68C862.082 283.893 861.202 284.08 860.162 284.24C859.149 284.4 858.109 284.48 857.042 284.48C855.309 284.48 853.776 284.28 852.442 283.88C851.136 283.453 850.042 282.853 849.162 282.08C848.309 281.307 847.655 280.373 847.202 279.28C846.775 278.16 846.562 276.907 846.562 275.52V270.96C846.562 269.6 846.775 268.373 847.202 267.28C847.655 266.187 848.296 265.253 849.122 264.48C849.949 263.68 850.935 263.067 852.082 262.64C853.229 262.213 854.509 262 855.922 262Z"></path>
<path fill="#E74C3C" d="M842.107 274.44C842.107 275.96 841.88 277.32 841.427 278.52C841 279.693 840.36 280.693 839.507 281.52C838.653 282.32 837.627 282.933 836.427 283.36C835.253 283.787 833.933 284 832.467 284C831.853 284 831.133 284 830.307 284C829.48 284 828.627 284 827.747 284C826.867 284 826.027 284 825.227 284C824.427 284 823.733 284 823.147 284C822.56 284 822.187 284 822.027 284C821.893 284 821.787 283.96 821.707 283.88C821.627 283.8 821.587 283.693 821.587 283.56C821.587 281.507 821.587 279.453 821.587 277.4C821.587 275.32 821.587 273.253 821.587 271.2C821.587 269.12 821.587 267.053 821.587 265C821.587 262.92 821.587 260.853 821.587 258.8H827.707L827.347 259.68C827.347 260.4 827.347 261.187 827.347 262.04C827.347 262.867 827.347 263.627 827.347 264.32C827.347 265.6 827.347 266.84 827.347 268.04C827.347 269.24 827.347 270.427 827.347 271.6C827.347 272.773 827.347 273.96 827.347 275.16C827.347 276.36 827.347 277.6 827.347 278.88C827.667 278.88 828.147 278.88 828.787 278.88C829.427 278.88 830.08 278.88 830.747 278.88C831.413 278.88 831.947 278.88 832.347 278.88C833.413 278.88 834.253 278.693 834.867 278.32C835.507 277.947 835.973 277.4 836.267 276.68C836.56 275.96 836.707 275.107 836.707 274.12V265.88C836.707 265.267 836.667 264.72 836.587 264.24C836.507 263.76 836.373 263.347 836.187 263C836.027 262.627 835.827 262.307 835.587 262.04C835.347 261.827 835.067 261.653 834.747 261.52C834.427 261.387 834.067 261.293 833.667 261.24C833.293 261.16 832.827 261.12 832.267 261.12C831.44 261.12 830.493 261.12 829.427 261.12C828.36 261.12 827.253 261.12 826.107 261.12C824.987 261.12 823.907 261.12 822.867 261.12C821.827 261.12 820.893 261.12 820.067 261.12C819.987 261.12 819.907 261.107 819.827 261.08C819.773 261.027 819.72 260.973 819.667 260.92C819.64 260.84 819.627 260.76 819.627 260.68C819.627 259.96 819.627 259.187 819.627 258.36C819.627 257.507 819.627 256.72 819.627 256C820.453 256 821.387 256 822.427 256C823.493 256 824.6 256 825.747 256C826.893 256 828 256 829.067 256C830.16 256 831.147 256 832.027 256C833.813 256 835.347 256.227 836.627 256.68C837.907 257.107 838.947 257.747 839.747 258.6C840.573 259.427 841.173 260.427 841.547 261.6C841.92 262.747 842.107 264.053 842.107 265.52V274.44Z"></path>
<path fill="#E74C3C" d="M797.667 266.32H799.267C799.587 265.333 799.96 264.533 800.387 263.92C800.813 263.28 801.333 262.813 801.947 262.52C802.587 262.227 803.307 262.08 804.107 262.08C804.533 262.08 804.88 262.12 805.147 262.2C805.44 262.28 805.64 262.36 805.747 262.44C805.853 262.52 805.92 262.6 805.947 262.68C805.973 262.733 805.987 262.827 805.987 262.96C805.987 263.387 805.987 263.813 805.987 264.24C805.987 264.64 805.987 265.04 805.987 265.44C805.987 265.84 805.987 266.253 805.987 266.68C805.987 267.08 805.987 267.493 805.987 267.92H805.227C804.96 267.84 804.667 267.773 804.347 267.72C804.027 267.667 803.667 267.64 803.267 267.64C802.44 267.64 801.707 267.8 801.067 268.12C800.453 268.44 799.88 268.893 799.347 269.48C798.813 270.04 798.253 270.707 797.667 271.48V266.32ZM798.427 284C797.84 284 797.24 284 796.627 284C796.04 284 795.453 284 794.867 284C794.28 284 793.693 284 793.107 284C793.027 284 792.96 284 792.907 284C792.853 283.973 792.8 283.947 792.747 283.92C792.72 283.867 792.693 283.813 792.667 283.76C792.667 283.707 792.667 283.64 792.667 283.56C792.667 282.573 792.667 281.533 792.667 280.44C792.667 279.32 792.667 278.173 792.667 277C792.667 275.827 792.667 274.653 792.667 273.48C792.667 272.28 792.667 271.093 792.667 269.92C792.667 268.72 792.667 267.547 792.667 266.4C792.667 265.653 792.667 264.947 792.667 264.28C792.667 263.613 792.667 263.013 792.667 262.48C793.333 262.48 793.96 262.48 794.547 262.48C795.16 262.48 795.747 262.48 796.307 262.48C796.893 262.48 797.453 262.48 797.987 262.48C798.093 262.48 798.173 262.507 798.227 262.56C798.28 262.587 798.32 262.627 798.347 262.68C798.4 262.733 798.427 262.813 798.427 262.92C798.427 264.147 798.427 265.44 798.427 266.8C798.427 268.16 798.427 269.547 798.427 270.96C798.427 272.373 798.427 273.827 798.427 275.32C798.427 276.787 798.427 278.253 798.427 279.72C798.427 281.16 798.427 282.587 798.427 284Z"></path>
<path fill="#E74C3C" d="M778.322 262C780.135 262 781.709 262.373 783.042 263.12C784.402 263.867 785.455 264.907 786.202 266.24C786.949 267.573 787.322 269.133 787.322 270.92V274.24C787.322 274.32 787.309 274.4 787.282 274.48C787.256 274.533 787.202 274.573 787.122 274.6C787.069 274.627 787.002 274.64 786.922 274.64H777.722C777.269 274.64 776.802 274.64 776.322 274.64C775.869 274.64 775.415 274.64 774.962 274.64H773.322L773.202 271.28H782.082C782.082 271.173 782.082 271.08 782.082 271C782.082 270.92 782.082 270.827 782.082 270.72C782.082 269.947 782.002 269.293 781.842 268.76C781.682 268.2 781.429 267.76 781.082 267.44C780.789 267.12 780.415 266.893 779.962 266.76C779.509 266.627 778.962 266.56 778.322 266.56C776.989 266.56 775.989 266.893 775.322 267.56C774.682 268.2 774.362 269.253 774.362 270.72V275.6C774.362 276.24 774.442 276.813 774.602 277.32C774.789 277.8 775.042 278.213 775.362 278.56C775.789 278.987 776.349 279.293 777.042 279.48C777.762 279.667 778.589 279.76 779.522 279.76C780.482 279.76 781.335 279.72 782.082 279.64C782.829 279.533 783.522 279.4 784.162 279.24C784.802 279.053 785.429 278.853 786.042 278.64H786.802C786.802 279.307 786.802 279.987 786.802 280.68C786.802 281.347 786.802 282.027 786.802 282.72C786.802 282.773 786.789 282.827 786.762 282.88C786.736 282.933 786.696 282.987 786.642 283.04C786.429 283.253 785.949 283.467 785.202 283.68C784.482 283.893 783.602 284.08 782.562 284.24C781.549 284.4 780.509 284.48 779.442 284.48C777.709 284.48 776.175 284.28 774.842 283.88C773.535 283.453 772.442 282.853 771.562 282.08C770.709 281.307 770.056 280.373 769.602 279.28C769.176 278.16 768.962 276.907 768.962 275.52V270.96C768.962 269.6 769.176 268.373 769.602 267.28C770.056 266.187 770.696 265.253 771.522 264.48C772.349 263.68 773.336 263.067 774.482 262.64C775.629 262.213 776.909 262 778.322 262Z"></path>
<path fill="#E74C3C" d="M749.858 284C749.591 284 749.231 284 748.778 284C748.324 284 747.871 284 747.418 284C746.965 284 746.604 284 746.338 284C746.258 284 746.178 283.987 746.098 283.96C746.044 283.907 745.991 283.853 745.938 283.8C745.911 283.747 745.898 283.667 745.898 283.56C745.898 281.56 745.898 279.573 745.898 277.6C745.898 275.6 745.898 273.6 745.898 271.6C745.898 269.6 745.898 267.6 745.898 265.6C745.898 263.6 745.898 261.6 745.898 259.6C745.898 258.667 745.898 257.733 745.898 256.8C745.898 255.867 745.898 254.933 745.898 254C746.324 254 746.738 254 747.138 254C747.538 254 747.951 254 748.378 254C748.804 254 749.218 254 749.618 254C750.018 254 750.431 254 750.858 254C750.964 254 751.044 254.027 751.098 254.08C751.151 254.107 751.191 254.147 751.218 254.2C751.271 254.253 751.298 254.333 751.298 254.44C751.298 256.573 751.298 258.693 751.298 260.8C751.298 262.907 751.298 265.013 751.298 267.12C751.298 269.2 751.298 271.293 751.298 273.4C751.298 275.507 751.298 277.627 751.298 279.76C751.298 279.76 751.244 279.907 751.138 280.2C751.058 280.493 750.938 280.853 750.778 281.28C750.644 281.68 750.511 282.093 750.378 282.52C750.244 282.947 750.124 283.307 750.018 283.6C749.911 283.867 749.858 284 749.858 284ZM750.058 280.68L750.698 276.24C751.498 277.227 752.378 277.96 753.338 278.44C754.324 278.92 755.244 279.16 756.098 279.16C756.764 279.16 757.311 279.027 757.738 278.76C758.191 278.493 758.538 278.107 758.778 277.6C759.018 277.067 759.138 276.427 759.138 275.68V270.68C759.138 270.04 759.058 269.507 758.898 269.08C758.764 268.627 758.565 268.267 758.298 268C758.058 267.76 757.751 267.573 757.378 267.44C757.004 267.307 756.578 267.24 756.098 267.24C755.538 267.24 754.938 267.373 754.298 267.64C753.685 267.907 753.071 268.293 752.458 268.8C751.871 269.307 751.338 269.92 750.858 270.64V265.68H751.978C752.404 264.907 752.925 264.253 753.538 263.72C754.151 263.16 754.818 262.733 755.538 262.44C756.285 262.147 757.071 262 757.898 262C758.911 262 759.818 262.173 760.618 262.52C761.444 262.867 762.138 263.387 762.698 264.08C763.284 264.747 763.738 265.56 764.058 266.52C764.378 267.48 764.538 268.573 764.538 269.8V276.56C764.538 277.813 764.378 278.92 764.058 279.88C763.738 280.84 763.284 281.667 762.698 282.36C762.138 283.027 761.444 283.533 760.618 283.88C759.818 284.227 758.911 284.4 757.898 284.4C757.071 284.4 756.271 284.253 755.498 283.96C754.724 283.667 754.018 283.253 753.378 282.72C752.764 282.16 752.204 281.48 751.698 280.68H750.058Z"></path>
<path fill="#E74C3C" d="M741.353 262.48C741.487 262.48 741.607 262.533 741.713 262.64C741.847 262.747 741.887 262.907 741.833 263.12C741.327 265.067 740.833 266.92 740.353 268.68C739.9 270.44 739.433 272.213 738.953 274C738.5 275.76 738.033 277.587 737.553 279.48C737.073 281.373 736.553 283.413 735.993 285.6C735.647 287.067 735.14 288.267 734.473 289.2C733.833 290.16 733.02 290.867 732.033 291.32C731.047 291.773 729.833 292 728.393 292C728.047 292 727.633 292 727.153 292C726.7 292 726.247 292 725.793 292C725.367 292 724.993 292 724.673 292C724.353 292 724.153 292 724.073 292C723.94 292 723.833 291.96 723.753 291.88C723.673 291.8 723.633 291.693 723.633 291.56V287.28H724.393C724.953 287.28 725.513 287.28 726.073 287.28C726.633 287.28 727.193 287.28 727.753 287.28C728.66 287.28 729.393 287.053 729.953 286.6C730.513 286.173 730.9 285.48 731.113 284.52C731.3 283.853 731.527 282.933 731.793 281.76C732.087 280.56 732.407 279.187 732.753 277.64C733.127 276.093 733.513 274.467 733.913 272.76C734.313 271.027 734.713 269.28 735.113 267.52C735.54 265.76 735.94 264.08 736.313 262.48C736.687 262.48 737.073 262.48 737.473 262.48C737.9 262.48 738.313 262.48 738.713 262.48C739.14 262.48 739.567 262.48 739.993 262.48C740.447 262.48 740.9 262.48 741.353 262.48ZM726.393 262.48C726.66 262.48 726.847 262.52 726.953 262.6C727.06 262.68 727.14 262.827 727.193 263.04C727.7 264.907 728.14 266.52 728.513 267.88C728.887 269.213 729.22 270.387 729.513 271.4C729.807 272.387 730.06 273.293 730.273 274.12C730.487 274.947 730.7 275.773 730.913 276.6C731.153 277.4 731.38 278.293 731.593 279.28H733.993L733.073 282.64H728.753C728.513 282.64 728.3 282.613 728.113 282.56C727.953 282.507 727.82 282.4 727.713 282.24C727.607 282.053 727.487 281.8 727.353 281.48C727.22 281.107 726.993 280.453 726.673 279.52C726.353 278.56 725.967 277.4 725.513 276.04C725.06 274.68 724.58 273.227 724.073 271.68C723.567 270.107 723.06 268.533 722.553 266.96C722.047 265.387 721.58 263.893 721.153 262.48C721.553 262.48 721.967 262.48 722.393 262.48C722.847 262.48 723.287 262.48 723.713 262.48C724.14 262.48 724.58 262.48 725.033 262.48C725.487 262.48 725.94 262.48 726.393 262.48Z"></path>
<path fill="#E74C3C" d="M710.12 284.8C708.2 284.8 706.52 284.547 705.08 284.04C703.64 283.56 702.44 282.853 701.48 281.92C700.52 280.987 699.8 279.84 699.32 278.48C698.866 277.12 698.64 275.573 698.64 273.84V265.76C698.64 264.187 698.88 262.76 699.36 261.48C699.84 260.173 700.546 259.053 701.48 258.12C702.44 257.187 703.6 256.467 704.96 255.96C706.346 255.453 707.92 255.2 709.68 255.2C711.04 255.2 712.253 255.333 713.32 255.6C714.413 255.84 715.333 256.16 716.08 256.56C716.853 256.933 717.453 257.333 717.88 257.76C717.933 257.813 717.973 257.88 718 257.96C718.026 258.04 718.04 258.12 718.04 258.2C718.066 258.28 718.08 258.36 718.08 258.44C718.08 259.427 718.08 260.56 718.08 261.84C718.08 263.093 718.08 264.293 718.08 265.44C717.306 265.44 716.533 265.44 715.76 265.44C714.986 265.44 714.213 265.44 713.44 265.44C713.306 265.44 713.2 265.4 713.12 265.32C713.04 265.24 713 265.133 713 265C713 264.52 713 264.04 713 263.56C713 263.08 713 262.547 713 261.96C713 261.347 713 260.64 713 259.84L714.12 261.52C713.453 261.093 712.76 260.8 712.04 260.64C711.32 260.453 710.506 260.36 709.6 260.36C708.533 260.36 707.6 260.56 706.8 260.96C706.026 261.333 705.426 261.933 705 262.76C704.6 263.587 704.4 264.64 704.4 265.92V273.4C704.4 274.6 704.506 275.613 704.72 276.44C704.96 277.24 705.346 277.907 705.88 278.44C706.36 278.92 706.96 279.267 707.68 279.48C708.426 279.667 709.253 279.76 710.16 279.76C711.626 279.76 712.92 279.587 714.04 279.24C715.16 278.893 716.333 278.333 717.56 277.56H718.32C718.32 277.933 718.32 278.307 718.32 278.68C718.32 279.027 718.32 279.387 718.32 279.76C718.32 280.107 718.32 280.467 718.32 280.84C718.32 281.187 718.32 281.56 718.32 281.96C718.32 282.093 718.293 282.213 718.24 282.32C718.213 282.427 718.16 282.507 718.08 282.56C717.706 282.96 717.133 283.333 716.36 283.68C715.586 284 714.666 284.267 713.6 284.48C712.533 284.693 711.373 284.8 710.12 284.8Z"></path>
<path fill="#E74C3C" d="M683.583 262.48C683.716 262.48 683.836 262.533 683.943 262.64C684.076 262.747 684.116 262.907 684.063 263.12C683.556 265.067 683.063 266.92 682.583 268.68C682.13 270.44 681.663 272.213 681.183 274C680.73 275.76 680.263 277.587 679.783 279.48C679.303 281.373 678.783 283.413 678.223 285.6C677.876 287.067 677.37 288.267 676.703 289.2C676.063 290.16 675.25 290.867 674.263 291.32C673.276 291.773 672.063 292 670.623 292C670.277 292 669.863 292 669.383 292C668.93 292 668.476 292 668.023 292C667.596 292 667.223 292 666.903 292C666.583 292 666.383 292 666.303 292C666.17 292 666.063 291.96 665.983 291.88C665.903 291.8 665.863 291.693 665.863 291.56V287.28H666.623C667.183 287.28 667.743 287.28 668.303 287.28C668.863 287.28 669.423 287.28 669.983 287.28C670.89 287.28 671.623 287.053 672.183 286.6C672.743 286.173 673.13 285.48 673.343 284.52C673.53 283.853 673.756 282.933 674.023 281.76C674.316 280.56 674.636 279.187 674.983 277.64C675.356 276.093 675.743 274.467 676.143 272.76C676.543 271.027 676.943 269.28 677.343 267.52C677.77 265.76 678.17 264.08 678.543 262.48C678.916 262.48 679.303 262.48 679.703 262.48C680.13 262.48 680.543 262.48 680.943 262.48C681.37 262.48 681.796 262.48 682.223 262.48C682.676 262.48 683.13 262.48 683.583 262.48ZM668.623 262.48C668.89 262.48 669.076 262.52 669.183 262.6C669.29 262.68 669.37 262.827 669.423 263.04C669.93 264.907 670.37 266.52 670.743 267.88C671.116 269.213 671.45 270.387 671.743 271.4C672.036 272.387 672.29 273.293 672.503 274.12C672.716 274.947 672.93 275.773 673.143 276.6C673.383 277.4 673.61 278.293 673.823 279.28H676.223L675.303 282.64H670.983C670.743 282.64 670.53 282.613 670.343 282.56C670.183 282.507 670.05 282.4 669.943 282.24C669.836 282.053 669.716 281.8 669.583 281.48C669.45 281.107 669.223 280.453 668.903 279.52C668.583 278.56 668.196 277.4 667.743 276.04C667.29 274.68 666.81 273.227 666.303 271.68C665.796 270.107 665.29 268.533 664.783 266.96C664.276 265.387 663.81 263.893 663.383 262.48C663.783 262.48 664.197 262.48 664.623 262.48C665.077 262.48 665.516 262.48 665.943 262.48C666.37 262.48 666.81 262.48 667.263 262.48C667.716 262.48 668.17 262.48 668.623 262.48Z"></path>
<path fill="#E74C3C" d="M643.943 262.48H659.383C659.543 262.48 659.663 262.52 659.743 262.6C659.823 262.68 659.863 262.787 659.863 262.92C659.863 263.48 659.863 264 659.863 264.48C659.863 264.96 659.863 265.453 659.863 265.96C659.863 266.467 659.863 266.987 659.863 267.52H644.423C644.37 267.52 644.316 267.507 644.263 267.48C644.21 267.453 644.156 267.427 644.103 267.4C644.05 267.347 644.01 267.293 643.983 267.24C643.956 267.187 643.943 267.133 643.943 267.08C643.943 266.547 643.943 266.027 643.943 265.52C643.943 265.013 643.943 264.52 643.943 264.04C643.943 263.56 643.943 263.04 643.943 262.48ZM659.863 278.84C659.863 279.64 659.863 280.44 659.863 281.24C659.863 282.013 659.863 282.787 659.863 283.56C659.863 283.667 659.823 283.773 659.743 283.88C659.663 283.96 659.556 284 659.423 284C659.156 284 658.876 284 658.583 284C658.316 284 658.036 284 657.743 284C657.476 284 657.21 284 656.943 284C656.676 284 656.396 284 656.103 284C654.716 284 653.476 283.84 652.383 283.52C651.29 283.173 650.356 282.653 649.583 281.96C648.81 281.267 648.223 280.373 647.823 279.28C647.423 278.187 647.223 276.893 647.223 275.4C647.223 274.093 647.223 272.8 647.223 271.52C647.223 270.24 647.223 268.96 647.223 267.68C647.223 266.4 647.223 265.12 647.223 263.84C647.223 262.56 647.223 261.28 647.223 260C647.223 259.307 647.223 258.64 647.223 258C647.223 257.333 647.223 256.667 647.223 256C648.05 256 648.876 256 649.703 256C650.556 256 651.383 256 652.183 256C652.263 256 652.33 256.027 652.383 256.08C652.463 256.107 652.516 256.16 652.543 256.24C652.596 256.293 652.623 256.36 652.623 256.44C652.623 257.987 652.623 259.533 652.623 261.08C652.623 262.6 652.623 264.133 652.623 265.68C652.623 267.227 652.623 268.773 652.623 270.32C652.623 271.84 652.623 273.373 652.623 274.92C652.623 275.72 652.703 276.373 652.863 276.88C653.023 277.387 653.263 277.8 653.583 278.12C653.876 278.387 654.236 278.573 654.663 278.68C655.116 278.787 655.663 278.84 656.303 278.84C656.65 278.84 656.983 278.84 657.303 278.84C657.65 278.84 657.996 278.84 658.343 278.84C658.69 278.84 659.036 278.84 659.383 278.84H659.863Z"></path>
<path fill="#E74C3C" d="M633.839 283.56C633.839 282.84 633.839 281.947 633.839 280.88C633.839 279.787 633.839 278.613 633.839 277.36C633.839 276.107 633.839 274.853 633.839 273.6C633.839 272.347 633.839 271.173 633.839 270.08C633.839 268.987 633.839 268.067 633.839 267.32H633.559C633.399 267.32 633.212 267.32 632.999 267.32C632.812 267.32 632.599 267.32 632.359 267.32C632.145 267.32 631.919 267.32 631.679 267.32C631.465 267.32 631.252 267.32 631.039 267.32C630.905 267.32 630.799 267.28 630.719 267.2C630.639 267.12 630.599 267.013 630.599 266.88C630.599 266.16 630.599 265.427 630.599 264.68C630.599 263.933 630.599 263.2 630.599 262.48C631.052 262.48 631.559 262.48 632.119 262.48C632.705 262.48 633.319 262.48 633.959 262.48C634.599 262.48 635.225 262.48 635.839 262.48C636.452 262.48 637.012 262.48 637.519 262.48C638.052 262.48 638.479 262.48 638.799 262.48C638.905 262.48 638.985 262.507 639.039 262.56C639.092 262.587 639.132 262.627 639.159 262.68C639.212 262.733 639.239 262.813 639.239 262.92C639.239 264.173 639.239 265.547 639.239 267.04C639.239 268.507 639.239 270 639.239 271.52C639.239 273.04 639.239 274.533 639.239 276C639.239 277.467 639.239 278.84 639.239 280.12C639.239 280.52 639.239 280.947 639.239 281.4C639.239 281.827 639.239 282.253 639.239 282.68C639.239 283.107 639.239 283.547 639.239 284C638.359 284 637.532 284 636.759 284C636.012 284 635.185 284 634.279 284C634.145 284 634.039 283.96 633.959 283.88C633.879 283.8 633.839 283.693 633.839 283.56ZM632.879 252.24C633.385 252.24 633.905 252.24 634.439 252.24C634.999 252.24 635.559 252.24 636.119 252.24C636.705 252.24 637.265 252.24 637.799 252.24C638.359 252.24 638.892 252.24 639.399 252.24C639.532 252.24 639.639 252.28 639.719 252.36C639.799 252.44 639.839 252.547 639.839 252.68V257.84C639.332 257.84 638.799 257.84 638.239 257.84C637.705 257.84 637.145 257.84 636.559 257.84C635.999 257.84 635.439 257.84 634.879 257.84C634.345 257.84 633.825 257.84 633.319 257.84C633.185 257.84 633.079 257.8 632.999 257.72C632.919 257.64 632.879 257.533 632.879 257.4V252.24Z"></path>
<path fill="#E74C3C" d="M618.247 279.16C619.847 279.16 620.94 278.987 621.527 278.64C622.113 278.267 622.407 277.84 622.407 277.36C622.407 277.067 622.327 276.8 622.167 276.56C622.033 276.32 621.78 276.12 621.407 275.96C621.06 275.773 620.553 275.627 619.887 275.52L615.767 274.92C614.487 274.707 613.42 274.347 612.567 273.84C611.713 273.307 611.073 272.64 610.647 271.84C610.247 271.04 610.047 270.147 610.047 269.16C610.047 268.04 610.26 267.053 610.687 266.2C611.14 265.32 611.793 264.573 612.647 263.96C613.5 263.347 614.553 262.88 615.807 262.56C617.06 262.24 618.487 262.08 620.087 262.08C620.94 262.08 621.727 262.12 622.447 262.2C623.167 262.253 623.82 262.333 624.407 262.44C624.993 262.547 625.513 262.667 625.967 262.8C626.153 262.853 626.287 262.92 626.367 263C626.473 263.053 626.527 263.133 626.527 263.24C626.553 263.347 626.567 263.507 626.567 263.72C626.567 264.28 626.567 264.987 626.567 265.84C626.567 266.667 626.567 267.44 626.567 268.16H625.847C625.127 267.973 624.433 267.813 623.767 267.68C623.1 267.547 622.42 267.453 621.727 267.4C621.033 267.347 620.3 267.32 619.527 267.32C618.46 267.32 617.62 267.4 617.007 267.56C616.42 267.693 616.007 267.88 615.767 268.12C615.527 268.36 615.407 268.64 615.407 268.96C615.407 269.253 615.473 269.52 615.607 269.76C615.767 269.973 616.02 270.147 616.367 270.28C616.713 270.413 617.193 270.533 617.807 270.64L621.567 271.2C622.873 271.36 623.98 271.707 624.887 272.24C625.793 272.747 626.487 273.427 626.967 274.28C627.473 275.107 627.727 276.107 627.727 277.28C627.727 278.72 627.353 279.973 626.607 281.04C625.887 282.107 624.82 282.933 623.407 283.52C621.993 284.107 620.26 284.4 618.207 284.4C617.247 284.4 616.353 284.36 615.527 284.28C614.7 284.227 613.927 284.133 613.207 284C612.513 283.893 611.887 283.76 611.327 283.6C610.767 283.44 610.287 283.267 609.887 283.08C609.727 283.027 609.62 282.96 609.567 282.88C609.54 282.8 609.527 282.653 609.527 282.44C609.527 281.827 609.527 281.093 609.527 280.24C609.527 279.387 609.527 278.56 609.527 277.76H610.247C610.887 278.027 611.5 278.253 612.087 278.44C612.7 278.6 613.313 278.733 613.927 278.84C614.567 278.947 615.233 279.027 615.927 279.08C616.647 279.133 617.42 279.16 618.247 279.16Z"></path>
<path fill="#E74C3C" d="M598.549 266.32H600.149C600.469 265.333 600.843 264.533 601.269 263.92C601.696 263.28 602.216 262.813 602.829 262.52C603.469 262.227 604.189 262.08 604.989 262.08C605.416 262.08 605.763 262.12 606.029 262.2C606.323 262.28 606.523 262.36 606.629 262.44C606.736 262.52 606.803 262.6 606.829 262.68C606.856 262.733 606.869 262.827 606.869 262.96C606.869 263.387 606.869 263.813 606.869 264.24C606.869 264.64 606.869 265.04 606.869 265.44C606.869 265.84 606.869 266.253 606.869 266.68C606.869 267.08 606.869 267.493 606.869 267.92H606.109C605.843 267.84 605.549 267.773 605.229 267.72C604.909 267.667 604.549 267.64 604.149 267.64C603.323 267.64 602.589 267.8 601.949 268.12C601.336 268.44 600.763 268.893 600.229 269.48C599.696 270.04 599.136 270.707 598.549 271.48V266.32ZM599.309 284C598.723 284 598.123 284 597.509 284C596.923 284 596.336 284 595.749 284C595.163 284 594.576 284 593.989 284C593.909 284 593.843 284 593.789 284C593.736 283.973 593.683 283.947 593.629 283.92C593.603 283.867 593.576 283.813 593.549 283.76C593.549 283.707 593.549 283.64 593.549 283.56C593.549 282.573 593.549 281.533 593.549 280.44C593.549 279.32 593.549 278.173 593.549 277C593.549 275.827 593.549 274.653 593.549 273.48C593.549 272.28 593.549 271.093 593.549 269.92C593.549 268.72 593.549 267.547 593.549 266.4C593.549 265.653 593.549 264.947 593.549 264.28C593.549 263.613 593.549 263.013 593.549 262.48C594.216 262.48 594.843 262.48 595.429 262.48C596.043 262.48 596.629 262.48 597.189 262.48C597.776 262.48 598.336 262.48 598.869 262.48C598.976 262.48 599.056 262.507 599.109 262.56C599.163 262.587 599.203 262.627 599.229 262.68C599.283 262.733 599.309 262.813 599.309 262.92C599.309 264.147 599.309 265.44 599.309 266.8C599.309 268.16 599.309 269.547 599.309 270.96C599.309 272.373 599.309 273.827 599.309 275.32C599.309 276.787 599.309 278.253 599.309 279.72C599.309 281.16 599.309 282.587 599.309 284Z"></path>
<path fill="#E74C3C" d="M579.205 262C581.018 262 582.592 262.373 583.925 263.12C585.285 263.867 586.338 264.907 587.085 266.24C587.832 267.573 588.205 269.133 588.205 270.92V274.24C588.205 274.32 588.192 274.4 588.165 274.48C588.138 274.533 588.085 274.573 588.005 274.6C587.952 274.627 587.885 274.64 587.805 274.64H578.605C578.152 274.64 577.685 274.64 577.205 274.64C576.752 274.64 576.298 274.64 575.845 274.64H574.205L574.085 271.28H582.965C582.965 271.173 582.965 271.08 582.965 271C582.965 270.92 582.965 270.827 582.965 270.72C582.965 269.947 582.885 269.293 582.725 268.76C582.565 268.2 582.312 267.76 581.965 267.44C581.672 267.12 581.298 266.893 580.845 266.76C580.392 266.627 579.845 266.56 579.205 266.56C577.872 266.56 576.872 266.893 576.205 267.56C575.565 268.2 575.245 269.253 575.245 270.72V275.6C575.245 276.24 575.325 276.813 575.485 277.32C575.672 277.8 575.925 278.213 576.245 278.56C576.672 278.987 577.232 279.293 577.925 279.48C578.645 279.667 579.472 279.76 580.405 279.76C581.365 279.76 582.218 279.72 582.965 279.64C583.712 279.533 584.405 279.4 585.045 279.24C585.685 279.053 586.312 278.853 586.925 278.64H587.685C587.685 279.307 587.685 279.987 587.685 280.68C587.685 281.347 587.685 282.027 587.685 282.72C587.685 282.773 587.672 282.827 587.645 282.88C587.618 282.933 587.578 282.987 587.525 283.04C587.312 283.253 586.832 283.467 586.085 283.68C585.365 283.893 584.485 284.08 583.445 284.24C582.432 284.4 581.392 284.48 580.325 284.48C578.592 284.48 577.058 284.28 575.725 283.88C574.418 283.453 573.325 282.853 572.445 282.08C571.592 281.307 570.938 280.373 570.485 279.28C570.058 278.16 569.845 276.907 569.845 275.52V270.96C569.845 269.6 570.058 268.373 570.485 267.28C570.938 266.187 571.578 265.253 572.405 264.48C573.232 263.68 574.218 263.067 575.365 262.64C576.512 262.213 577.792 262 579.205 262Z"></path>
<path fill="#E74C3C" d="M551.362 262.48C551.495 262.48 551.589 262.507 551.642 262.56C551.722 262.613 551.789 262.68 551.842 262.76C551.922 262.84 551.975 262.947 552.002 263.08C552.455 264.733 552.909 266.413 553.362 268.12C553.842 269.8 554.309 271.613 554.762 273.56C555.242 275.507 555.722 277.693 556.202 280.12H556.962C557.255 278.68 557.549 277.32 557.842 276.04C558.135 274.733 558.429 273.493 558.722 272.32C559.015 271.12 559.295 269.973 559.562 268.88C559.855 267.787 560.135 266.707 560.402 265.64C560.695 264.573 560.975 263.52 561.242 262.48C562.069 262.48 562.895 262.48 563.722 262.48C564.575 262.48 565.429 262.48 566.282 262.48C566.415 262.48 566.522 262.52 566.602 262.6C566.682 262.653 566.735 262.733 566.762 262.84C566.815 262.947 566.815 263.067 566.762 263.2C566.229 264.933 565.695 266.667 565.162 268.4C564.629 270.133 564.095 271.867 563.562 273.6C563.055 275.333 562.535 277.067 562.002 278.8C561.495 280.533 560.962 282.267 560.402 284C559.229 284 558.055 284 556.882 284C555.735 284 554.669 284 553.682 284C553.415 284 553.189 283.96 553.002 283.88C552.815 283.8 552.655 283.653 552.522 283.44C552.415 283.227 552.282 282.893 552.122 282.44C551.775 281.24 551.402 280.013 551.002 278.76C550.629 277.48 550.242 276.173 549.842 274.84C549.442 273.507 549.029 272.16 548.602 270.8C548.202 269.44 547.789 268.067 547.362 266.68C546.935 265.267 546.509 263.867 546.082 262.48C546.989 262.48 547.869 262.48 548.722 262.48C549.602 262.48 550.482 262.48 551.362 262.48Z"></path>
<path fill="#E74C3C" d="M536.839 283.56C536.839 282.84 536.839 281.947 536.839 280.88C536.839 279.787 536.839 278.613 536.839 277.36C536.839 276.107 536.839 274.853 536.839 273.6C536.839 272.347 536.839 271.173 536.839 270.08C536.839 268.987 536.839 268.067 536.839 267.32H536.559C536.399 267.32 536.212 267.32 535.999 267.32C535.812 267.32 535.599 267.32 535.359 267.32C535.145 267.32 534.919 267.32 534.679 267.32C534.465 267.32 534.252 267.32 534.039 267.32C533.905 267.32 533.799 267.28 533.719 267.2C533.639 267.12 533.599 267.013 533.599 266.88C533.599 266.16 533.599 265.427 533.599 264.68C533.599 263.933 533.599 263.2 533.599 262.48C534.052 262.48 534.559 262.48 535.119 262.48C535.705 262.48 536.319 262.48 536.959 262.48C537.599 262.48 538.225 262.48 538.839 262.48C539.452 262.48 540.012 262.48 540.519 262.48C541.052 262.48 541.479 262.48 541.799 262.48C541.905 262.48 541.985 262.507 542.039 262.56C542.092 262.587 542.132 262.627 542.159 262.68C542.212 262.733 542.239 262.813 542.239 262.92C542.239 264.173 542.239 265.547 542.239 267.04C542.239 268.507 542.239 270 542.239 271.52C542.239 273.04 542.239 274.533 542.239 276C542.239 277.467 542.239 278.84 542.239 280.12C542.239 280.52 542.239 280.947 542.239 281.4C542.239 281.827 542.239 282.253 542.239 282.68C542.239 283.107 542.239 283.547 542.239 284C541.359 284 540.532 284 539.759 284C539.012 284 538.185 284 537.279 284C537.145 284 537.039 283.96 536.959 283.88C536.879 283.8 536.839 283.693 536.839 283.56ZM535.879 252.24C536.385 252.24 536.905 252.24 537.439 252.24C537.999 252.24 538.559 252.24 539.119 252.24C539.705 252.24 540.265 252.24 540.799 252.24C541.359 252.24 541.892 252.24 542.399 252.24C542.532 252.24 542.639 252.28 542.719 252.36C542.799 252.44 542.839 252.547 542.839 252.68V257.84C542.332 257.84 541.799 257.84 541.239 257.84C540.705 257.84 540.145 257.84 539.559 257.84C538.999 257.84 538.439 257.84 537.879 257.84C537.345 257.84 536.825 257.84 536.319 257.84C536.185 257.84 536.079 257.8 535.999 257.72C535.919 257.64 535.879 257.533 535.879 257.4V252.24Z"></path>
<path fill="#E74C3C" d="M529.854 284C528.974 284 528.148 284 527.374 284C526.628 284 525.801 284 524.894 284C524.814 284 524.734 283.987 524.654 283.96C524.601 283.907 524.548 283.853 524.494 283.8C524.468 283.747 524.454 283.667 524.454 283.56C524.454 281.987 524.454 280.413 524.454 278.84C524.454 277.24 524.454 275.653 524.454 274.08C524.454 272.507 524.454 270.933 524.454 269.36C524.454 268.64 524.294 268.107 523.974 267.76C523.654 267.413 523.148 267.24 522.454 267.24C522.001 267.24 521.494 267.32 520.934 267.48C520.401 267.613 519.854 267.827 519.294 268.12C518.761 268.387 518.241 268.733 517.734 269.16C517.228 269.587 516.761 270.093 516.334 270.68V265.96H517.734C518.268 265.16 518.854 264.467 519.494 263.88C520.161 263.293 520.881 262.84 521.654 262.52C522.454 262.173 523.308 262 524.214 262C525.068 262 525.841 262.147 526.534 262.44C527.254 262.707 527.854 263.12 528.334 263.68C528.841 264.213 529.214 264.867 529.454 265.64C529.721 266.413 529.854 267.28 529.854 268.24C529.854 269.52 529.854 270.813 529.854 272.12C529.854 273.427 529.854 274.733 529.854 276.04C529.854 277.347 529.854 278.667 529.854 280C529.854 280.667 529.854 281.333 529.854 282C529.854 282.667 529.854 283.333 529.854 284ZM516.974 284C516.388 284 515.828 284 515.294 284C514.788 284 514.254 284 513.694 284C513.161 284 512.601 284 512.014 284C511.934 284 511.868 284 511.814 284C511.761 283.973 511.708 283.947 511.654 283.92C511.628 283.867 511.601 283.813 511.574 283.76C511.574 283.707 511.574 283.64 511.574 283.56C511.574 282.12 511.574 280.693 511.574 279.28C511.574 277.84 511.574 276.413 511.574 275C511.574 273.56 511.574 272.133 511.574 270.72C511.574 269.28 511.574 267.84 511.574 266.4C511.574 265.653 511.574 264.947 511.574 264.28C511.574 263.613 511.574 263.013 511.574 262.48C512.241 262.48 512.841 262.48 513.374 262.48C513.934 262.48 514.468 262.48 514.974 262.48C515.508 262.48 516.028 262.48 516.534 262.48C516.641 262.48 516.721 262.507 516.774 262.56C516.828 262.587 516.868 262.627 516.894 262.68C516.948 262.733 516.974 262.813 516.974 262.92C516.974 265.24 516.974 267.573 516.974 269.92C516.974 272.267 516.974 274.613 516.974 276.96C516.974 279.307 516.974 281.653 516.974 284Z"></path>
<path fill="#E74C3C" d="M505.418 284C504.831 284 504.244 284 503.658 284C503.071 284 502.484 284 501.898 284C501.311 284 500.711 284 500.098 284C500.044 284 499.991 284 499.938 284C499.884 283.973 499.844 283.947 499.818 283.92C499.791 283.893 499.764 283.867 499.738 283.84C499.711 283.813 499.684 283.773 499.658 283.72C499.658 283.667 499.658 283.613 499.658 283.56C499.658 281.267 499.658 278.973 499.658 276.68C499.658 274.387 499.658 272.093 499.658 269.8C499.658 267.48 499.658 265.173 499.658 262.88C499.658 260.587 499.658 258.293 499.658 256C500.271 256 500.858 256 501.418 256C502.004 256 502.591 256 503.178 256C503.791 256 504.391 256 504.978 256C505.058 256 505.124 256.027 505.178 256.08C505.258 256.107 505.311 256.16 505.338 256.24C505.391 256.293 505.418 256.36 505.418 256.44C505.418 258.36 505.418 260.293 505.418 262.24C505.418 264.187 505.418 266.133 505.418 268.08C505.418 270 505.418 271.933 505.418 273.88C505.418 275.8 505.418 277.72 505.418 279.64C505.418 280.44 505.418 281.213 505.418 281.96C505.418 282.68 505.418 283.36 505.418 284ZM491.818 284.44C490.671 284.44 489.684 284.28 488.858 283.96C488.031 283.64 487.351 283.173 486.818 282.56C486.284 281.92 485.884 281.147 485.618 280.24C485.351 279.333 485.218 278.28 485.218 277.08C485.218 275.32 485.218 273.507 485.218 271.64C485.218 269.773 485.218 267.853 485.218 265.88C485.218 263.907 485.218 261.947 485.218 260C485.218 259.333 485.218 258.667 485.218 258C485.218 257.333 485.218 256.667 485.218 256C486.124 256 487.018 256 487.898 256C488.778 256 489.658 256 490.538 256C490.644 256 490.724 256.027 490.778 256.08C490.831 256.107 490.871 256.147 490.898 256.2C490.951 256.253 490.978 256.333 490.978 256.44C490.978 258.68 490.978 260.96 490.978 263.28C490.978 265.6 490.978 267.907 490.978 270.2C490.978 272.467 490.978 274.64 490.978 276.72C490.978 277.68 491.178 278.373 491.578 278.8C491.978 279.2 492.644 279.4 493.578 279.4C494.458 279.4 495.284 279.24 496.057 278.92C496.857 278.573 497.631 278.053 498.378 277.36C499.124 276.64 499.844 275.733 500.538 274.64V280.32H498.858C498.351 281.2 497.751 281.947 497.057 282.56C496.391 283.173 495.618 283.64 494.738 283.96C493.884 284.28 492.911 284.44 491.818 284.44Z"></path>
<path fill="#E74C3C" d="M460.273 279.16C461.873 279.16 462.966 278.987 463.553 278.64C464.14 278.267 464.433 277.84 464.433 277.36C464.433 277.067 464.353 276.8 464.193 276.56C464.06 276.32 463.806 276.12 463.433 275.96C463.086 275.773 462.58 275.627 461.913 275.52L457.793 274.92C456.513 274.707 455.446 274.347 454.593 273.84C453.74 273.307 453.1 272.64 452.673 271.84C452.273 271.04 452.073 270.147 452.073 269.16C452.073 268.04 452.286 267.053 452.713 266.2C453.166 265.32 453.82 264.573 454.673 263.96C455.526 263.347 456.58 262.88 457.833 262.56C459.086 262.24 460.513 262.08 462.113 262.08C462.966 262.08 463.753 262.12 464.473 262.2C465.193 262.253 465.846 262.333 466.433 262.44C467.02 262.547 467.54 262.667 467.993 262.8C468.18 262.853 468.313 262.92 468.393 263C468.5 263.053 468.553 263.133 468.553 263.24C468.58 263.347 468.593 263.507 468.593 263.72C468.593 264.28 468.593 264.987 468.593 265.84C468.593 266.667 468.593 267.44 468.593 268.16H467.873C467.153 267.973 466.46 267.813 465.793 267.68C465.126 267.547 464.446 267.453 463.753 267.4C463.06 267.347 462.326 267.32 461.553 267.32C460.486 267.32 459.646 267.4 459.033 267.56C458.446 267.693 458.033 267.88 457.793 268.12C457.553 268.36 457.433 268.64 457.433 268.96C457.433 269.253 457.5 269.52 457.633 269.76C457.793 269.973 458.046 270.147 458.393 270.28C458.74 270.413 459.22 270.533 459.833 270.64L463.593 271.2C464.9 271.36 466.006 271.707 466.913 272.24C467.82 272.747 468.513 273.427 468.993 274.28C469.5 275.107 469.753 276.107 469.753 277.28C469.753 278.72 469.38 279.973 468.633 281.04C467.913 282.107 466.846 282.933 465.433 283.52C464.02 284.107 462.286 284.4 460.233 284.4C459.273 284.4 458.38 284.36 457.553 284.28C456.726 284.227 455.953 284.133 455.233 284C454.54 283.893 453.913 283.76 453.353 283.6C452.793 283.44 452.313 283.267 451.913 283.08C451.753 283.027 451.646 282.96 451.593 282.88C451.566 282.8 451.553 282.653 451.553 282.44C451.553 281.827 451.553 281.093 451.553 280.24C451.553 279.387 451.553 278.56 451.553 277.76H452.273C452.913 278.027 453.526 278.253 454.113 278.44C454.726 278.6 455.34 278.733 455.953 278.84C456.593 278.947 457.26 279.027 457.953 279.08C458.673 279.133 459.446 279.16 460.273 279.16Z"></path>
<path fill="#E74C3C" d="M441.089 283.56C441.089 282.84 441.089 281.947 441.089 280.88C441.089 279.787 441.089 278.613 441.089 277.36C441.089 276.107 441.089 274.853 441.089 273.6C441.089 272.347 441.089 271.173 441.089 270.08C441.089 268.987 441.089 268.067 441.089 267.32H440.809C440.649 267.32 440.462 267.32 440.249 267.32C440.062 267.32 439.849 267.32 439.609 267.32C439.395 267.32 439.169 267.32 438.929 267.32C438.715 267.32 438.502 267.32 438.289 267.32C438.155 267.32 438.049 267.28 437.969 267.2C437.889 267.12 437.849 267.013 437.849 266.88C437.849 266.16 437.849 265.427 437.849 264.68C437.849 263.933 437.849 263.2 437.849 262.48C438.302 262.48 438.809 262.48 439.369 262.48C439.955 262.48 440.569 262.48 441.209 262.48C441.849 262.48 442.475 262.48 443.089 262.48C443.702 262.48 444.262 262.48 444.769 262.48C445.302 262.48 445.729 262.48 446.049 262.48C446.155 262.48 446.235 262.507 446.289 262.56C446.342 262.587 446.382 262.627 446.409 262.68C446.462 262.733 446.489 262.813 446.489 262.92C446.489 264.173 446.489 265.547 446.489 267.04C446.489 268.507 446.489 270 446.489 271.52C446.489 273.04 446.489 274.533 446.489 276C446.489 277.467 446.489 278.84 446.489 280.12C446.489 280.52 446.489 280.947 446.489 281.4C446.489 281.827 446.489 282.253 446.489 282.68C446.489 283.107 446.489 283.547 446.489 284C445.609 284 444.782 284 444.009 284C443.262 284 442.435 284 441.529 284C441.395 284 441.289 283.96 441.209 283.88C441.129 283.8 441.089 283.693 441.089 283.56ZM440.129 252.24C440.635 252.24 441.155 252.24 441.689 252.24C442.249 252.24 442.809 252.24 443.369 252.24C443.955 252.24 444.515 252.24 445.049 252.24C445.609 252.24 446.142 252.24 446.649 252.24C446.782 252.24 446.889 252.28 446.969 252.36C447.049 252.44 447.089 252.547 447.089 252.68V257.84C446.582 257.84 446.049 257.84 445.489 257.84C444.955 257.84 444.395 257.84 443.809 257.84C443.249 257.84 442.689 257.84 442.129 257.84C441.595 257.84 441.075 257.84 440.569 257.84C440.435 257.84 440.329 257.8 440.249 257.72C440.169 257.64 440.129 257.533 440.129 257.4V252.24Z"></path>
<path fill="#E74C3C" d="M418.057 262.48H423.017C423.097 262.48 423.163 262.493 423.217 262.52C423.297 262.547 423.35 262.587 423.377 262.64C423.43 262.693 423.47 262.787 423.497 262.92C423.897 264.653 424.257 266.24 424.577 267.68C424.923 269.12 425.23 270.493 425.497 271.8C425.79 273.08 426.03 274.36 426.217 275.64C426.43 276.92 426.603 278.267 426.737 279.68H427.697C427.75 278.24 427.843 276.8 427.977 275.36C428.11 273.893 428.283 272.44 428.497 271C428.71 269.533 428.923 268.08 429.137 266.64C429.377 265.2 429.603 263.813 429.817 262.48C430.377 262.48 430.95 262.48 431.537 262.48C432.123 262.48 432.71 262.48 433.297 262.48C433.91 262.48 434.483 262.48 435.017 262.48C435.123 262.48 435.203 262.493 435.257 262.52C435.337 262.52 435.39 262.56 435.417 262.64C435.47 262.72 435.47 262.84 435.417 263C435.043 264.68 434.67 266.387 434.297 268.12C433.923 269.853 433.537 271.613 433.137 273.4C432.763 275.16 432.39 276.933 432.017 278.72C431.643 280.507 431.27 282.267 430.897 284C430.417 284 429.91 284 429.377 284C428.843 284 428.297 284 427.737 284C427.177 284 426.63 284 426.097 284C425.563 284 425.057 284 424.577 284C424.39 284 424.243 283.933 424.137 283.8C424.03 283.667 423.91 283.387 423.777 282.96C423.483 281.733 423.23 280.72 423.017 279.92C422.803 279.093 422.63 278.36 422.497 277.72C422.363 277.08 422.23 276.4 422.097 275.68C421.963 274.933 421.83 274.053 421.697 273.04C421.563 272 421.403 270.667 421.217 269.04H420.417C420.23 270.373 420.07 271.507 419.937 272.44C419.83 273.373 419.71 274.187 419.577 274.88C419.47 275.547 419.35 276.173 419.217 276.76C419.11 277.347 418.977 277.96 418.817 278.6C418.683 279.24 418.497 280 418.257 280.88C418.043 281.733 417.777 282.773 417.457 284C416.843 284 416.15 284 415.377 284C414.63 284 413.897 284 413.177 284C412.457 284 411.803 284 411.217 284C411.03 284 410.883 283.933 410.777 283.8C410.67 283.64 410.563 283.333 410.457 282.88C410.19 281.707 409.923 280.467 409.657 279.16C409.39 277.827 409.097 276.48 408.777 275.12C408.483 273.733 408.19 272.333 407.897 270.92C407.603 269.507 407.297 268.093 406.977 266.68C406.683 265.267 406.39 263.867 406.097 262.48C406.63 262.48 407.177 262.48 407.737 262.48C408.323 262.48 408.91 262.48 409.497 262.48C410.083 262.48 410.657 262.48 411.217 262.48C411.323 262.48 411.403 262.493 411.457 262.52C411.537 262.547 411.59 262.6 411.617 262.68C411.67 262.733 411.71 262.84 411.737 263C411.977 264.413 412.203 265.813 412.417 267.2C412.657 268.587 412.883 269.973 413.097 271.36C413.31 272.72 413.483 274.093 413.617 275.48C413.777 276.867 413.883 278.267 413.937 279.68H414.897C415.03 278.293 415.19 276.907 415.377 275.52C415.59 274.133 415.843 272.733 416.137 271.32C416.43 269.907 416.737 268.467 417.057 267C417.377 265.533 417.71 264.027 418.057 262.48Z"></path>
<path fill="#E74C3C" d="M393.472 262C395.286 262 396.859 262.373 398.192 263.12C399.552 263.867 400.606 264.907 401.352 266.24C402.099 267.573 402.472 269.133 402.472 270.92V274.24C402.472 274.32 402.459 274.4 402.432 274.48C402.406 274.533 402.352 274.573 402.272 274.6C402.219 274.627 402.152 274.64 402.072 274.64H392.872C392.419 274.64 391.952 274.64 391.472 274.64C391.019 274.64 390.566 274.64 390.112 274.64H388.472L388.352 271.28H397.232C397.232 271.173 397.232 271.08 397.232 271C397.232 270.92 397.232 270.827 397.232 270.72C397.232 269.947 397.152 269.293 396.992 268.76C396.832 268.2 396.579 267.76 396.232 267.44C395.939 267.12 395.566 266.893 395.112 266.76C394.659 266.627 394.112 266.56 393.472 266.56C392.139 266.56 391.139 266.893 390.472 267.56C389.832 268.2 389.512 269.253 389.512 270.72V275.6C389.512 276.24 389.592 276.813 389.752 277.32C389.939 277.8 390.192 278.213 390.512 278.56C390.939 278.987 391.499 279.293 392.192 279.48C392.912 279.667 393.739 279.76 394.672 279.76C395.632 279.76 396.486 279.72 397.232 279.64C397.979 279.533 398.672 279.4 399.312 279.24C399.952 279.053 400.579 278.853 401.192 278.64H401.952C401.952 279.307 401.952 279.987 401.952 280.68C401.952 281.347 401.952 282.027 401.952 282.72C401.952 282.773 401.939 282.827 401.912 282.88C401.886 282.933 401.846 282.987 401.792 283.04C401.579 283.253 401.099 283.467 400.352 283.68C399.632 283.893 398.752 284.08 397.712 284.24C396.699 284.4 395.659 284.48 394.592 284.48C392.859 284.48 391.326 284.28 389.992 283.88C388.686 283.453 387.592 282.853 386.712 282.08C385.859 281.307 385.206 280.373 384.752 279.28C384.326 278.16 384.112 276.907 384.112 275.52V270.96C384.112 269.6 384.326 268.373 384.752 267.28C385.206 266.187 385.846 265.253 386.672 264.48C387.499 263.68 388.486 263.067 389.632 262.64C390.779 262.213 392.059 262 393.472 262Z"></path>
<path fill="#E74C3C" d="M363.36 284C363.307 284 363.253 283.987 363.2 283.96C363.147 283.933 363.093 283.907 363.04 283.88C363.013 283.827 362.987 283.773 362.96 283.72C362.933 283.667 362.92 283.613 362.92 283.56C362.92 281.507 362.92 279.44 362.92 277.36C362.92 275.28 362.92 273.213 362.92 271.16C362.92 269.107 362.92 267.093 362.92 265.12C362.92 263.12 362.92 261.187 362.92 259.32C362.92 258.76 362.92 258.213 362.92 257.68C362.92 257.12 362.92 256.56 362.92 256C363.827 256 364.72 256 365.6 256C366.48 256 367.36 256 368.24 256C368.32 256 368.387 256.027 368.44 256.08C368.52 256.107 368.573 256.16 368.6 256.24C368.653 256.293 368.68 256.36 368.68 256.44C368.68 258.307 368.68 260.187 368.68 262.08C368.68 263.973 368.68 265.88 368.68 267.8C368.68 269.693 368.68 271.587 368.68 273.48C368.68 275.373 368.68 277.253 368.68 279.12H375.64C376.333 279.12 376.92 279.213 377.4 279.4C377.907 279.56 378.32 279.84 378.64 280.24C378.96 280.64 379.213 281.147 379.4 281.76C379.613 282.373 379.8 283.12 379.96 284H363.36ZM374.88 276.04C375.413 276.04 375.933 276.04 376.44 276.04C376.947 276.04 377.44 276.04 377.92 276.04C378.427 276.04 378.96 276.04 379.52 276.04C379.6 276.04 379.667 276.067 379.72 276.12C379.8 276.147 379.853 276.2 379.88 276.28C379.933 276.333 379.96 276.4 379.96 276.48C379.96 276.987 379.96 277.56 379.96 278.2C379.96 278.84 379.96 279.52 379.96 280.24C379.96 280.933 379.96 281.613 379.96 282.28C379.96 282.92 379.96 283.493 379.96 284C378.653 283.893 377.627 283.653 376.88 283.28C376.133 282.907 375.613 282.413 375.32 281.8C375.027 281.187 374.88 280.48 374.88 279.68C374.88 279.307 374.88 278.907 374.88 278.48C374.88 278.053 374.88 277.627 374.88 277.2C374.88 276.747 374.88 276.36 374.88 276.04Z"></path>
<path fill="#E74C3C" d="M150 285.5C224.835 285.5 285.5 224.835 285.5 150C285.5 75.1654 224.835 14.5 150 14.5C75.1654 14.5 14.5 75.1654 14.5 150C14.5 224.835 75.1654 285.5 150 285.5ZM150 300C232.843 300 300 232.843 300 150C300 67.1573 232.843 0 150 0C67.1573 0 0 67.1573 0 150C0 232.843 67.1573 300 150 300Z" clip-rule="evenodd" fill-rule="evenodd"></path>
<path fill="#E74C3C" d="M218.375 204.109C218.782 205.227 218.861 206.437 218.603 207.598C218.346 208.759 217.763 209.823 216.922 210.664L198.172 229.414C197.592 229.996 196.902 230.457 196.144 230.772C195.385 231.087 194.572 231.25 193.75 231.25C193.544 231.261 193.338 231.261 193.133 231.25C192.213 231.159 191.324 230.866 190.531 230.39C189.738 229.915 189.06 229.269 188.547 228.5L154.117 176.844L137.5 193.43V212.5C137.499 214.155 136.842 215.743 135.672 216.914C135.672 216.914 124.734 227.898 123.266 229.32C122.655 229.96 121.914 230.46 121.094 230.789C119.564 231.412 117.85 231.404 116.326 230.768C114.802 230.131 113.592 228.917 112.961 227.391L101.43 198.555L72.6562 187.047C71.6964 186.663 70.8468 186.047 70.1835 185.254C69.5202 184.461 69.064 183.516 68.8558 182.503C68.6475 181.49 68.6937 180.442 68.9902 179.452C69.2867 178.461 69.8243 177.56 70.5547 176.828L83.0547 164.328C83.6383 163.745 84.3316 163.283 85.0946 162.97C85.8575 162.656 86.6751 162.496 87.5 162.5H106.562L123.18 145.883L71.5312 111.445C70.7609 110.933 70.1141 110.255 69.6374 109.462C69.1608 108.669 68.8662 107.779 68.775 106.859C68.6838 105.938 68.7983 105.008 69.1101 104.137C69.4219 103.265 69.9233 102.474 70.5781 101.82L89.3281 83.0703C90.1692 82.2296 91.2327 81.6463 92.3938 81.3889C93.5548 81.1315 94.7652 81.2107 95.8828 81.6172L163.023 106.031L187.656 81.3984C191.759 77.2959 197.323 74.9911 203.125 74.9911C205.998 74.9911 208.843 75.5569 211.497 76.6563C214.151 77.7557 216.562 79.3671 218.594 81.3984C220.625 83.4298 222.237 85.8414 223.336 88.4956C224.435 91.1497 225.001 93.9944 225.001 96.8672C225.001 99.74 224.435 102.585 223.336 105.239C222.237 107.893 220.625 110.305 218.594 112.336L193.961 136.969L218.375 204.109Z"></path>
</svg>
