<svg width="150" height="150" viewBox="0 0 150 150" fill="none" xmlns="http://www.w3.org/2000/svg">
<circle cx="75" cy="75" r="71.375" stroke="#E74C3C" stroke-width="7.25"></circle>
<path d="M109.187 102.055C109.391 102.613 109.43 103.219 109.302 103.799C109.173 104.38 108.881 104.911 108.461 105.332L99.0859 114.707C98.7958 114.998 98.4512 115.229 98.0718 115.386C97.6924 115.544 97.2857 115.625 96.8749 115.625C96.7722 115.631 96.6691 115.631 96.5664 115.625C96.1062 115.58 95.6619 115.433 95.2654 115.195C94.8689 114.957 94.5301 114.634 94.2734 114.25L77.0585 88.4218L68.7499 96.7148V106.25C68.7496 107.078 68.4208 107.871 67.8359 108.457C67.8359 108.457 62.3671 113.949 61.6328 114.66C61.3275 114.98 60.9572 115.23 60.5468 115.394C59.782 115.706 58.925 115.702 58.1631 115.384C57.4011 115.065 56.7962 114.458 56.4804 113.695L56.457 113.637L50.7148 99.2773L36.3281 93.5234C35.8481 93.3314 35.4233 93.0233 35.0917 92.6268C34.7601 92.2303 34.532 91.7578 34.4278 91.2514C34.3237 90.7451 34.3468 90.2209 34.495 89.7257C34.6433 89.2305 34.9121 88.7798 35.2773 88.414L41.5273 82.164C41.8191 81.8725 42.1658 81.6417 42.5472 81.4848C42.9287 81.3279 43.3375 81.2481 43.7499 81.2499H53.2812L61.5898 72.9414L35.7656 55.7226C35.3804 55.4662 35.057 55.1275 34.8187 54.7309C34.5803 54.3343 34.4331 53.8897 34.3875 53.4292C34.3419 52.9688 34.3991 52.5039 34.555 52.0683C34.7109 51.6327 34.9616 51.2371 35.289 50.9101L44.664 41.5351C45.0846 41.1147 45.6163 40.8231 46.1968 40.6944C46.7774 40.5657 47.3825 40.6053 47.9413 40.8085L81.5117 53.0156L93.8281 40.6992C95.8794 38.6479 98.6615 37.4955 101.562 37.4955C102.999 37.4955 104.421 37.7784 105.748 38.3281C107.075 38.8778 108.281 39.6835 109.297 40.6992C110.313 41.7149 111.118 42.9207 111.668 44.2477C112.218 45.5748 112.501 46.9971 112.501 48.4335C112.501 49.8699 112.218 51.2923 111.668 52.6194C111.118 53.9464 110.313 55.1522 109.297 56.1679L96.9804 68.4843L109.187 102.055Z" fill="#E74C3C"></path>
</svg>
